<svg width="274" height="205" viewBox="0 0 274 205" fill="none" xmlns="http://www.w3.org/2000/svg">
<path d="M274 179.415H0V179.552H274V179.415Z" fill="#EBEBEB"/>
<path d="M246.545 188.231H228.395V188.368H246.545V188.231Z" fill="#EBEBEB"/>
<path d="M181.508 189.723H176.746V189.86H181.508V189.723Z" fill="#EBEBEB"/>
<path d="M227.848 183.146H217.332V183.283H227.848V183.146Z" fill="#EBEBEB"/>
<path d="M52.4158 184.068H28.7477V184.205H52.4158V184.068Z" fill="#EBEBEB"/>
<path d="M60.7675 184.068H57.2987V184.205H60.7675V184.068Z" fill="#EBEBEB"/>
<path d="M123.382 186.38H72.0457V186.517H123.382V186.38Z" fill="#EBEBEB"/>
<path d="M129.876 154.974H24.0624C23.2335 154.973 22.439 154.642 21.8534 154.056C21.2678 153.469 20.9388 152.674 20.9388 151.845V3.10168C20.9461 2.2775 21.2782 1.48945 21.863 0.908702C22.4479 0.327955 23.2382 0.00141186 24.0624 0H129.876C130.705 0 131.501 0.32967 132.088 0.916485C132.675 1.5033 133.005 2.29919 133.005 3.12908V151.845C133.005 152.675 132.675 153.471 132.088 154.058C131.501 154.645 130.705 154.974 129.876 154.974ZM24.0624 0.1096C23.2698 0.111052 22.5102 0.426927 21.9503 0.987893C21.3903 1.54886 21.0758 2.30908 21.0758 3.10168V151.845C21.0758 152.638 21.3903 153.398 21.9503 153.959C22.5102 154.52 23.2698 154.836 24.0624 154.837H129.876C130.669 154.836 131.429 154.52 131.99 153.959C132.551 153.398 132.866 152.638 132.868 151.845V3.10168C132.866 2.30857 132.551 1.54837 131.99 0.987558C131.429 0.426749 130.669 0.111049 129.876 0.1096H24.0624Z" fill="#EBEBEB"/>
<path d="M248.414 154.974H142.595C141.766 154.973 140.971 154.643 140.384 154.056C139.798 153.47 139.468 152.675 139.466 151.845V3.10168C139.475 2.277 139.808 1.48896 140.394 0.90836C140.979 0.327763 141.77 0.00139646 142.595 0H248.414C249.237 0.00285206 250.026 0.330032 250.61 0.910626C251.193 1.49122 251.525 2.27844 251.532 3.10168V151.845C251.532 152.673 251.204 153.467 250.619 154.054C250.035 154.64 249.242 154.971 248.414 154.974ZM142.595 0.1096C141.802 0.111049 141.042 0.426749 140.481 0.987558C139.92 1.54837 139.605 2.30857 139.603 3.10168V151.845C139.605 152.638 139.92 153.398 140.481 153.959C141.042 154.52 141.802 154.836 142.595 154.837H248.414C249.207 154.836 249.967 154.52 250.528 153.959C251.089 153.398 251.404 152.638 251.406 151.845V3.10168C251.404 2.30857 251.089 1.54837 250.528 0.987558C249.967 0.426749 249.207 0.111049 248.414 0.1096H142.595Z" fill="#EBEBEB"/>
<path d="M91.2634 27.0215H52.6569V28.1887H91.2634V27.0215Z" fill="#E0E0E0"/>
<path d="M91.2634 157.807H52.6569V160.306H91.2634V157.807Z" fill="#EBEBEB"/>
<path d="M90.6226 160.196H54.1423V160.306H90.6226V160.196Z" fill="#EBEBEB"/>
<path d="M135.81 27.0215H96.1079V28.1887H135.81V27.0215Z" fill="#E0E0E0"/>
<path d="M135.81 157.807H96.1079V160.306H135.81V157.807Z" fill="#EBEBEB"/>
<path d="M134.074 160.196H97.5934V160.306H134.074V160.196Z" fill="#EBEBEB"/>
<path d="M178.166 27.0215H139.559V28.1887H178.166V27.0215Z" fill="#E0E0E0"/>
<path d="M178.166 157.807H139.559V160.306H178.166V157.807Z" fill="#EBEBEB"/>
<path d="M177.525 160.196H141.044V160.306H177.525V160.196Z" fill="#EBEBEB"/>
<path d="M221.611 27.0215H183.005V28.1887H221.611V27.0215Z" fill="#E0E0E0"/>
<path d="M221.611 157.807H183.005V160.306H221.611V157.807Z" fill="#EBEBEB"/>
<path d="M220.969 160.196H184.489V160.306H220.969V160.196Z" fill="#EBEBEB"/>
<path d="M79.8711 128.489H62.9215V157.802H79.8711V128.489Z" fill="#EBEBEB"/>
<path d="M76.6158 124.39V131.744H75.2841H67.5135H66.1764V124.39H76.6158Z" fill="#EBEBEB"/>
<path d="M76.6159 131.744H78.786V129.574H76.6159V131.744Z" fill="#FAFAFA"/>
<path d="M72.4181 131.744H74.5881V129.574H72.4181V131.744Z" fill="#FAFAFA"/>
<path d="M68.2147 131.744H70.3848V129.574H68.2147V131.744Z" fill="#FAFAFA"/>
<path d="M64.0123 131.744H66.1824V129.574H64.0123V131.744Z" fill="#F0F0F0"/>
<path d="M76.6159 135.69H78.786V133.52H76.6159V135.69Z" fill="#F0F0F0"/>
<path d="M72.4181 135.69H74.5881V133.52H72.4181V135.69Z" fill="#F0F0F0"/>
<path d="M68.2147 135.69H70.3848V133.52H68.2147V135.69Z" fill="#FAFAFA"/>
<path d="M64.0123 135.69H66.1824V133.52H64.0123V135.69Z" fill="#FAFAFA"/>
<path d="M76.6159 139.63H78.786V137.46H76.6159V139.63Z" fill="#F0F0F0"/>
<path d="M72.4181 139.63H74.5881V137.46H72.4181V139.63Z" fill="#FAFAFA"/>
<path d="M68.2147 139.63H70.3848V137.46H68.2147V139.63Z" fill="#FAFAFA"/>
<path d="M72.4181 128.336H74.5881V126.166H72.4181V128.336Z" fill="#FAFAFA"/>
<path d="M68.2147 128.336H70.3848V126.166H68.2147V128.336Z" fill="#F0F0F0"/>
<path d="M64.0123 139.63H66.1824V137.46H64.0123V139.63Z" fill="#F0F0F0"/>
<path d="M76.6159 143.57H78.786V141.4H76.6159V143.57Z" fill="#FAFAFA"/>
<path d="M72.4181 143.57H74.5881V141.4H72.4181V143.57Z" fill="#F0F0F0"/>
<path d="M68.2147 143.57H70.3848V141.4H68.2147V143.57Z" fill="#F0F0F0"/>
<path d="M64.0123 143.57H66.1824V141.4H64.0123V143.57Z" fill="#FAFAFA"/>
<path d="M76.6159 147.516H78.786V145.346H76.6159V147.516Z" fill="#F0F0F0"/>
<path d="M72.4181 147.516H74.5881V145.346H72.4181V147.516Z" fill="#FAFAFA"/>
<path d="M68.2147 147.516H70.3848V145.346H68.2147V147.516Z" fill="#FAFAFA"/>
<path d="M64.0123 147.516H66.1824V145.346H64.0123V147.516Z" fill="#F0F0F0"/>
<path d="M76.6159 151.455H78.786V149.285H76.6159V151.455Z" fill="#F0F0F0"/>
<path d="M72.4181 151.455H74.5881V149.285H72.4181V151.455Z" fill="#FAFAFA"/>
<path d="M68.2147 151.455H70.3848V149.285H68.2147V151.455Z" fill="#F0F0F0"/>
<path d="M64.0123 151.455H66.1824V149.285H64.0123V151.455Z" fill="#FAFAFA"/>
<path d="M76.6159 155.407H78.786V153.237H76.6159V155.407Z" fill="#FAFAFA"/>
<path d="M72.4181 155.407H74.5881V153.237H72.4181V155.407Z" fill="#FAFAFA"/>
<path d="M68.2147 155.407H70.3848V153.237H68.2147V155.407Z" fill="#F0F0F0"/>
<path d="M64.0123 155.407H66.1824V153.237H64.0123V155.407Z" fill="#F0F0F0"/>
<path d="M175.437 128.489H158.487V157.802H175.437V128.489Z" fill="#EBEBEB"/>
<path d="M172.187 124.39V131.744H170.85H163.079H161.742V124.39H172.187Z" fill="#EBEBEB"/>
<path d="M172.182 131.744H174.352V129.574H172.182V131.744Z" fill="#FAFAFA"/>
<path d="M167.978 131.744H170.149V129.574H167.978V131.744Z" fill="#FAFAFA"/>
<path d="M163.781 131.744H165.951V129.574H163.781V131.744Z" fill="#FAFAFA"/>
<path d="M159.578 131.744H161.748V129.574H159.578V131.744Z" fill="#F0F0F0"/>
<path d="M172.182 135.69H174.352V133.52H172.182V135.69Z" fill="#F0F0F0"/>
<path d="M167.978 135.69H170.149V133.52H167.978V135.69Z" fill="#F0F0F0"/>
<path d="M163.781 135.69H165.951V133.52H163.781V135.69Z" fill="#FAFAFA"/>
<path d="M159.578 135.69H161.748V133.52H159.578V135.69Z" fill="#FAFAFA"/>
<path d="M172.182 139.63H174.352V137.46H172.182V139.63Z" fill="#F0F0F0"/>
<path d="M167.978 139.63H170.149V137.46H167.978V139.63Z" fill="#FAFAFA"/>
<path d="M163.781 139.63H165.951V137.46H163.781V139.63Z" fill="#FAFAFA"/>
<path d="M167.978 128.336H170.149V126.166H167.978V128.336Z" fill="#FAFAFA"/>
<path d="M163.781 128.336H165.951V126.166H163.781V128.336Z" fill="#F0F0F0"/>
<path d="M159.578 139.63H161.748V137.46H159.578V139.63Z" fill="#F0F0F0"/>
<path d="M172.182 143.57H174.352V141.4H172.182V143.57Z" fill="#FAFAFA"/>
<path d="M167.978 143.57H170.149V141.4H167.978V143.57Z" fill="#F0F0F0"/>
<path d="M163.781 143.57H165.951V141.4H163.781V143.57Z" fill="#F0F0F0"/>
<path d="M159.578 143.57H161.748V141.4H159.578V143.57Z" fill="#FAFAFA"/>
<path d="M172.182 147.516H174.352V145.346H172.182V147.516Z" fill="#F0F0F0"/>
<path d="M167.978 147.516H170.149V145.346H167.978V147.516Z" fill="#FAFAFA"/>
<path d="M163.781 147.516H165.951V145.346H163.781V147.516Z" fill="#FAFAFA"/>
<path d="M159.578 147.516H161.748V145.346H159.578V147.516Z" fill="#F0F0F0"/>
<path d="M172.182 151.455H174.352V149.285H172.182V151.455Z" fill="#F0F0F0"/>
<path d="M167.978 151.455H170.149V149.285H167.978V151.455Z" fill="#FAFAFA"/>
<path d="M163.781 151.455H165.951V149.285H163.781V151.455Z" fill="#F0F0F0"/>
<path d="M159.578 151.455H161.748V149.285H159.578V151.455Z" fill="#FAFAFA"/>
<path d="M172.182 155.407H174.352V153.237H172.182V155.407Z" fill="#FAFAFA"/>
<path d="M167.978 155.407H170.149V153.237H167.978V155.407Z" fill="#FAFAFA"/>
<path d="M163.781 155.407H165.951V153.237H163.781V155.407Z" fill="#F0F0F0"/>
<path d="M159.578 155.407H161.748V153.237H159.578V155.407Z" fill="#F0F0F0"/>
<path d="M202.365 139.163H187.18V157.795H202.365V139.163Z" fill="#F0F0F0"/>
<path d="M188.5 141.23H192.03H193.005H193.975V143.176H193.005H192.03H188.5V141.23Z" fill="#E6E6E6"/>
<path d="M188.5 145.002H192.03H193.005H193.975V146.942H193.005H192.03H188.5V145.002Z" fill="#FAFAFA"/>
<path d="M188.5 148.764H192.03H193.005H193.975V150.704H193.005H192.03H188.5V148.764Z" fill="#E6E6E6"/>
<path d="M188.5 152.53H192.03H193.537H193.975V154.476H193.537H192.03H188.5V152.53Z" fill="#FAFAFA"/>
<path d="M195.564 141.23H199.099H200.069H201.039V143.176H200.069H199.099H195.564V141.23Z" fill="#FAFAFA"/>
<path d="M195.564 145.002H199.099H200.469H201.039V146.942H200.469H199.099H195.564V145.002Z" fill="#FAFAFA"/>
<path d="M195.564 148.764H199.099H200.069H201.039V150.704H200.069H199.099H195.564V148.764Z" fill="#E6E6E6"/>
<path d="M195.564 152.53H199.099H200.069H201.039V154.476H200.069H199.099H195.564V152.53Z" fill="#FAFAFA"/>
<path d="M129.947 146.223H116.148V157.802H129.947V146.223Z" fill="#F0F0F0"/>
<path d="M127.294 149.433H129.059V147.668H127.294V149.433Z" fill="#FAFAFA"/>
<path d="M123.869 149.433H125.634V147.668H123.869V149.433Z" fill="#FAFAFA"/>
<path d="M120.456 149.433H122.22V147.668H120.456V149.433Z" fill="#FAFAFA"/>
<path d="M117.031 149.433H118.795V147.668H117.031V149.433Z" fill="#FAFAFA"/>
<path d="M127.294 152.64H129.059V150.875H127.294V152.64Z" fill="#FAFAFA"/>
<path d="M123.869 152.64H125.634V150.875H123.869V152.64Z" fill="#FAFAFA"/>
<path d="M120.456 152.64H122.22V150.875H120.456V152.64Z" fill="#FAFAFA"/>
<path d="M117.031 152.64H118.795V150.875H117.031V152.64Z" fill="#E6E6E6"/>
<path d="M127.294 155.847H129.059V154.082H127.294V155.847Z" fill="#E6E6E6"/>
<path d="M123.869 155.847H125.634V154.082H123.869V155.847Z" fill="#E6E6E6"/>
<path d="M120.456 155.847H122.22V154.082H120.456V155.847Z" fill="#FAFAFA"/>
<path d="M117.031 155.847H118.795V154.082H117.031V155.847Z" fill="#E6E6E6"/>
<path d="M157.041 146.223H143.242V157.802H157.041V146.223Z" fill="#F0F0F0"/>
<path d="M154.393 149.433H156.158V147.668H154.393V149.433Z" fill="#FAFAFA"/>
<path d="M150.968 149.433H152.733V147.668H150.968V149.433Z" fill="#FAFAFA"/>
<path d="M147.544 149.433H149.308V147.668H147.544V149.433Z" fill="#FAFAFA"/>
<path d="M144.13 149.433H145.894V147.668H144.13V149.433Z" fill="#FAFAFA"/>
<path d="M154.393 152.64H156.158V150.875H154.393V152.64Z" fill="#FAFAFA"/>
<path d="M150.968 152.64H152.733V150.875H150.968V152.64Z" fill="#FAFAFA"/>
<path d="M147.544 152.64H149.308V150.875H147.544V152.64Z" fill="#FAFAFA"/>
<path d="M144.13 152.64H145.894V150.875H144.13V152.64Z" fill="#E6E6E6"/>
<path d="M154.393 155.847H156.158V154.082H154.393V155.847Z" fill="#E6E6E6"/>
<path d="M150.968 155.847H152.733V154.082H150.968V155.847Z" fill="#E6E6E6"/>
<path d="M147.544 155.847H149.308V154.082H147.544V155.847Z" fill="#FAFAFA"/>
<path d="M144.13 155.847H145.894V154.082H144.13V155.847Z" fill="#E6E6E6"/>
<path d="M114.28 137.658H100.481V157.797H114.28V137.658Z" fill="#F0F0F0"/>
<path d="M113.398 138.545H108.208V143.521H113.398V138.545Z" fill="#FAFAFA"/>
<path d="M106.553 138.545H101.363V143.521H106.553V138.545Z" fill="#FAFAFA"/>
<path d="M113.398 144.962H108.208V149.938H113.398V144.962Z" fill="#FAFAFA"/>
<path d="M106.553 144.962H101.363V149.938H106.553V144.962Z" fill="#FAFAFA"/>
<path d="M113.398 151.38H108.208V156.356H113.398V151.38Z" fill="#FAFAFA"/>
<path d="M106.553 151.38H101.363V156.356H106.553V151.38Z" fill="#FAFAFA"/>
<path d="M218.471 137.658H204.672V157.797H218.471V137.658Z" fill="#F0F0F0"/>
<path d="M217.589 138.545H212.399V143.521H217.589V138.545Z" fill="#FAFAFA"/>
<path d="M210.744 138.545H205.554V143.521H210.744V138.545Z" fill="#FAFAFA"/>
<path d="M217.589 144.962H212.399V149.938H217.589V144.962Z" fill="#FAFAFA"/>
<path d="M210.744 144.962H205.554V149.938H210.744V144.962Z" fill="#FAFAFA"/>
<path d="M217.589 151.38H212.399V156.356H217.589V151.38Z" fill="#FAFAFA"/>
<path d="M210.744 151.38H205.554V156.356H210.744V151.38Z" fill="#FAFAFA"/>
<path d="M45.6976 164.991C45.6976 164.991 42.9247 158.963 46.0921 152.968C49.2595 146.973 50.1857 145.598 48.1636 144.37C46.1414 143.143 45.2153 149.149 45.2153 149.149C44.2189 146.437 44.1209 143.476 44.9358 140.704C46.3387 136.386 47.221 129.355 45.303 128.599C43.385 127.843 44.9358 137.367 43.2644 140.622C42.4111 138.341 41.8584 135.96 41.6204 133.536C41.3903 130.067 41.752 124.527 40.234 123.124C38.716 121.721 37.7461 122.686 39.2366 130.341C40.1325 134.915 40.6276 139.557 40.7162 144.217C40.7162 144.217 37.4282 134.177 35.2363 133.882C33.0443 133.586 33.0443 136.841 34.9239 139.663C36.8035 142.485 40.4642 147.538 41.0615 150.135C41.0615 150.135 37.4447 142.578 34.1951 144.896C30.9454 147.214 37.0282 151.774 39.7353 153.423C42.4424 155.073 44.3276 165.408 44.3276 165.408L45.6976 164.991Z" fill="#E0E0E0"/>
<path d="M43.5055 167.474C43.5055 167.474 46.2071 161.38 42.9575 155.462C39.7078 149.544 38.7762 148.146 40.7655 146.897C42.7547 145.647 43.7685 151.626 43.7685 151.626C43.7685 151.626 45.4125 147.472 43.9658 143.176C42.5191 138.879 41.5382 131.86 43.4507 131.076C45.3632 130.292 43.922 139.844 45.6427 143.066C46.4677 140.769 46.989 138.374 47.1935 135.942C47.3798 132.473 46.9524 126.939 48.4539 125.497C49.9554 124.056 50.9363 125.021 49.5499 132.698C48.7051 137.289 48.2614 141.944 48.2237 146.612C48.2237 146.612 51.3967 136.523 53.6051 136.2C55.8135 135.876 55.8464 139.121 53.9887 141.97C52.131 144.82 48.5416 149.927 47.9607 152.536C47.9607 152.536 51.4843 144.924 54.7614 147.193C58.0384 149.461 52.0214 154.114 49.3252 155.802C46.6291 157.49 44.8755 167.858 44.8755 167.858L43.5055 167.474Z" fill="#EBEBEB"/>
<path d="M55.9729 163.134H33.6475L35.4559 179.102H54.1645L55.9729 163.134Z" fill="#EBEBEB"/>
<path d="M223.299 161.994C223.381 161.446 225.227 148.683 221.523 144.272C221.153 143.808 220.686 143.431 220.153 143.17C219.62 142.908 219.037 142.768 218.443 142.76C210.958 142.584 209.933 148.596 209.922 148.656L210.81 148.793C210.843 148.574 211.73 143.488 218.421 143.653C218.888 143.657 219.348 143.767 219.766 143.974C220.185 144.181 220.551 144.479 220.838 144.847C224.29 148.952 222.433 161.737 222.416 161.863L223.299 161.994Z" fill="#EBEBEB"/>
<path d="M223.748 161.412L224.642 161.385C224.642 161.264 224.346 149.614 230.089 147.208C235.711 144.852 238.243 149.696 238.347 149.904L239.147 149.504C239.114 149.449 236.15 143.701 229.744 146.386C223.436 149.055 223.737 160.908 223.748 161.412Z" fill="#EBEBEB"/>
<path d="M223.727 162.329C223.727 162.142 223.781 143.697 227.371 138.326C230.818 133.153 236.385 135.586 236.621 135.696L236.988 134.885C236.922 134.852 230.505 132.019 226.626 137.833C222.888 143.445 222.833 161.556 222.833 162.329H223.727Z" fill="#EBEBEB"/>
<path d="M217.369 143.197C217.369 143.197 220.657 144.403 219.665 147.247C218.673 150.091 208.36 154.771 208.36 154.771C208.36 154.771 204.036 150.809 208.009 144.359C211.982 137.909 217.281 141.164 217.369 143.197Z" fill="#E0E0E0"/>
<path d="M227.535 137.357C227.535 137.357 225.211 137.11 225.397 135.713C225.584 134.316 234.417 130.66 239.645 136.546C239.645 136.546 236.308 142.278 231.486 142.349C226.663 142.421 227.535 137.357 227.535 137.357Z" fill="#E0E0E0"/>
<path d="M229.914 146.798C229.914 146.798 228.313 145.505 230.04 144.875C231.766 144.245 240.249 144.426 240.336 152.821C240.336 152.821 230.473 154.465 229.24 151.265C228.007 148.064 229.914 146.798 229.914 146.798Z" fill="#E0E0E0"/>
<path d="M215.616 179.102H230.943L232.593 162.328H213.961L215.616 179.102Z" fill="#EBEBEB"/>
<path d="M213.139 164.176H233.41V160.471H213.139V164.176Z" fill="#E0E0E0"/>
<path d="M137 204.162C195.681 204.162 243.251 201.384 243.251 197.958C243.251 194.532 195.681 191.755 137 191.755C78.3185 191.755 30.748 194.532 30.748 197.958C30.748 201.384 78.3185 204.162 137 204.162Z" fill="#F5F5F5"/>
<path d="M218.416 193.488L222.509 193.948L222 181.859L217.117 182.55L218.416 193.488Z" fill="#263238"/>
<path d="M197.044 193.63L201.17 193.219L202.222 182.615H197.29L197.044 193.63Z" fill="#263238"/>
<path opacity="0.6" d="M218.416 193.488L222.509 193.948L222 181.859L217.117 182.55L218.416 193.488Z" fill="white"/>
<path opacity="0.6" d="M197.044 193.63L201.17 193.219L202.222 182.615H197.29L197.044 193.63Z" fill="white"/>
<path d="M217.292 104.186C217.292 104.186 216.876 106.926 216.656 106.926C216.437 106.926 213.917 104.504 213.917 104.504L215.61 102.158L217.292 104.186Z" fill="#263238"/>
<path opacity="0.6" d="M217.292 104.186C217.292 104.186 216.876 106.926 216.656 106.926C216.437 106.926 213.917 104.504 213.917 104.504L215.61 102.158L217.292 104.186Z" fill="white"/>
<path d="M212.876 71.6348C215.358 72.1828 222.619 88.3871 223.288 90.9572C223.956 93.5273 217.649 105.381 217.649 105.381L214.618 102.032L218.104 90.9682L212.35 80.7809L212.876 71.6348Z" fill="#263238"/>
<path opacity="0.8" d="M212.876 71.6348C215.358 72.1828 222.619 88.3871 223.288 90.9572C223.956 93.5273 217.649 105.381 217.649 105.381L214.618 102.032L218.104 90.9682L212.35 80.7809L212.876 71.6348Z" fill="white"/>
<path d="M223.178 192.896H218.103C218.02 192.896 217.94 192.924 217.875 192.976C217.811 193.028 217.765 193.1 217.747 193.18L216.892 196.869C216.871 196.958 216.871 197.051 216.891 197.141C216.912 197.23 216.953 197.314 217.012 197.385C217.07 197.456 217.144 197.513 217.228 197.55C217.312 197.588 217.403 197.606 217.495 197.603C219.139 197.575 220.306 197.482 222.356 197.482C223.621 197.482 227.419 197.614 229.162 197.614C230.904 197.614 231.145 195.893 230.439 195.734C227.249 195.038 224.849 194.09 223.835 193.153C223.654 192.991 223.421 192.9 223.178 192.896Z" fill="#263238"/>
<path d="M201.246 104.591C201.246 104.591 202.753 112.444 204.639 121.886C205.735 127.328 206.94 133.29 208.058 138.594C208.464 140.501 208.853 142.321 209.225 144.003C212.075 156.936 217.259 191.186 217.259 191.186L223.687 190.123C223.687 190.123 222.41 152.897 220.372 139.707C218.514 127.651 214.755 99.7852 214.755 99.7852L201.246 104.591Z" fill="#263238"/>
<path opacity="0.2" d="M204.639 121.886C205.735 127.328 206.941 133.29 208.059 138.595C209.377 131.436 208.811 124.058 206.415 117.185C205.705 118.705 205.112 120.277 204.639 121.886Z" fill="black"/>
<path d="M201.795 192.896H196.732C196.649 192.896 196.569 192.924 196.504 192.976C196.439 193.028 196.394 193.1 196.375 193.18L195.521 196.869C195.5 196.958 195.499 197.05 195.52 197.139C195.54 197.228 195.581 197.312 195.639 197.383C195.696 197.454 195.77 197.51 195.853 197.549C195.936 197.587 196.027 197.605 196.118 197.603C197.762 197.575 198.935 197.482 200.984 197.482C202.245 197.482 206.048 197.614 207.79 197.614C209.533 197.614 209.774 195.893 209.062 195.734C205.872 195.038 203.472 194.09 202.458 193.153C202.276 192.989 202.04 192.897 201.795 192.896Z" fill="#263238"/>
<path d="M206.551 100.35C206.551 100.35 206.365 128.495 206.519 140.666C206.688 153.993 202.65 191.082 202.65 191.082L196.15 190.534C196.15 190.534 195.893 156.558 194.884 143.357C193.756 128.593 192.89 103.139 192.89 103.139L206.551 100.35Z" fill="#263238"/>
<path d="M192.896 104.185C192.896 101.993 192.622 98.5135 192.534 95.483C192.452 92.7047 192.287 89.6304 191.986 86.4137C191.556 81.7956 190.781 77.2162 189.668 72.7137C189.668 72.7137 192.293 72.0287 195.268 71.5848C195.849 71.4971 196.452 71.4204 197.044 71.3546C200.173 70.9925 203.32 70.8095 206.47 70.8066C206.859 70.8066 207.242 70.834 207.615 70.8669C209.389 70.9987 211.153 71.2403 212.898 71.5903C212.898 71.5903 217.742 82.4297 215.342 103.341L192.896 104.185Z" fill="#263238"/>
<path opacity="0.8" d="M192.896 104.185C192.896 101.993 192.622 98.5135 192.534 95.483C192.452 92.7047 192.287 89.6304 191.986 86.4137C191.556 81.7956 190.781 77.2162 189.668 72.7137C189.668 72.7137 192.293 72.0287 195.268 71.5848C195.849 71.4971 196.452 71.4204 197.044 71.3546C200.173 70.9925 203.32 70.8095 206.47 70.8066C206.859 70.8066 207.242 70.834 207.615 70.8669C209.389 70.9987 211.153 71.2403 212.898 71.5903C212.898 71.5903 217.742 82.4297 215.342 103.341L192.896 104.185Z" fill="white"/>
<path opacity="0.2" d="M191.065 79.5635C191.454 81.887 191.739 84.1831 191.964 86.4135C192.002 86.7971 192.035 87.1752 192.068 87.5533C192.787 85.2174 193.068 82.7686 192.896 80.3307C192.345 79.9516 191.722 79.6905 191.065 79.5635Z" fill="black"/>
<path d="M197.466 60.7227C198.2 63.7202 199.055 69.2386 197.028 71.3758C198.009 72.2977 199.179 72.9968 200.455 73.4252C201.732 73.8537 203.086 74.0014 204.426 73.8582C207.034 73.65 207.078 71.8251 206.448 70.8442C203.028 70.2304 203.001 67.7206 203.483 65.3313L197.466 60.7227Z" fill="#263238"/>
<path opacity="0.6" d="M197.466 60.7227C198.2 63.7202 199.055 69.2386 197.028 71.3758C198.009 72.2977 199.179 72.9968 200.455 73.4252C201.732 73.8537 203.086 74.0014 204.426 73.8582C207.034 73.65 207.078 71.8251 206.448 70.8442C203.028 70.2304 203.001 67.7206 203.483 65.3313L197.466 60.7227Z" fill="white"/>
<path opacity="0.2" d="M199.915 62.6025L203.477 65.3425C203.358 65.8981 203.287 66.4627 203.263 67.0304C201.965 66.9153 200.123 65.6001 199.926 64.252C199.821 63.7075 199.817 63.1484 199.915 62.6025Z" fill="black"/>
<path d="M195.981 56.7132C196.989 60.7574 197.373 63.1796 199.817 64.8784C203.516 67.4321 208.218 64.5715 208.437 60.2916C208.634 56.4556 206.952 50.4715 202.645 49.6276C201.691 49.4418 200.706 49.5007 199.782 49.7987C198.857 50.0967 198.023 50.6242 197.358 51.3318C196.692 52.0394 196.217 52.9041 195.976 53.8452C195.735 54.7862 195.737 55.7729 195.981 56.7132Z" fill="#263238"/>
<path opacity="0.6" d="M195.981 56.7132C196.989 60.7574 197.373 63.1796 199.817 64.8784C203.516 67.4321 208.218 64.5715 208.437 60.2916C208.634 56.4556 206.952 50.4715 202.645 49.6276C201.691 49.4418 200.706 49.5007 199.782 49.7987C198.857 50.0967 198.023 50.6242 197.358 51.3318C196.692 52.0394 196.217 52.9041 195.976 53.8452C195.735 54.7862 195.737 55.7729 195.981 56.7132Z" fill="white"/>
<path d="M202.397 56.6463C202.458 56.9806 202.688 57.1943 202.902 57.1943C203.115 57.1943 203.247 56.8436 203.187 56.5148C203.126 56.186 202.896 55.9668 202.682 55.9668C202.469 55.9668 202.337 56.312 202.397 56.6463Z" fill="#263238"/>
<path d="M206.163 55.8953C206.229 56.2296 206.453 56.4433 206.672 56.4433C206.892 56.4433 207.018 56.0981 206.952 55.7638C206.886 55.4295 206.667 55.2158 206.448 55.2158C206.229 55.2158 206.102 55.572 206.163 55.8953Z" fill="#263238"/>
<path opacity="0.2" d="M205.001 56.3066C205.593 57.2124 206.309 58.0313 207.127 58.7398C206.926 58.9387 206.686 59.0932 206.422 59.1933C206.157 59.2934 205.875 59.3367 205.593 59.3206L205.001 56.3066Z" fill="black"/>
<path d="M204.042 60.9425C204.19 60.9371 204.336 60.9188 204.481 60.8877C204.494 60.8857 204.506 60.8812 204.517 60.8743C204.529 60.8674 204.538 60.8583 204.546 60.8476C204.554 60.8368 204.559 60.8247 204.562 60.8118C204.565 60.7989 204.565 60.7856 204.563 60.7726C204.557 60.747 204.543 60.7243 204.521 60.709C204.5 60.6938 204.474 60.6871 204.448 60.6904C204.036 60.7809 203.61 60.7729 203.202 60.6672C202.794 60.5615 202.418 60.361 202.102 60.0822C202.093 60.0726 202.082 60.0649 202.07 60.0597C202.057 60.0544 202.044 60.0518 202.031 60.0518C202.018 60.0518 202.004 60.0544 201.992 60.0597C201.98 60.0649 201.969 60.0726 201.96 60.0822C201.942 60.1015 201.932 60.1269 201.932 60.1534C201.932 60.1799 201.942 60.2053 201.96 60.2246C202.238 60.4819 202.567 60.6785 202.926 60.8021C203.284 60.9256 203.664 60.9735 204.042 60.9425Z" fill="#263238"/>
<path d="M201.012 55.6538C201.047 55.652 201.081 55.641 201.111 55.6217C201.141 55.6025 201.165 55.5758 201.181 55.5442C201.286 55.3162 201.442 55.116 201.638 54.9599C201.835 54.8037 202.065 54.696 202.31 54.6455C202.363 54.6387 202.411 54.6112 202.444 54.5692C202.477 54.5271 202.492 54.4738 202.486 54.4208C202.483 54.3949 202.475 54.3697 202.463 54.3468C202.45 54.3239 202.433 54.3037 202.413 54.2874C202.392 54.2711 202.369 54.259 202.344 54.2518C202.319 54.2446 202.292 54.2424 202.266 54.2455C201.957 54.3028 201.666 54.4318 201.416 54.6221C201.165 54.8125 200.963 55.0588 200.825 55.3415C200.813 55.3644 200.806 55.3895 200.804 55.4153C200.801 55.4412 200.805 55.4672 200.813 55.4917C200.821 55.5163 200.834 55.539 200.851 55.5584C200.869 55.5778 200.889 55.5935 200.913 55.6045C200.941 55.6293 200.975 55.6463 201.012 55.6538Z" fill="#263238"/>
<path d="M207.549 54.2959C207.588 54.2914 207.625 54.2783 207.659 54.2575C207.7 54.225 207.727 54.1777 207.734 54.1255C207.742 54.0734 207.728 54.0205 207.697 53.978C207.516 53.7191 207.275 53.5083 206.994 53.3641C206.713 53.2198 206.402 53.1465 206.086 53.1505C206.06 53.1519 206.035 53.1584 206.011 53.1697C205.988 53.1809 205.967 53.1966 205.95 53.216C205.932 53.2353 205.919 53.2579 205.91 53.2824C205.902 53.3069 205.898 53.3329 205.9 53.3588C205.9 53.3849 205.906 53.4107 205.917 53.4345C205.928 53.4582 205.944 53.4795 205.963 53.497C205.983 53.5144 206.006 53.5277 206.031 53.536C206.056 53.5442 206.082 53.5474 206.108 53.5451C206.358 53.5462 206.604 53.6076 206.825 53.7239C207.047 53.8403 207.237 54.0083 207.379 54.2137C207.397 54.2417 207.423 54.2642 207.453 54.2787C207.483 54.2932 207.516 54.2991 207.549 54.2959Z" fill="#263238"/>
<path d="M201.746 52.1689C201.746 52.1689 200.458 51.588 200.102 52.558C199.746 53.528 200.255 55.846 200.255 55.846L199.943 55.4788C199.943 55.4788 199.521 60.926 197.159 60.0437C194.797 59.1614 190.704 54.5253 195.088 50.8811C195.088 50.8811 195.362 49.5331 198.485 48.2781C201.609 47.0232 205.932 48.2453 207.028 50.2564C208.124 52.2676 207.423 53.654 207.423 53.654C207.223 53.2079 206.923 52.814 206.546 52.5032C206.547 52.7308 206.492 52.9551 206.384 53.156C206.277 53.3568 206.122 53.5279 205.932 53.654C205.877 53.2086 205.698 52.7874 205.417 52.4374C205.389 52.8377 205.273 53.2268 205.078 53.5773C204.404 51.4182 202.814 51.2647 202.338 51.3853C202.168 51.4348 202.018 51.5378 201.912 51.679C201.805 51.8202 201.747 51.992 201.746 52.1689Z" fill="#263238"/>
<path d="M195.032 60.4167C195.277 60.8729 195.61 61.2759 196.012 61.6023C196.413 61.9288 196.876 62.1721 197.372 62.3183C198.704 62.6964 199.395 61.5018 199.016 60.2304C198.699 59.0906 197.619 57.5178 196.276 57.6932C195.984 57.7398 195.707 57.8581 195.471 58.0375C195.235 58.2169 195.047 58.4519 194.924 58.7215C194.801 58.991 194.747 59.2869 194.765 59.5827C194.784 59.8785 194.876 60.165 195.032 60.4167Z" fill="#263238"/>
<path opacity="0.6" d="M195.032 60.4167C195.277 60.8729 195.61 61.2759 196.012 61.6023C196.413 61.9288 196.876 62.1721 197.372 62.3183C198.704 62.6964 199.395 61.5018 199.016 60.2304C198.699 59.0906 197.619 57.5178 196.276 57.6932C195.984 57.7398 195.707 57.8581 195.471 58.0375C195.235 58.2169 195.047 58.4519 194.924 58.7215C194.801 58.991 194.747 59.2869 194.765 59.5827C194.784 59.8785 194.876 60.165 195.032 60.4167Z" fill="white"/>
<path d="M206.289 73.322L205.779 75.2729C205.779 75.2729 208.032 87.5097 208.443 93.9487L207.467 95.5927L206.048 94.1679C206.048 94.1679 205.697 77.5525 205.116 75.3112L203.417 73.7933L204.722 72.6973L206.289 73.322Z" fill="#263238"/>
<path d="M204.732 72.5274L197.323 69.0586L195.246 71.6068L201.647 76.3579L204.995 73.1795L208.782 75.6017L208.179 70.9547L203.828 69.0586L204.732 72.5274Z" fill="#263238"/>
<path opacity="0.9" d="M204.732 72.5274L197.323 69.0586L195.246 71.6068L201.647 76.3579L204.995 73.1795L208.782 75.6017L208.179 70.9547L203.828 69.0586L204.732 72.5274Z" fill="white"/>
<path d="M211.742 105.249L199.702 105.902L199.604 104.466L211.627 103.973L211.742 105.249Z" fill="black"/>
<path d="M198.995 104.492L199.126 105.933L193.005 106.268L192.95 104.739L198.995 104.492Z" fill="black"/>
<path d="M212.344 103.939L215.303 103.818L215.467 105.046L212.448 105.21L212.344 103.939Z" fill="black"/>
<path d="M207.922 104.262L208.031 105.424C208.034 105.465 208.029 105.506 208.016 105.545C208.003 105.583 207.982 105.619 207.955 105.65C207.928 105.68 207.895 105.705 207.859 105.723C207.822 105.741 207.782 105.751 207.741 105.753L205.341 105.835C205.263 105.838 205.188 105.81 205.13 105.758C205.073 105.706 205.038 105.633 205.034 105.556L204.941 104.41C204.938 104.37 204.943 104.329 204.956 104.29C204.969 104.251 204.99 104.215 205.017 104.185C205.044 104.154 205.077 104.129 205.114 104.112C205.15 104.094 205.19 104.084 205.231 104.082L207.61 103.988C207.686 103.987 207.761 104.014 207.819 104.064C207.877 104.115 207.914 104.186 207.922 104.262Z" fill="white"/>
<path d="M217.972 106.86L216.925 104.12C216.377 102.93 214.514 104.032 214.514 104.032C214.431 104.075 214.363 104.145 214.323 104.23C214.282 104.315 214.271 104.411 214.29 104.503L215.698 109.769C215.735 109.898 215.805 110.014 215.903 110.105C216 110.196 216.12 110.26 216.25 110.288C216.381 110.317 216.516 110.31 216.643 110.268C216.769 110.226 216.882 110.15 216.969 110.049L217.484 109.501C217.799 109.147 218.011 108.714 218.097 108.248C218.183 107.783 218.14 107.302 217.972 106.86Z" fill="#263238"/>
<path opacity="0.6" d="M217.972 106.86L216.925 104.12C216.377 102.93 214.514 104.032 214.514 104.032C214.431 104.075 214.363 104.145 214.323 104.23C214.282 104.315 214.271 104.411 214.29 104.503L215.698 109.769C215.735 109.898 215.805 110.014 215.903 110.105C216 110.196 216.12 110.26 216.25 110.288C216.381 110.317 216.516 110.31 216.643 110.268C216.769 110.226 216.882 110.15 216.969 110.049L217.484 109.501C217.799 109.147 218.011 108.714 218.097 108.248C218.183 107.783 218.14 107.302 217.972 106.86Z" fill="white"/>
<path d="M187.92 127.52H187.673C186.623 127.514 185.583 127.315 184.604 126.934C183.706 126.55 183.218 126.024 183.234 125.449C183.234 124.325 185.202 123.525 187.761 123.574C188.811 123.58 189.851 123.779 190.83 124.161C191.728 124.544 192.216 125.07 192.205 125.646C192.178 126.731 190.358 127.52 187.92 127.52ZM187.52 124.122C185.328 124.122 183.793 124.813 183.782 125.46C183.782 125.788 184.161 126.15 184.824 126.429C185.736 126.79 186.708 126.976 187.69 126.977C190.002 127.021 191.641 126.309 191.657 125.64C191.657 125.312 191.274 124.95 190.616 124.67C189.703 124.31 188.731 124.124 187.75 124.122H187.52Z" fill="#263238"/>
<path d="M177.107 125.716L176.784 140.621C176.781 140.738 176.801 140.853 176.843 140.962C176.885 141.07 176.948 141.17 177.029 141.254C177.109 141.338 177.206 141.405 177.312 141.452C177.419 141.498 177.534 141.523 177.65 141.526L199.389 141.997C199.624 142.001 199.851 141.913 200.022 141.751C200.192 141.589 200.292 141.366 200.299 141.131L200.622 126.231C200.626 125.995 200.537 125.767 200.374 125.596C200.211 125.426 199.987 125.327 199.751 125.321L178.012 124.85C177.895 124.847 177.78 124.867 177.671 124.909C177.563 124.951 177.463 125.014 177.379 125.095C177.295 125.175 177.228 125.271 177.181 125.378C177.135 125.485 177.11 125.599 177.107 125.716Z" fill="#263238"/>
<path opacity="0.1" d="M177.107 125.716L176.784 140.621C176.781 140.738 176.801 140.853 176.843 140.962C176.885 141.07 176.948 141.17 177.029 141.254C177.109 141.338 177.206 141.405 177.312 141.452C177.419 141.498 177.534 141.523 177.65 141.526L199.389 141.997C199.624 142.001 199.851 141.913 200.022 141.751C200.192 141.589 200.292 141.366 200.299 141.131L200.622 126.231C200.626 125.995 200.537 125.767 200.374 125.596C200.211 125.426 199.987 125.327 199.751 125.321L178.012 124.85C177.895 124.847 177.78 124.867 177.671 124.909C177.563 124.951 177.463 125.014 177.379 125.095C177.295 125.175 177.228 125.271 177.181 125.378C177.135 125.485 177.11 125.599 177.107 125.716Z" fill="white"/>
<path opacity="0.2" d="M198.485 126.182L198.162 141.082C198.157 141.317 198.246 141.544 198.408 141.714C198.57 141.885 198.793 141.984 199.028 141.991H199.389C199.624 141.996 199.852 141.907 200.022 141.745C200.192 141.583 200.292 141.36 200.299 141.125L200.622 126.225C200.627 125.989 200.538 125.761 200.374 125.591C200.211 125.42 199.987 125.321 199.751 125.316H199.389C199.273 125.313 199.157 125.333 199.049 125.375C198.94 125.417 198.841 125.48 198.757 125.56C198.673 125.641 198.606 125.737 198.559 125.844C198.512 125.95 198.487 126.065 198.485 126.182Z" fill="white"/>
<path d="M199.154 125.323C198.928 125.33 198.713 125.424 198.555 125.585C198.397 125.746 198.307 125.963 198.304 126.189L198.151 133.099C198.149 133.191 198.13 133.283 198.093 133.368C198.056 133.453 198.002 133.529 197.936 133.594C197.869 133.658 197.79 133.708 197.704 133.742C197.617 133.775 197.525 133.792 197.433 133.789L177.464 133.356C177.278 133.351 177.101 133.272 176.972 133.138C176.843 133.004 176.772 132.825 176.773 132.639L176.927 125.706C176.929 125.591 176.954 125.477 177 125.371C177.047 125.265 177.113 125.169 177.197 125.089C177.281 125.009 177.379 124.947 177.487 124.905C177.595 124.863 177.71 124.843 177.825 124.846L199.57 125.317L199.154 125.323Z" fill="#263238"/>
<path opacity="0.2" d="M199.154 125.323C198.928 125.33 198.713 125.424 198.555 125.585C198.397 125.746 198.307 125.963 198.304 126.189L198.151 133.099C198.149 133.191 198.13 133.283 198.093 133.368C198.056 133.453 198.002 133.529 197.936 133.594C197.869 133.658 197.79 133.708 197.704 133.742C197.617 133.775 197.525 133.792 197.433 133.789L177.464 133.356C177.278 133.351 177.101 133.272 176.972 133.138C176.843 133.004 176.772 132.825 176.773 132.639L176.927 125.706C176.929 125.591 176.954 125.477 177 125.371C177.047 125.265 177.113 125.169 177.197 125.089C177.281 125.009 177.379 124.947 177.487 124.905C177.595 124.863 177.71 124.843 177.825 124.846L199.57 125.317L199.154 125.323Z" fill="white"/>
<path d="M187.836 136.929L186.192 136.894C186.158 136.893 186.124 136.886 186.092 136.872C186.06 136.858 186.032 136.838 186.008 136.813C185.984 136.788 185.965 136.758 185.953 136.726C185.94 136.694 185.934 136.66 185.935 136.625L186.022 132.626L188.164 132.672L188.077 136.672C188.076 136.737 188.051 136.799 188.006 136.847C187.962 136.895 187.901 136.924 187.836 136.929Z" fill="#263238"/>
<path d="M188.007 135.905L186.139 135.861C185.994 135.859 185.856 135.8 185.755 135.697C185.657 135.591 185.603 135.452 185.607 135.307V134.414C185.607 134.269 185.665 134.129 185.768 134.027C185.87 133.924 186.01 133.866 186.155 133.866L188.024 133.905C188.167 133.91 188.303 133.971 188.402 134.074C188.502 134.179 188.558 134.319 188.555 134.464V135.357C188.555 135.502 188.498 135.641 188.395 135.744C188.292 135.847 188.153 135.905 188.007 135.905ZM186.155 134.157C186.085 134.158 186.019 134.186 185.969 134.235C185.919 134.284 185.889 134.35 185.887 134.42V135.313C185.884 135.348 185.889 135.383 185.901 135.417C185.914 135.45 185.933 135.48 185.958 135.505C185.982 135.531 186.012 135.552 186.045 135.566C186.078 135.58 186.114 135.587 186.15 135.587L188.018 135.631C188.054 135.633 188.09 135.628 188.123 135.616C188.157 135.603 188.187 135.584 188.213 135.56C188.239 135.535 188.259 135.505 188.273 135.472C188.287 135.439 188.293 135.403 188.292 135.368V134.469C188.292 134.398 188.264 134.329 188.216 134.277C188.165 134.228 188.099 134.199 188.029 134.195L186.161 134.157H186.155Z" fill="white"/>
<path d="M185.772 118.944L185.306 123.147L189.734 121.602C189.734 121.602 189.931 117.82 187.964 117.82L185.772 118.944Z" fill="#263238"/>
<path d="M186.199 125.037L189.92 124.845L189.745 121.601L185.317 123.146L186.199 125.037Z" fill="#263238"/>
<g opacity="0.6">
<path d="M185.771 118.944L185.306 123.147L189.734 121.602C189.734 121.602 189.931 117.82 187.963 117.82L185.771 118.944Z" fill="white"/>
<path d="M186.199 125.037L189.92 124.845L189.744 121.601L185.317 123.146L186.199 125.037Z" fill="white"/>
</g>
<path d="M189.646 72.7363C188.041 74.6324 183.854 90.3655 183.273 95.0728C182.692 99.7801 185.465 119.289 185.465 119.289L189.668 118.642C189.668 118.642 188.353 98.2731 188.934 96.9305C189.515 95.5879 193.159 81.1481 193.159 81.1481C193.159 81.1481 193.543 78.3643 192.973 76.4244C192.403 74.4845 189.646 72.7363 189.646 72.7363Z" fill="#263238"/>
<path opacity="0.8" d="M189.646 72.7363C188.041 74.6324 183.854 90.3655 183.273 95.0728C182.692 99.7801 185.465 119.289 185.465 119.289L189.668 118.642C189.668 118.642 188.353 98.2731 188.934 96.9305C189.515 95.5879 193.159 81.1481 193.159 81.1481C193.159 81.1481 193.543 78.3643 192.973 76.4244C192.403 74.4845 189.646 72.7363 189.646 72.7363Z" fill="white"/>
<path d="M145.746 25.3828H128.572L86.321 197.624H187.997L145.746 25.3828Z" fill="#B388DD"/>
<path opacity="0.7" d="M145.746 25.3828H128.572L86.321 197.624H187.997L145.746 25.3828Z" fill="white"/>
<path opacity="0.2" d="M144.612 25.3828H129.706L93.0449 197.624H181.278L144.612 25.3828Z" fill="white"/>
<path d="M231.415 22.2592H42.5852C42.3672 22.2592 42.1581 22.1726 42.0039 22.0185C41.8498 21.8643 41.7632 21.6552 41.7632 21.4372C41.7632 21.2192 41.8498 21.0101 42.0039 20.856C42.1581 20.7018 42.3672 20.6152 42.5852 20.6152H231.415C231.633 20.6152 231.842 20.7018 231.996 20.856C232.15 21.0101 232.237 21.2192 232.237 21.4372C232.237 21.6552 232.15 21.8643 231.996 22.0185C231.842 22.1726 231.633 22.2592 231.415 22.2592Z" fill="#263238"/>
<path d="M139.055 14.4941H125.377V27.2844H139.055V14.4941Z" fill="black"/>
<path d="M146.365 10.3896H127.514V13.4201H146.365V10.3896Z" fill="#263238"/>
<path d="M126.209 30.5289H134.413L131.794 27.2793H126.681L126.209 30.5289Z" fill="black"/>
<path d="M148.255 12.0557V30.5287H132.139L131.18 28.6874H127.097L126.489 30.5287H126.209V12.0557H148.255Z" fill="#263238"/>
<path opacity="0.1" d="M148.256 12.0557H132.517V30.5287H148.256V12.0557Z" fill="white"/>
<path opacity="0.1" d="M130.687 15.5463C130.687 16.8669 129.925 17.941 128.993 17.941C128.915 17.9491 128.836 17.9491 128.758 17.941C127.936 17.7876 127.294 16.7847 127.294 15.5737C127.294 14.3626 127.936 13.3817 128.758 13.2063C128.836 13.1956 128.915 13.1956 128.993 13.2063C129.925 13.1515 130.687 14.2475 130.687 15.5463Z" fill="white"/>
<path opacity="0.1" d="M130.204 15.547C130.204 16.7581 129.574 17.739 128.758 17.9144C127.936 17.761 127.294 16.7581 127.294 15.547C127.294 14.336 127.936 13.355 128.758 13.1797C129.574 13.3386 130.204 14.336 130.204 15.547Z" fill="white"/>
<path opacity="0.1" d="M129.158 15.5469C129.158 16.1278 128.878 16.5991 128.533 16.5991C128.188 16.5991 127.908 16.1278 127.908 15.5469C127.908 14.966 128.188 14.4893 128.533 14.4893C128.878 14.4893 129.158 14.966 129.158 15.5469Z" fill="white"/>
<path d="M148.925 14.4941H135.247V27.2844H148.925V14.4941Z" fill="#263238"/>
<path opacity="0.1" d="M148.924 14.752H136.375V27.0271H148.924V14.752Z" fill="white"/>
<path d="M147.725 25.8206V15.9512H137.581V25.8206H147.725Z" fill="#B388DD"/>
<path d="M142.321 24.1994C142.229 24.1986 142.138 24.1746 142.058 24.1296C141.977 24.0846 141.91 24.02 141.861 23.9418L139.285 20.3305C139.182 20.1788 139.133 19.9969 139.146 19.814C139.159 19.6311 139.233 19.4578 139.356 19.3222C139.414 19.2637 139.483 19.2188 139.56 19.1907C139.637 19.1627 139.719 19.1522 139.801 19.1601C139.882 19.168 139.961 19.194 140.031 19.2363C140.101 19.2786 140.161 19.336 140.206 19.4044L142.321 22.369L145.817 17.4699C145.862 17.4006 145.922 17.3423 145.993 17.2994C146.063 17.2565 146.143 17.2301 146.225 17.2222C146.307 17.2143 146.39 17.2251 146.467 17.2538C146.545 17.2824 146.615 17.3282 146.672 17.3877C146.796 17.5244 146.87 17.6991 146.882 17.8832C146.894 18.0673 146.843 18.25 146.738 18.4015L142.781 23.9418C142.732 24.02 142.665 24.0846 142.584 24.1296C142.504 24.1746 142.413 24.1986 142.321 24.1994Z" fill="white"/>
<path d="M204.853 14.4941H191.175V27.2844H204.853V14.4941Z" fill="black"/>
<path d="M212.163 10.3896H193.312V13.4201H212.163V10.3896Z" fill="#263238"/>
<path d="M192.008 30.5289H200.211L197.597 27.2793H192.479L192.008 30.5289Z" fill="black"/>
<path d="M214.059 12.0557V30.5287H197.937L196.978 28.6874H192.896L192.287 30.5287H192.008V12.0557H214.059Z" fill="#263238"/>
<path opacity="0.1" d="M214.054 12.0557H198.316V30.5287H214.054V12.0557Z" fill="white"/>
<path opacity="0.1" d="M196.485 15.5463C196.485 16.8669 195.723 17.941 194.792 17.941C194.713 17.9491 194.634 17.9491 194.556 17.941C193.734 17.7876 193.098 16.7847 193.098 15.5737C193.098 14.3626 193.734 13.3817 194.556 13.2063C194.634 13.1956 194.714 13.1956 194.792 13.2063C195.723 13.1515 196.485 14.2475 196.485 15.5463Z" fill="white"/>
<path opacity="0.1" d="M196.008 15.547C196.008 16.7581 195.373 17.739 194.556 17.9144C193.734 17.761 193.098 16.7581 193.098 15.547C193.098 14.336 193.734 13.355 194.556 13.1797C195.373 13.3386 196.008 14.336 196.008 15.547Z" fill="white"/>
<path opacity="0.1" d="M194.962 15.5469C194.962 16.1278 194.683 16.5991 194.337 16.5991C193.992 16.5991 193.713 16.1278 193.713 15.5469C193.713 14.966 193.992 14.4893 194.337 14.4893C194.683 14.4893 194.962 14.966 194.962 15.5469Z" fill="white"/>
<path d="M214.722 14.4941H201.044V27.2844H214.722V14.4941Z" fill="#263238"/>
<path opacity="0.1" d="M214.723 14.752H202.174V27.0271H214.723V14.752Z" fill="white"/>
<path d="M213.523 25.8206V15.9512H203.379V25.8206H213.523Z" fill="#B388DD"/>
<path d="M209.336 20.89L211.966 18.0349C212.085 17.9014 212.151 17.7288 212.151 17.5499C212.151 17.3711 212.085 17.1985 211.966 17.0649C211.91 17.0018 211.841 16.9513 211.765 16.9167C211.688 16.8821 211.604 16.8643 211.52 16.8643C211.435 16.8643 211.352 16.8821 211.275 16.9167C211.198 16.9513 211.129 17.0018 211.073 17.0649L208.443 19.92L205.812 17.0649C205.756 17.0018 205.687 16.9513 205.61 16.9167C205.533 16.8821 205.45 16.8643 205.366 16.8643C205.281 16.8643 205.198 16.8821 205.121 16.9167C205.044 16.9513 204.975 17.0018 204.919 17.0649C204.8 17.1985 204.734 17.3711 204.734 17.5499C204.734 17.7288 204.8 17.9014 204.919 18.0349L207.549 20.89L204.919 23.7396C204.8 23.8731 204.734 24.0457 204.734 24.2246C204.734 24.4034 204.8 24.576 204.919 24.7095C204.975 24.7731 205.045 24.824 205.122 24.8589C205.199 24.8939 205.283 24.9121 205.368 24.9123C205.453 24.912 205.536 24.8938 205.612 24.8588C205.689 24.8238 205.757 24.7729 205.812 24.7095L208.443 21.8545L211.073 24.7095C211.129 24.7731 211.199 24.824 211.276 24.8589C211.354 24.8939 211.437 24.9121 211.522 24.9123C211.607 24.912 211.69 24.8938 211.766 24.8588C211.843 24.8238 211.911 24.7729 211.966 24.7095C212.085 24.576 212.151 24.4034 212.151 24.2246C212.151 24.0457 212.085 23.8731 211.966 23.7396L209.336 20.89Z" fill="white"/>
<path d="M73.2567 14.4941H59.5786V27.2844H73.2567V14.4941Z" fill="black"/>
<path d="M80.5672 10.3896H61.7161V13.4201H80.5672V10.3896Z" fill="#263238"/>
<path d="M60.4061 30.5289H68.6152L65.9957 27.2793H60.8829L60.4061 30.5289Z" fill="black"/>
<path d="M82.4576 12.0557V30.5287H66.3355L65.382 28.6874H61.2994L60.6911 30.5287H60.4061V12.0557H82.4576Z" fill="#263238"/>
<path opacity="0.1" d="M82.4574 12.0557H66.7189V30.5287H82.4574V12.0557Z" fill="white"/>
<path opacity="0.1" d="M64.8887 15.5465C64.8887 16.8671 64.127 17.9412 63.1954 17.9412C63.1171 17.9497 63.0381 17.9497 62.9597 17.9412C62.1323 17.7878 61.4966 16.7849 61.4966 15.5739C61.4966 14.3628 62.1323 13.3819 62.9597 13.2065C63.0379 13.1955 63.1172 13.1955 63.1954 13.2065C64.116 13.1517 64.8887 14.2477 64.8887 15.5465Z" fill="white"/>
<path opacity="0.1" d="M64.4065 15.547C64.4065 16.7581 63.7763 17.739 62.9597 17.9144C62.1323 17.761 61.4966 16.7581 61.4966 15.547C61.4966 14.336 62.1323 13.355 62.9597 13.1797C63.7763 13.3386 64.4065 14.336 64.4065 15.547Z" fill="white"/>
<path opacity="0.1" d="M63.3595 15.5469C63.3595 16.1278 63.0801 16.5991 62.7348 16.5991C62.3896 16.5991 62.1101 16.1278 62.1101 15.5469C62.1101 14.966 62.3896 14.4893 62.7348 14.4893C63.0801 14.4893 63.3595 14.966 63.3595 15.5469Z" fill="white"/>
<path d="M83.1263 14.4941H69.4482V27.2844H83.1263V14.4941Z" fill="#263238"/>
<path opacity="0.1" d="M83.1265 14.752H70.5773V27.0271H83.1265V14.752Z" fill="white"/>
<path d="M81.9209 25.8206V15.9512H71.7774V25.8206H81.9209Z" fill="#B388DD"/>
<path d="M77.7452 20.89L80.3756 18.0349C80.4946 17.9014 80.5604 17.7288 80.5604 17.5499C80.5604 17.3711 80.4946 17.1985 80.3756 17.0649C80.3196 17.0018 80.2508 16.9513 80.1738 16.9167C80.0968 16.8821 80.0134 16.8643 79.929 16.8643C79.8446 16.8643 79.7611 16.8821 79.6842 16.9167C79.6072 16.9513 79.5384 17.0018 79.4824 17.0649L76.852 19.92L74.2216 17.0649C74.1655 17.0018 74.0968 16.9513 74.0198 16.9167C73.9428 16.8821 73.8594 16.8643 73.775 16.8643C73.6906 16.8643 73.6071 16.8821 73.5301 16.9167C73.4532 16.9513 73.3844 17.0018 73.3283 17.0649C73.2093 17.1985 73.1436 17.3711 73.1436 17.5499C73.1436 17.7288 73.2093 17.9014 73.3283 18.0349L75.9587 20.89L73.3283 23.7396C73.2093 23.8731 73.1436 24.0457 73.1436 24.2246C73.1436 24.4034 73.2093 24.576 73.3283 24.7095C73.3839 24.7734 73.4525 24.8247 73.5296 24.8598C73.6066 24.8949 73.6903 24.913 73.775 24.913C73.8596 24.913 73.9433 24.8949 74.0204 24.8598C74.0974 24.8247 74.166 24.7734 74.2216 24.7095L76.852 21.8545L79.4824 24.7095C79.5377 24.7729 79.6059 24.8238 79.6824 24.8588C79.759 24.8938 79.8421 24.912 79.9262 24.9123C80.0112 24.9121 80.0952 24.8939 80.1726 24.8589C80.25 24.824 80.3192 24.7731 80.3756 24.7095C80.4946 24.576 80.5604 24.4034 80.5604 24.2246C80.5604 24.0457 80.4946 23.8731 80.3756 23.7396L77.7452 20.89Z" fill="white"/>
<path d="M126.243 190.879L126.67 191.476L127.525 191.109L128.073 193.723L131.673 198.715C131.673 198.715 133.049 198.934 131.964 196.096C131.913 195.957 131.876 195.814 131.854 195.668C131.531 193.969 132.238 190.736 132.238 190.736L130.259 187.996C130.076 188.006 129.893 188.026 129.711 188.056C128.873 188.171 127.234 188.566 126.243 190.879Z" fill="#B388DD"/>
<path opacity="0.2" d="M126.243 190.879L126.67 191.476L127.525 191.109L128.073 193.723L131.673 198.715C131.673 198.715 133.049 198.934 131.964 196.096C131.913 195.957 131.876 195.814 131.854 195.668C131.531 193.969 132.238 190.736 132.238 190.736L130.259 187.996C130.076 188.006 129.893 188.026 129.711 188.056C128.873 188.171 127.234 188.566 126.243 190.879Z" fill="black"/>
<path d="M129.689 188.035C130.352 188.106 129.771 191.032 130.04 192.671C130.275 194.14 130.917 195.52 131.848 195.663C131.525 193.964 132.681 190.095 132.681 190.095L131.092 187.903C131.092 187.903 130.04 187.964 129.689 188.035Z" fill="#EBB376"/>
<path opacity="0.2" d="M129.689 188.035C130.352 188.106 129.771 191.032 130.04 192.671C130.275 194.14 130.917 195.52 131.848 195.663C131.525 193.964 132.681 190.095 132.681 190.095L131.092 187.903C131.092 187.903 130.04 187.964 129.689 188.035Z" fill="black"/>
<path d="M131.761 198.529H132.495L132.698 197.625L135.131 198.721H141.285C141.285 198.721 142.266 197.735 139.334 196.951C139.19 196.913 139.05 196.86 138.918 196.792C137.356 196.058 135.131 193.581 135.131 193.581H131.75C131.646 193.737 131.552 193.9 131.47 194.069C131.103 194.814 130.468 196.376 131.761 198.529Z" fill="#B388DD"/>
<path d="M131.47 194.069C131.92 193.57 133.947 195.757 135.438 196.502C136.764 197.159 138.255 197.455 138.918 196.781C137.356 196.047 134.895 192.847 134.895 192.847H132.155C132.155 192.847 131.629 193.751 131.47 194.069Z" fill="#EBB376"/>
<path d="M158.487 83.6962L157.018 79.8164L161.605 80.2055C161.605 80.2055 162.701 83.7456 160.854 84.2333L158.487 83.6962Z" fill="#EBB376"/>
<path d="M157.78 75.7832L161.605 77.4546V80.2056L157.024 79.8165L157.78 75.7832Z" fill="#EBB376"/>
<path d="M161.402 83.7723C161.402 83.7723 161.205 101.056 157.369 101.056C155.237 101.056 152.826 99.6698 150.793 98.1025C149.071 96.7631 147.471 95.272 146.015 93.6473V93.587L144.672 85.5643C148.448 85.4711 155.04 94.124 155.04 94.124L158.219 83.1641L161.402 83.7723Z" fill="#B388DD"/>
<path opacity="0.2" d="M150.776 98.0914C149.054 96.752 147.455 95.261 145.998 93.6362V93.5759L147.225 90.8359C149.284 92.7185 150.553 95.311 150.776 98.0914Z" fill="black"/>
<path d="M129.152 66.3961C129.152 66.3961 130.352 64.3247 133.788 63.9685C137.224 63.6123 141.783 65.4535 142.479 70.6924C143.175 75.9313 144.671 78.8138 144.671 78.8138C144.671 78.8138 133.602 81.7072 130.489 80.666C127.377 79.6248 122.565 67.9031 129.152 66.3961Z" fill="#263238"/>
<path d="M150.377 158.591C148.733 161.633 147.061 164.904 145.445 168.181C143.335 172.505 141.351 176.84 139.652 180.719C137.86 184.808 136.408 188.391 135.499 190.863C134.638 190.962 132.046 189.416 131.295 188.013C132.623 180.032 134.64 172.181 137.323 164.548C139 159.967 141.055 155.457 143.521 151.812C133.438 123.13 135.91 112.357 135.91 112.357L147.593 111.836C147.593 111.836 149.357 122.516 150.771 133.471C151.511 139.214 152.147 145.034 152.382 149.429V149.473C152.573 152.639 151.878 155.797 150.377 158.591Z" fill="#263238"/>
<path opacity="0.2" d="M140.748 143.28C139.269 138.403 138.2 134.183 137.46 130.561C138.211 127.733 139.269 125.305 140.71 123.848C140.699 123.848 142.776 131.739 140.748 143.28Z" fill="black"/>
<path opacity="0.2" d="M139.669 180.719C137.877 184.807 136.425 188.391 135.515 190.863C134.655 190.961 132.063 189.416 131.312 188.013C132.64 180.032 134.657 172.181 137.34 164.548C138.211 169.299 139.192 175.3 139.669 180.719Z" fill="black"/>
<path d="M143.171 110.56C143.171 110.56 139.773 136.864 137.822 149.539C135.773 162.839 135.515 184.172 136.025 192.869C135.279 193.302 132.567 193.828 131.093 193.368C131.093 193.368 124.16 166.472 128.764 150.848C124.571 120.078 130.643 112.543 130.643 112.543L143.171 110.56Z" fill="#263238"/>
<path opacity="0.7" d="M142.036 93.9925C138.618 90.9101 134.827 88.2683 130.752 86.1287C131.125 86.0849 131.509 86.0465 131.887 86.0136C134.475 85.7423 137.079 85.6544 139.679 85.7506C140.321 85.789 140.984 85.8438 141.636 85.8986C143.247 89.5921 142.036 93.9925 142.036 93.9925Z" fill="white"/>
<path d="M130.753 110.559C130.402 106.569 128.972 99.2533 126.511 91.5703C125.711 89.0715 127.059 86.2493 127.059 86.2493C127.059 86.2493 130.413 86.1671 130.747 86.1287C131.082 86.0904 131.504 86.0465 131.882 86.0136C134.47 85.7423 137.074 85.6544 139.674 85.7506C140.315 85.789 140.979 85.8438 141.631 85.8986C141.839 85.8986 144.195 85.9424 144.398 85.9643C144.398 85.9643 147.659 89.6907 147.856 92.7102C148.101 95.0324 148.191 97.3685 148.124 99.7027C148.124 102.443 147.911 106.059 147.73 109.912L130.753 110.559Z" fill="#B388DD"/>
<path opacity="0.8" d="M130.753 110.559C130.402 106.569 128.972 99.2533 126.511 91.5703C125.711 89.0715 127.059 86.2493 127.059 86.2493C127.059 86.2493 130.413 86.1671 130.747 86.1287C131.082 86.0904 131.504 86.0465 131.882 86.0136C134.47 85.7423 137.074 85.6544 139.674 85.7506C140.315 85.789 140.979 85.8438 141.631 85.8986C141.839 85.8986 144.195 85.9424 144.398 85.9643C144.398 85.9643 147.659 89.6907 147.856 92.7102C148.101 95.0324 148.191 97.3685 148.124 99.7027C148.124 102.443 147.911 106.059 147.73 109.912L130.753 110.559Z" fill="white"/>
<path d="M130.753 110.559L147.741 109.414C147.741 109.414 148.251 114.521 148.136 114.45C148.021 114.379 129.953 115.08 129.953 115.08L130.753 110.559Z" fill="#263238"/>
<path d="M130.906 110.843L147.735 109.911V111.506L130.752 112.41L130.906 110.843Z" fill="black"/>
<path d="M140.381 112.159C140.265 112.16 140.152 112.118 140.067 112.039C139.981 111.961 139.929 111.852 139.92 111.737L139.849 110.8C139.844 110.739 139.851 110.679 139.87 110.621C139.888 110.564 139.919 110.511 139.959 110.465C139.998 110.419 140.045 110.382 140.099 110.355C140.153 110.327 140.211 110.311 140.271 110.306L142.112 110.164C142.176 110.158 142.24 110.166 142.301 110.187C142.361 110.208 142.416 110.241 142.463 110.284C142.51 110.328 142.547 110.381 142.572 110.439C142.598 110.497 142.611 110.56 142.611 110.624V111.605C142.611 111.724 142.566 111.837 142.484 111.923C142.403 112.009 142.291 112.06 142.173 112.065L140.403 112.159H140.381ZM140.194 111.715C140.195 111.739 140.201 111.763 140.211 111.786C140.222 111.808 140.237 111.828 140.255 111.844C140.274 111.86 140.296 111.871 140.319 111.879C140.343 111.886 140.367 111.888 140.392 111.885L142.162 111.791C142.209 111.789 142.254 111.768 142.287 111.733C142.319 111.699 142.337 111.653 142.337 111.605V110.624C142.337 110.598 142.332 110.573 142.322 110.549C142.311 110.526 142.296 110.504 142.277 110.487C142.258 110.47 142.235 110.456 142.211 110.448C142.186 110.439 142.16 110.436 142.134 110.438L140.293 110.58C140.269 110.582 140.245 110.589 140.223 110.6C140.202 110.612 140.183 110.627 140.167 110.646C140.151 110.664 140.139 110.685 140.131 110.707C140.124 110.73 140.121 110.754 140.123 110.778L140.194 111.715Z" fill="white"/>
<path d="M132.134 122.241L126.259 121.178L129.679 108.536C129.679 108.536 128.807 105.396 127.837 101.795C127.372 100.047 126.884 98.1894 126.467 96.5344C126.004 94.8878 125.638 93.2154 125.371 91.5257C125.262 89.5091 127.059 86.2485 127.059 86.2485L131.301 85.5635C131.301 85.5635 135.17 89.8324 135.422 98.014C135.674 106.196 132.134 122.241 132.134 122.241Z" fill="#B388DD"/>
<path d="M141.001 85.565C141.001 85.565 144.689 91.9876 145.538 96.7333C146.387 101.479 148.727 121.656 148.727 121.656L149.999 121.021L148.229 108.965C148.229 108.965 148.864 95.0016 148.371 92.1356C147.878 89.2695 144.667 85.5596 144.667 85.5596L141.001 85.565Z" fill="#B388DD"/>
<path d="M139.192 85.2579L139.444 85.0332C139.444 85.0332 143.028 85.488 146.316 89.5926L145.039 90.8365L147.231 92.5901L146.195 101.057C146.195 101.057 142.874 89.7734 141.438 87.0663C140.78 86.3589 140.023 85.7499 139.192 85.2579Z" fill="#B388DD"/>
<path opacity="0.2" d="M139.192 85.258L139.444 85.0498C139.444 85.0498 143.028 85.4882 146.316 89.5927L145.039 90.8367L147.231 92.5903L146.195 101.057C146.195 101.057 142.874 89.7736 141.438 87.0664C140.78 86.3591 140.023 85.7501 139.192 85.258Z" fill="black"/>
<path d="M132.139 85.5653C132.139 85.5653 136.244 90.0972 135.329 102.005L131.312 93.4455L132.764 91.111L129.366 87.9217C129.366 87.9217 131.147 84.5405 132.408 84.8748L132.139 85.5653Z" fill="#B388DD"/>
<path opacity="0.2" d="M132.139 85.5653C132.139 85.5653 136.244 90.0972 135.329 102.005L131.312 93.4455L132.764 91.111L129.366 87.9217C129.366 87.9217 131.147 84.5405 132.408 84.8748L132.139 85.5653Z" fill="black"/>
<path d="M140.682 86.8518L139.74 92.4907L132.32 86.0024C133.887 84.2707 132.901 79.7113 132.133 77.2344L134.238 78.8071L137.361 81.1471C137.304 81.7923 137.356 82.4426 137.515 83.0706C137.75 84.0624 138.172 84.9995 138.644 85.1968L140.682 86.8518Z" fill="#EBB376"/>
<path opacity="0.2" d="M137.515 83.0593C136.265 82.7799 134.632 81.4866 134.369 80.2152C134.271 79.7488 134.227 79.2725 134.238 78.7959L137.361 81.1359C137.304 81.7811 137.356 82.4314 137.515 83.0593Z" fill="black"/>
<path d="M132.687 84.5781C132.687 84.5781 135.86 87.0277 139.586 92.2008C139.586 92.2008 139.921 87.0386 138.644 85.1864L138.907 84.8686C140.858 85.722 142.557 87.0639 143.839 88.7648L141.384 87.9867L139.702 92.5351L134.638 88.3538L131.229 88.9457C131.229 88.9457 131.377 85.5864 132.687 84.5781Z" fill="#B388DD"/>
<path opacity="0.7" d="M132.687 84.5781C132.687 84.5781 135.86 87.0277 139.586 92.2008C139.586 92.2008 139.921 87.0386 138.644 85.1864L138.907 84.8686C140.858 85.722 142.557 87.0639 143.839 88.7648L141.384 87.9867L139.702 92.5351L134.638 88.3538L131.229 88.9457C131.229 88.9457 131.377 85.5864 132.687 84.5781Z" fill="white"/>
<path d="M129.826 72.2696C130.725 76.2864 131.016 78.0071 133.394 79.8703C136.967 82.6706 141.691 80.9663 142.003 76.818C142.288 73.0916 140.77 67.1403 136.556 65.9457C135.659 65.6592 134.701 65.6177 133.783 65.8257C132.864 66.0336 132.018 66.4834 131.331 67.1284C130.645 67.7734 130.143 68.5902 129.879 69.4941C129.614 70.3981 129.596 71.3563 129.826 72.2696Z" fill="#EBB376"/>
<path d="M135.016 72.7632C135.076 73.1085 135.306 73.366 135.52 73.3386C135.734 73.3112 135.871 73.0208 135.81 72.681C135.75 72.3413 135.52 72.0837 135.301 72.133C135.082 72.1823 134.956 72.4235 135.016 72.7632Z" fill="#263238"/>
<path d="M139.263 72.1775C139.324 72.5173 139.548 72.7748 139.768 72.7255C139.987 72.6762 140.113 72.4077 140.052 72.0679C139.992 71.7281 139.768 71.4706 139.548 71.4925C139.329 71.5144 139.192 71.8323 139.263 72.1775Z" fill="#263238"/>
<path d="M139.455 71.5405L140.216 71.2227C140.216 71.2227 139.915 71.9022 139.455 71.5405Z" fill="#263238"/>
<path d="M138.096 73.0645C138.533 73.8102 139.063 74.497 139.674 75.1085C139.522 75.2523 139.34 75.3593 139.14 75.4211C138.941 75.4828 138.729 75.4978 138.523 75.4647L138.096 73.0645Z" fill="#D58745"/>
<path d="M134.008 70.6916C134.034 70.6916 134.06 70.6857 134.084 70.6744C134.107 70.663 134.128 70.6464 134.145 70.6259C134.298 70.4345 134.496 70.2843 134.722 70.1886C134.948 70.093 135.194 70.0549 135.438 70.0779C135.463 70.0825 135.489 70.0819 135.514 70.076C135.539 70.0702 135.563 70.0591 135.584 70.0437C135.604 70.0283 135.621 70.0087 135.634 69.9863C135.647 69.9639 135.655 69.9391 135.657 69.9135C135.661 69.8596 135.644 69.8063 135.611 69.7638C135.577 69.7213 135.53 69.6926 135.476 69.6833C135.168 69.6489 134.855 69.6925 134.568 69.8103C134.281 69.9281 134.028 70.1162 133.832 70.3573C133.816 70.3778 133.804 70.4012 133.796 70.4264C133.789 70.4516 133.787 70.478 133.79 70.504C133.793 70.53 133.801 70.5551 133.814 70.5779C133.827 70.6008 133.845 70.6208 133.865 70.6368C133.904 70.672 133.955 70.6915 134.008 70.6916Z" fill="#263238"/>
<path d="M140.606 69.744C140.631 69.7466 140.657 69.744 140.681 69.7365C140.706 69.729 140.729 69.7166 140.748 69.7002C140.767 69.6818 140.781 69.6601 140.791 69.6361C140.801 69.6121 140.806 69.5864 140.806 69.5604C140.806 69.5345 140.801 69.5088 140.791 69.4848C140.781 69.4608 140.767 69.439 140.748 69.4207C140.549 69.163 140.293 68.9548 140.001 68.8122C139.708 68.6696 139.386 68.5965 139.06 68.5987C139.035 68.6006 139.01 68.6078 138.988 68.6199C138.966 68.6319 138.946 68.6486 138.93 68.6688C138.915 68.6889 138.904 68.7122 138.898 68.7369C138.892 68.7617 138.891 68.7874 138.896 68.8124C138.903 68.8662 138.93 68.9153 138.972 68.9499C139.013 68.9845 139.067 69.0019 139.121 68.9987C139.378 69.0021 139.631 69.064 139.861 69.1799C140.091 69.2957 140.291 69.4624 140.447 69.6673C140.467 69.6899 140.491 69.7083 140.519 69.7215C140.546 69.7346 140.576 69.7423 140.606 69.744Z" fill="#263238"/>
<path d="M135.208 72.1339L135.97 71.8105C135.97 71.8105 135.674 72.4956 135.208 72.1339Z" fill="#263238"/>
<path d="M131.886 74.5986C131.886 74.5986 133.865 71.7161 132.358 67.4746C132.358 67.4746 136.829 65.2826 140.216 68.6144C140.216 68.6144 137.065 63.0906 130.484 65.7375C123.902 68.3843 128.84 74.7027 129.684 75.2288C130.527 75.7549 131.886 74.5986 131.886 74.5986Z" fill="#263238"/>
<path d="M129.021 75.744C129.283 76.0924 129.612 76.3852 129.988 76.6053C130.365 76.8255 130.781 76.9686 131.213 77.0263C132.309 77.1578 132.649 76.0344 132.139 75.0042C131.684 74.0726 130.555 72.8889 129.531 73.2342C128.506 73.5794 128.347 74.8617 129.021 75.744Z" fill="#EBB376"/>
<path d="M138.759 76.4023C138.537 76.9176 138.354 77.4489 138.211 77.9915C138.112 77.9969 138.014 77.9969 137.915 77.9915C136.578 77.86 136.008 77.3558 135.772 76.8352C135.666 76.5807 135.621 76.3048 135.641 76.0297C135.649 75.8729 135.678 75.718 135.729 75.5693C136.515 76.0195 137.39 76.2943 138.293 76.3749C138.584 76.3913 138.759 76.4023 138.759 76.4023Z" fill="#263238"/>
<path d="M138.304 76.3476L138.134 76.8133C136.874 76.6818 136.008 76.4243 135.652 76.0023C135.66 75.8456 135.689 75.6906 135.74 75.542C136.526 75.9922 137.401 76.2669 138.304 76.3476Z" fill="white"/>
<path d="M137.926 77.9639C136.589 77.8324 136.019 77.3282 135.783 76.8076C136.29 76.87 136.781 77.0202 137.236 77.2515C137.535 77.4104 137.777 77.6597 137.926 77.9639Z" fill="#DE5753"/>
<path opacity="0.2" d="M128.616 100.832C128.469 101.231 128.196 101.572 127.838 101.802C127.372 100.054 126.884 98.196 126.468 96.5411C127.564 95.2259 128.473 94.1299 128.473 94.1299C128.473 94.1299 129.723 98.0097 128.616 100.832Z" fill="black"/>
<path d="M127.07 86.25C124.741 86.535 117.623 104.219 118.05 107.014C118.478 109.808 133.789 108.537 133.789 108.537V104.279L124.851 102.476L127.941 96.4044C128.489 94.6472 128.718 92.806 128.615 90.9683C128.427 89.3067 127.901 87.7011 127.07 86.25Z" fill="#B388DD"/>
<path d="M136.507 115.035L124.758 113.611C124.652 113.6 124.549 113.568 124.456 113.516C124.363 113.465 124.282 113.395 124.217 113.311C124.151 113.227 124.104 113.13 124.077 113.027C124.051 112.924 124.045 112.817 124.062 112.712L126.128 97.6036C126.164 97.3881 126.283 97.1952 126.458 97.0654C126.634 96.9356 126.853 96.8791 127.07 96.9077L138.819 98.3325C138.925 98.3424 139.027 98.3739 139.12 98.4248C139.213 98.4758 139.295 98.5453 139.36 98.6289C139.425 98.7126 139.472 98.8086 139.499 98.9113C139.526 99.0139 139.531 99.1209 139.515 99.2257L137.449 114.34C137.413 114.555 137.294 114.748 137.118 114.878C136.943 115.008 136.723 115.064 136.507 115.035Z" fill="#263238"/>
<path opacity="0.6" d="M136.507 115.035L124.758 113.611C124.652 113.6 124.549 113.568 124.456 113.516C124.363 113.465 124.282 113.395 124.217 113.311C124.151 113.227 124.104 113.13 124.077 113.027C124.051 112.924 124.045 112.817 124.062 112.712L126.128 97.6036C126.164 97.3881 126.283 97.1952 126.458 97.0654C126.634 96.9356 126.853 96.8791 127.07 96.9077L138.819 98.3325C138.925 98.3424 139.027 98.3739 139.12 98.4248C139.213 98.4758 139.295 98.5453 139.36 98.6289C139.425 98.7126 139.472 98.8086 139.499 98.9113C139.526 99.0139 139.531 99.1209 139.515 99.2257L137.449 114.34C137.413 114.555 137.294 114.748 137.118 114.878C136.943 115.008 136.723 115.064 136.507 115.035Z" fill="white"/>
<path opacity="0.2" d="M136.019 114.975L124.758 113.611C124.652 113.6 124.549 113.568 124.456 113.516C124.363 113.465 124.282 113.395 124.217 113.311C124.151 113.227 124.104 113.13 124.077 113.027C124.051 112.924 124.045 112.817 124.062 112.712L126.128 97.6036C126.164 97.3881 126.283 97.1952 126.458 97.0654C126.634 96.9356 126.853 96.8791 127.07 96.9077L138.331 98.2722C138.437 98.2828 138.539 98.3149 138.632 98.3665C138.725 98.4181 138.806 98.4882 138.871 98.5724C138.936 98.6565 138.982 98.7531 139.008 98.856C139.034 98.9589 139.039 99.0661 139.022 99.1709L136.961 114.279C136.923 114.493 136.803 114.685 136.628 114.814C136.453 114.943 136.235 115.001 136.019 114.975Z" fill="white"/>
<path d="M131.519 104.668C131.181 104.624 130.838 104.714 130.565 104.919C130.292 105.123 130.109 105.427 130.056 105.764C130.033 105.928 130.042 106.095 130.085 106.255C130.128 106.415 130.203 106.565 130.306 106.695C130.408 106.826 130.536 106.934 130.682 107.013C130.827 107.092 130.987 107.141 131.152 107.156C131.49 107.196 131.829 107.104 132.101 106.9C132.372 106.696 132.555 106.395 132.61 106.06C132.445 106.046 132.284 105.997 132.139 105.918C131.993 105.839 131.865 105.731 131.763 105.601C131.661 105.47 131.586 105.32 131.544 105.16C131.503 104.999 131.494 104.832 131.519 104.668Z" fill="#263238"/>
<path opacity="0.3" d="M135.504 99.1488L129.328 98.398C129.181 98.3809 129.043 98.3192 128.932 98.2212C128.821 98.1233 128.743 97.9937 128.708 97.85L128.517 97.0664L136.737 98.0638L136.315 98.7707C136.234 98.909 136.113 99.0193 135.968 99.0869C135.823 99.1545 135.661 99.1761 135.504 99.1488Z" fill="black"/>
<path d="M137.066 103.759L133.57 104.762L132.835 107.074C133.17 108.959 136.786 108.17 136.786 108.17L137.532 108.636C137.671 108.723 137.829 108.774 137.992 108.786C138.156 108.797 138.32 108.768 138.469 108.702C138.619 108.635 138.75 108.533 138.852 108.404C138.953 108.275 139.021 108.123 139.05 107.962L139.433 105.77C139.465 105.59 139.447 105.406 139.382 105.236C139.316 105.066 139.205 104.917 139.061 104.805L137.965 103.945C137.841 103.844 137.694 103.775 137.538 103.742C137.382 103.71 137.22 103.716 137.066 103.759Z" fill="#EBB376"/>
<path d="M119.946 99.7363C118.719 103.096 117.897 106.033 118.05 107.041C118.472 109.836 133.789 108.565 133.789 108.565V104.307L124.851 102.476L119.946 99.7363Z" fill="#B388DD"/>
<path d="M153.363 54.1533H146.639C146.336 54.1533 146.035 54.2131 145.754 54.3294C145.474 54.4456 145.219 54.6159 145.004 54.8307C144.79 55.0454 144.619 55.3003 144.503 55.5809C144.387 55.8615 144.327 56.1622 144.327 56.4659V63.0199C144.327 63.3234 144.387 63.6238 144.503 63.9041C144.619 64.1844 144.79 64.4389 145.005 64.6532C145.219 64.8675 145.474 65.0374 145.755 65.153C146.035 65.2686 146.336 65.3277 146.639 65.327H148.223L147.834 67.7711L149.774 65.327H153.363C153.975 65.327 154.562 65.084 154.995 64.6513C155.427 64.2186 155.67 63.6318 155.67 63.0199V56.444C155.665 55.8354 155.419 55.2536 154.987 54.8248C154.556 54.396 153.972 54.1547 153.363 54.1533Z" fill="#B388DD"/>
<path d="M147.664 58.4206C148.25 57.4452 149.39 57.8013 149.993 58.5466C150.568 57.7849 151.703 57.4013 152.311 58.3603C153.336 59.9769 151.286 61.5168 150.316 62.1196L150.037 62.2949L149.757 62.1305C148.771 61.5497 146.683 60.0646 147.664 58.4206Z" fill="white"/>
<path d="M76.0515 83.5037C79.4875 86.6986 79.8875 97.7517 80.1725 102.448C80.3424 105.188 80.7643 108.12 81.1479 110.904C81.5535 113.775 81.9535 116.674 82.3316 119.562C82.3851 119.918 82.3036 120.281 82.103 120.58C81.9024 120.879 81.5972 121.092 81.2475 121.177C80.8979 121.262 80.529 121.213 80.2134 121.04C79.8979 120.867 79.6585 120.582 79.5423 120.242C78.5504 117.447 77.6681 114.636 76.9009 111.775C75.8679 108.168 75.1348 104.482 74.7089 100.755C74.1226 96.705 73.613 92.4197 72.4074 88.5453C72.305 88.2584 72.1841 87.9783 72.0457 87.7069C72.084 87.7069 72.1114 87.7836 72.1662 87.811C69.3934 85.1697 73.1143 81.0213 76.0461 83.5037H76.0515Z" fill="#263238"/>
<path opacity="0.7" d="M76.0515 83.5037C79.4875 86.6986 79.8875 97.7517 80.1725 102.448C80.3424 105.188 80.7643 108.12 81.1479 110.904C81.5535 113.775 81.9535 116.674 82.3316 119.562C82.3851 119.918 82.3036 120.281 82.103 120.58C81.9024 120.879 81.5972 121.092 81.2475 121.177C80.8979 121.262 80.529 121.213 80.2134 121.04C79.8979 120.867 79.6585 120.582 79.5423 120.242C78.5504 117.447 77.6681 114.636 76.9009 111.775C75.8679 108.168 75.1348 104.482 74.7089 100.755C74.1226 96.705 73.613 92.4197 72.4074 88.5453C72.305 88.2584 72.1841 87.9783 72.0457 87.7069C72.084 87.7069 72.1114 87.7836 72.1662 87.811C69.3934 85.1697 73.1143 81.0213 76.0461 83.5037H76.0515Z" fill="white"/>
<path d="M82.781 119.315L84.8415 122.916L80.2547 123.255C80.2547 123.255 78.6107 119.934 80.3588 119.156L82.781 119.315Z" fill="#263238"/>
<path d="M84.7261 127.021L80.6873 125.974L80.2544 123.256L84.8412 122.916L84.7261 127.021Z" fill="#263238"/>
<path d="M57.1618 88.8417C54.2464 91.2583 50.6625 93.9655 48.7226 97.0616C48.7226 96.8589 48.6568 96.8041 48.6788 96.9027C49.298 98.4371 50.5858 99.7249 51.7147 101.035C53.2545 102.722 54.9259 104.421 56.5754 106.076C56.813 106.327 56.9533 106.655 56.971 107C56.9887 107.345 56.8827 107.685 56.6721 107.96C56.4614 108.234 56.1599 108.423 55.8218 108.495C55.4836 108.567 55.131 108.515 54.8273 108.35C51.5519 106.539 48.5438 104.282 45.8894 101.643C44.2454 99.966 42.859 97.6699 43.7687 95.2368C44.5907 92.8147 46.3443 90.8857 48.0047 89.1376C49.7633 87.3476 51.6597 85.6985 53.6765 84.2056C56.8111 82.0136 60.1265 86.4469 57.1618 88.8471V88.8417Z" fill="#263238"/>
<path opacity="0.7" d="M57.1618 88.8417C54.2464 91.2583 50.6625 93.9655 48.7226 97.0616C48.7226 96.8589 48.6568 96.8041 48.6788 96.9027C49.298 98.4371 50.5858 99.7249 51.7147 101.035C53.2545 102.722 54.9259 104.421 56.5754 106.076C56.813 106.327 56.9533 106.655 56.971 107C56.9887 107.345 56.8827 107.685 56.6721 107.96C56.4614 108.234 56.1599 108.423 55.8218 108.495C55.4836 108.567 55.131 108.515 54.8273 108.35C51.5519 106.539 48.5438 104.282 45.8894 101.643C44.2454 99.966 42.859 97.6699 43.7687 95.2368C44.5907 92.8147 46.3443 90.8857 48.0047 89.1376C49.7633 87.3476 51.6597 85.6985 53.6765 84.2056C56.8111 82.0136 60.1265 86.4469 57.1618 88.8471V88.8417Z" fill="white"/>
<path d="M60.7841 109.228C60.7841 109.228 61.0361 113.519 63.135 121.037C64.4491 125.687 66.0449 130.253 67.9135 134.71C68.9602 137.225 70.1603 139.894 71.5358 142.705C72.155 143.982 72.8181 145.281 73.5141 146.618C74.3196 169.382 87.0935 192.529 87.0935 192.529C87.8004 192.896 90.2719 192.496 90.2555 191.778C88.3649 188.77 84.6385 159.6 82.2382 145.746C82.0903 143.867 81.8765 141.85 81.608 139.768C80.9066 134.184 79.8709 128.106 78.868 122.78C77.2843 114.368 75.7718 107.765 75.7718 107.765L71.5577 108.176L60.7841 109.228Z" fill="#263238"/>
<path opacity="0.7" d="M60.7841 109.228C60.7841 109.228 61.0361 113.519 63.135 121.037C64.4491 125.687 66.0449 130.253 67.9135 134.71C68.9602 137.225 70.1603 139.894 71.5358 142.705C72.155 143.982 72.8181 145.281 73.5141 146.618C74.3196 169.382 87.0935 192.529 87.0935 192.529C87.8004 192.896 90.2719 192.496 90.2555 191.778C88.3649 188.77 84.6385 159.6 82.2382 145.746C82.0903 143.867 81.8765 141.85 81.608 139.768C80.9066 134.184 79.8709 128.106 78.868 122.78C77.2843 114.368 75.7718 107.765 75.7718 107.765L71.5577 108.176L60.7841 109.228Z" fill="white"/>
<path d="M55.7644 140.742C56.1041 143.191 56.5371 145.805 57.0796 148.6C52.5148 163.829 61.8965 193.536 61.8965 193.536C63.4857 193.848 64.8941 193.64 65.6065 193.109C63.8364 184.154 65.1078 160.875 66.4833 146.962C66.6038 145.701 66.7572 144.309 66.9271 142.83C67.2121 140.32 67.5464 137.552 67.908 134.697C68.5108 129.913 69.1958 124.877 69.8096 120.416C70.5604 115.019 71.218 110.454 71.5468 108.163C71.6947 107.155 71.7769 106.585 71.7769 106.585L58.5975 108.01C58.5975 108.01 55.2493 111.769 54.7615 123.502C54.5767 129.267 54.9123 135.037 55.7644 140.742Z" fill="#263238"/>
<path opacity="0.7" d="M55.7644 140.742C56.1041 143.191 56.5371 145.805 57.0796 148.6C52.5148 163.829 61.8965 193.536 61.8965 193.536C63.4857 193.848 64.8941 193.64 65.6065 193.109C63.8364 184.154 65.1078 160.875 66.4833 146.962C66.6038 145.701 66.7572 144.309 66.9271 142.83C67.2121 140.32 67.5464 137.552 67.908 134.697C68.5108 129.913 69.1958 124.877 69.8096 120.416C70.5604 115.019 71.218 110.454 71.5468 108.163C71.6947 107.155 71.7769 106.585 71.7769 106.585L58.5975 108.01C58.5975 108.01 55.2493 111.769 54.7615 123.502C54.5767 129.267 54.9123 135.037 55.7644 140.742Z" fill="white"/>
<path d="M74.177 81.2129C78.3802 82.6158 78.6761 85.5969 81.0818 91.8934C80.3039 93.0327 79.2811 93.9836 78.0884 94.6767C76.8956 95.3698 75.563 95.7875 74.188 95.8993C74.188 95.8993 68.171 84.6817 74.177 81.2129Z" fill="#263238"/>
<path opacity="0.8" d="M81.1039 91.8885C79.9038 93.6403 78.1432 94.9313 76.1116 95.5491C75.496 95.7501 74.8567 95.8698 74.2101 95.9053L74.1169 95.719C73.6402 94.7765 71.5139 90.3815 71.5304 86.5126C71.5304 84.359 72.2099 82.3588 74.1991 81.208C78.3639 82.6109 78.6763 85.6194 81.1039 91.8885Z" fill="white"/>
<path opacity="0.1" d="M78.7423 94.2558C77.9315 94.8234 77.0364 95.2598 76.09 95.5491C75.114 93.6138 74.4482 91.5371 74.1172 89.3951C74.7497 89.328 75.3881 89.448 75.9531 89.7402C76.518 90.0324 76.9848 90.4841 77.2956 91.0391C77.9317 92.0353 78.4191 93.1189 78.7423 94.2558Z" fill="black"/>
<path d="M71.6455 63.4959C71.6455 63.4959 75.5527 73.2667 71.6455 81.7716C67.7382 90.2766 56.7728 85.1692 55.6877 83.1307C54.6027 81.0921 57.1399 76.9383 57.1399 73.1352C57.1399 69.3321 56.2193 67.2606 56.9098 64.137C57.6002 61.0134 71.6455 63.4959 71.6455 63.4959Z" fill="#263238"/>
<path opacity="0.2" d="M55.7644 140.743C59.3701 141.957 63.127 142.663 66.9272 142.842C67.2121 140.332 67.5464 137.565 67.9081 134.71C68.9548 137.225 70.1549 139.894 71.5304 142.705C75.0442 142.387 78.4639 141.395 81.6026 139.784C80.9012 134.2 79.8654 128.123 78.8626 122.796C77.4675 121.977 75.9587 121.37 74.3855 120.993C72.889 120.631 71.3549 120.447 69.8151 120.445C67.5739 120.429 65.3365 120.633 63.135 121.053C60.2599 121.585 57.448 122.415 54.7452 123.53C54.5674 129.287 54.9085 135.048 55.7644 140.743Z" fill="black"/>
<path d="M55.6877 81.5304C56.4137 84.4331 56.9826 87.3728 57.392 90.3367C57.6277 91.9807 57.8578 93.8275 58.0441 95.8167C58.4291 99.8616 58.5754 103.926 58.4825 107.988H75.8377C75.8377 107.988 78.5777 87.7118 74.0512 81.1358C74.0512 81.1522 65.1572 76.9601 55.6877 81.5304Z" fill="#263238"/>
<path opacity="0.5" d="M55.6877 81.5304C56.4137 84.4331 56.9826 87.3728 57.392 90.3367C57.6277 91.9807 57.8578 93.8275 58.0441 95.8167C58.4291 99.8616 58.5754 103.926 58.4825 107.988H75.8377C75.8377 107.988 78.5777 87.7118 74.0512 81.1358C74.0512 81.1522 65.1572 76.9601 55.6877 81.5304Z" fill="white"/>
<path opacity="0.1" d="M57.3917 90.3378C57.6274 91.9818 57.8575 93.8286 58.0438 95.8178C59.3177 92.8562 59.4926 89.5371 58.537 86.458L57.3917 90.3378Z" fill="black"/>
<path d="M64.6637 78.2041C59.2221 78.2041 58.5371 82.6813 58.5371 82.6813L61.0798 81.5853L68.56 86.583L70.3958 81.5359L72.7029 81.9634C72.7029 81.9634 69.393 78.2096 64.6637 78.2041Z" fill="#263238"/>
<path opacity="0.8" d="M64.6637 78.2041C59.2221 78.2041 58.5371 82.6813 58.5371 82.6813L61.0798 81.5853L68.56 86.583L70.3958 81.5359L72.7029 81.9634C72.7029 81.9634 69.393 78.2096 64.6637 78.2041Z" fill="white"/>
<path d="M68.314 86.2866L61.2996 80.1819C63.0038 78.4338 62.1325 73.6059 61.4201 71.0029L66.7412 75.2773C66.385 77.3159 66.4727 79.486 69.4483 80.1819C69.4483 80.1819 68.3085 86.2702 68.314 86.2866Z" fill="#263238"/>
<path opacity="0.7" d="M68.314 86.2866L61.2996 80.1819C63.0038 78.4338 62.1325 73.6059 61.4201 71.0029L66.7412 75.2773C66.385 77.3159 66.4727 79.486 69.4483 80.1819C69.4483 80.1819 68.3085 86.2702 68.314 86.2866Z" fill="white"/>
<path opacity="0.1" d="M63.5678 72.751L66.7188 75.2773C66.6283 75.7543 66.5806 76.2384 66.5764 76.724C65.4475 76.5596 63.8364 75.3321 63.6172 74.1648C63.5164 73.7003 63.4997 73.2214 63.5678 72.751Z" fill="black"/>
<path d="M59.184 65.7582C59.9786 69.9942 60.2252 71.7862 62.6419 73.8302C66.2751 76.8826 71.2674 75.266 71.7442 70.9478C72.1771 67.0624 70.8016 60.7933 66.4395 59.3959C65.5128 59.0637 64.514 58.9855 63.5469 59.1693C62.5797 59.3532 61.6793 59.7924 60.9391 60.4415C60.1989 61.0906 59.6458 61.9259 59.3372 62.8607C59.0286 63.7956 58.9757 64.796 59.184 65.7582Z" fill="#263238"/>
<path opacity="0.7" d="M59.184 65.7582C59.9786 69.9942 60.2252 71.7862 62.6419 73.8302C66.2751 76.8826 71.2674 75.266 71.7442 70.9478C72.1771 67.0624 70.8016 60.7933 66.4395 59.3959C65.5128 59.0637 64.514 58.9855 63.5469 59.1693C62.5797 59.3532 61.6793 59.7924 60.9391 60.4415C60.1989 61.0906 59.6458 61.9259 59.3372 62.8607C59.0286 63.7956 58.9757 64.796 59.184 65.7582Z" fill="white"/>
<path d="M62.8231 62.686C60.4886 65.7 65.2891 69.1689 60.4886 68.9661C55.6881 68.7634 57.639 61.9901 60.4886 60.4502C63.3382 58.9103 62.8231 62.686 62.8231 62.686Z" fill="#263238"/>
<path d="M65.8915 66.4507C65.9408 66.8069 66.171 67.0864 66.4012 67.07C66.6313 67.0535 66.7738 66.7466 66.719 66.3904C66.6642 66.0342 66.4395 65.7548 66.2148 65.7712C65.9902 65.7876 65.8367 66.089 65.8915 66.4507Z" fill="#263238"/>
<path d="M70.2152 66.1919C70.2645 66.5536 70.4946 66.8276 70.7248 66.8112C70.955 66.7947 71.0974 66.4878 71.0481 66.1316C70.9988 65.7754 70.7686 65.496 70.5385 65.5124C70.3083 65.5288 70.1439 65.8357 70.2152 66.1919Z" fill="#263238"/>
<path d="M70.4402 65.5397L71.2403 65.2109C71.2403 65.2109 70.9115 65.9343 70.4402 65.5397Z" fill="#263238"/>
<path opacity="0.2" d="M69.0973 66.8555C69.5281 67.6502 70.0585 68.3868 70.6755 69.0475C70.5114 69.1918 70.3165 69.2969 70.1058 69.3548C69.895 69.4127 69.6738 69.4219 69.459 69.3817L69.0973 66.8555Z" fill="black"/>
<path d="M67.6288 70.8662C67.8275 70.8856 68.0275 70.8856 68.2261 70.8662C68.2397 70.8649 68.2528 70.8608 68.2646 70.8542C68.2765 70.8476 68.2869 70.8386 68.2951 70.8278C68.3033 70.817 68.3092 70.8046 68.3125 70.7914C68.3157 70.7782 68.3161 70.7645 68.3138 70.7511C68.3098 70.724 68.2957 70.6994 68.2744 70.6822C68.2531 70.6649 68.2261 70.6563 68.1987 70.658C67.7494 70.6916 67.2983 70.6244 66.8783 70.4613C66.4583 70.2983 66.08 70.0434 65.7711 69.7154C65.7614 69.7056 65.7499 69.6979 65.7372 69.6926C65.7245 69.6873 65.7109 69.6846 65.6971 69.6846C65.6834 69.6846 65.6697 69.6873 65.657 69.6926C65.6443 69.6979 65.6328 69.7056 65.6231 69.7154C65.6134 69.7251 65.6056 69.7366 65.6003 69.7493C65.595 69.762 65.5923 69.7756 65.5923 69.7894C65.5923 69.8032 65.595 69.8168 65.6003 69.8295C65.6056 69.8422 65.6134 69.8537 65.6231 69.8634C66.148 70.4298 66.8608 70.7862 67.6288 70.8662Z" fill="#263238"/>
<path d="M58.7727 69.8256C58.946 70.1993 59.1954 70.5327 59.5049 70.8044C59.8144 71.0762 60.1772 71.2803 60.5702 71.4038C61.5566 71.6669 61.984 70.538 61.6662 69.4091C61.3702 68.3898 60.5044 67.0308 59.5399 67.2774C58.5754 67.524 58.274 68.8337 58.7727 69.8256Z" fill="#263238"/>
<path d="M64.6638 64.5211C64.6915 64.5235 64.7193 64.5193 64.7451 64.5088C64.7708 64.4983 64.7937 64.4819 64.8118 64.4608C64.9763 64.2625 65.1879 64.1085 65.4272 64.0128C65.6664 63.917 65.9258 63.8827 66.1818 63.9128C66.2081 63.9184 66.2353 63.9184 66.2617 63.913C66.2881 63.9077 66.313 63.8969 66.3351 63.8815C66.3572 63.8661 66.3759 63.8464 66.39 63.8235C66.4042 63.8006 66.4135 63.7751 66.4174 63.7484C66.4229 63.6916 66.4076 63.6348 66.3743 63.5884C66.3411 63.5421 66.2921 63.5094 66.2366 63.4963C65.9152 63.4502 65.5874 63.4851 65.283 63.5981C64.9787 63.711 64.7074 63.8984 64.4939 64.143C64.4558 64.1828 64.4344 64.2358 64.4344 64.291C64.4344 64.3461 64.4558 64.3991 64.4939 64.4389C64.5124 64.4665 64.5378 64.4887 64.5677 64.5031C64.5976 64.5176 64.6308 64.5238 64.6638 64.5211Z" fill="#263238"/>
<path d="M71.1851 64.1158C71.239 64.1192 71.292 64.1015 71.3331 64.0665C71.3527 64.0471 71.3682 64.0241 71.3788 63.9987C71.3894 63.9733 71.3948 63.946 71.3948 63.9185C71.3948 63.891 71.3894 63.8638 71.3788 63.8384C71.3682 63.813 71.3527 63.7899 71.3331 63.7706C71.1166 63.5081 70.8419 63.2997 70.5309 63.1618C70.2199 63.0239 69.881 62.9603 69.5411 62.976C69.5144 62.9784 69.4885 62.9865 69.4651 62.9998C69.4418 63.0132 69.4217 63.0314 69.406 63.0533C69.3904 63.0751 69.3797 63.1001 69.3747 63.1265C69.3696 63.1529 69.3703 63.18 69.3767 63.2061C69.3862 63.2618 69.4162 63.3119 69.4609 63.3464C69.5056 63.3809 69.5616 63.3974 69.6179 63.3924C69.8872 63.3855 70.1546 63.4402 70.3996 63.5522C70.6446 63.6643 70.8608 63.8308 71.0317 64.0391C71.0711 64.0835 71.126 64.111 71.1851 64.1158Z" fill="#263238"/>
<path d="M66.1163 65.7987L66.9219 65.4863C66.9219 65.4863 66.5876 66.1933 66.1163 65.7987Z" fill="#263238"/>
<path d="M64.8506 60.5584C64.8506 60.5584 63.5738 66.2357 59.3706 66.8714C55.1675 67.5071 56.1758 61.3421 61.7434 59.0734C67.3111 56.8047 71.8266 61.3202 72.0842 62.5367C72.1368 62.9145 72.0843 63.2995 71.9325 63.6494C71.7808 63.9993 71.5356 64.3007 71.2238 64.5205C71.2238 64.5205 69.2181 60.668 64.8506 60.5584Z" fill="#263238"/>
<path opacity="0.7" d="M58.7727 69.8256C58.946 70.1993 59.1954 70.5327 59.5049 70.8044C59.8144 71.0762 60.1772 71.2803 60.5702 71.4038C61.5566 71.6669 61.984 70.538 61.6662 69.4091C61.3702 68.3898 60.5044 67.0308 59.5399 67.2774C58.5754 67.524 58.274 68.8337 58.7727 69.8256Z" fill="white"/>
<path d="M61.573 197.433H62.3073L62.5101 196.529L64.9432 197.625H71.1027C71.1027 197.625 72.0782 196.638 69.1464 195.855C69.0034 195.813 68.864 195.76 68.7299 195.696C67.1681 194.961 64.9432 192.484 64.9432 192.484H61.5621C61.4612 192.641 61.3697 192.804 61.2881 192.972C60.9154 193.717 60.2797 195.279 61.573 197.433Z" fill="#263238"/>
<path d="M61.2881 192.972C61.732 192.473 63.765 194.66 65.2501 195.405C66.5763 196.063 68.0723 196.359 68.7299 195.685C67.1681 194.95 64.7076 191.75 64.7076 191.75H61.9676C61.9676 191.75 61.447 192.654 61.2881 192.972Z" fill="#263238"/>
<path opacity="0.7" d="M61.2881 192.972C61.732 192.473 63.765 194.66 65.2501 195.405C66.5763 196.063 68.0723 196.359 68.7299 195.685C67.1681 194.95 64.7076 191.75 64.7076 191.75H61.9676C61.9676 191.75 61.447 192.654 61.2881 192.972Z" fill="white"/>
<path d="M87.2303 197.433H87.9646L88.1673 196.529L90.6005 197.625H96.7545C96.7545 197.625 97.7354 196.638 94.8036 195.855C94.6603 195.814 94.5209 195.761 94.3871 195.696C92.8253 194.961 90.6005 192.484 90.6005 192.484H87.2193C87.115 192.64 87.0216 192.803 86.9398 192.972C86.5836 193.717 85.937 195.279 87.2303 197.433Z" fill="#263238"/>
<path d="M86.9402 192.972C87.3895 192.473 89.4171 194.66 90.9077 195.405C92.2339 196.063 93.7244 196.359 94.3875 195.685C92.8257 194.95 90.3652 191.75 90.3652 191.75H87.6252C87.6252 191.75 87.0991 192.654 86.9402 192.972Z" fill="#263238"/>
<path opacity="0.7" d="M86.9402 192.972C87.3895 192.473 89.4171 194.66 90.9077 195.405C92.2339 196.063 93.7244 196.359 94.3875 195.685C92.8257 194.95 90.3652 191.75 90.3652 191.75H87.6252C87.6252 191.75 87.0991 192.654 86.9402 192.972Z" fill="white"/>
<path d="M76.0023 106.597H58.5047L58.0334 108.849C58.0334 108.849 51.6108 117.748 54.866 139.931C54.866 139.931 68.9441 141.575 82.1947 138.709C82.1947 138.709 79.219 115.924 76.1119 108.487L76.0023 106.597Z" fill="#263238"/>
<path d="M63.7212 108.537H57.8522L58.2084 106.86H63.7212V108.537Z" fill="#263238"/>
<path d="M74.3851 106.86H76.1442L76.2976 108.537H74.3851V106.86Z" fill="#263238"/>
<path d="M73.7993 106.86H64.2915V108.532H73.7993V106.86Z" fill="#263238"/>
<path opacity="0.6" d="M63.7212 108.537H57.8522L58.2084 106.86H63.7212V108.537Z" fill="white"/>
<path opacity="0.6" d="M74.3851 106.86H76.1442L76.2976 108.537H74.3851V106.86Z" fill="white"/>
<path opacity="0.6" d="M73.7993 106.86H64.2915V108.532H73.7993V106.86Z" fill="white"/>
<path d="M68.5388 108.662H71.1364C71.3058 108.662 71.4432 108.525 71.4432 108.355V107.04C71.4432 106.871 71.3058 106.733 71.1364 106.733H68.5388C68.3694 106.733 68.232 106.871 68.232 107.04V108.355C68.232 108.525 68.3694 108.662 68.5388 108.662Z" fill="white"/>
<path d="M56.7729 81.1367C54.685 81.2463 50.8929 84.8467 47.709 88.9402C49.3721 90.9277 51.1938 92.7768 53.1561 94.4695L59.1841 90.2061C59.1841 90.2061 59.8965 83.4876 56.7729 81.1367Z" fill="#263238"/>
<path opacity="0.8" d="M56.7729 81.1367C54.685 81.2463 50.8929 84.8467 47.709 88.9402C49.3721 90.9277 51.1938 92.7768 53.1561 94.4695L59.1841 90.2061C59.1841 90.2061 59.8965 83.4876 56.7729 81.1367Z" fill="white"/>
<path opacity="0.6" d="M68.4124 88.0966C68.4113 88.1651 68.4306 88.2324 68.4679 88.2899C68.5052 88.3474 68.5587 88.3925 68.6217 88.4194C68.6847 88.4464 68.7542 88.454 68.8216 88.4413C68.8889 88.4286 68.9509 88.3962 68.9998 88.3481C69.0486 88.3001 69.082 88.2386 69.0958 88.1715C69.1096 88.1044 69.1031 88.0347 69.0771 87.9713C69.0511 87.9079 69.0069 87.8536 68.95 87.8154C68.8931 87.7772 68.8262 87.7568 68.7576 87.7568C68.667 87.7568 68.58 87.7924 68.5154 87.856C68.4508 87.9196 68.4138 88.006 68.4124 88.0966Z" fill="white"/>
<path opacity="0.6" d="M69.4371 93.4559C69.6247 93.4559 69.7768 93.3038 69.7768 93.1161C69.7768 92.9285 69.6247 92.7764 69.4371 92.7764C69.2494 92.7764 69.0973 92.9285 69.0973 93.1161C69.0973 93.3038 69.2494 93.4559 69.4371 93.4559Z" fill="white"/>
<path opacity="0.6" d="M69.8376 98.6942C70.0252 98.6942 70.1773 98.542 70.1773 98.3544C70.1773 98.1668 70.0252 98.0146 69.8376 98.0146C69.6499 98.0146 69.4978 98.1668 69.4978 98.3544C69.4978 98.542 69.6499 98.6942 69.8376 98.6942Z" fill="white"/>
<path opacity="0.6" d="M69.8376 104.263C70.0252 104.263 70.1773 104.11 70.1773 103.923C70.1773 103.735 70.0252 103.583 69.8376 103.583C69.6499 103.583 69.4978 103.735 69.4978 103.923C69.4978 104.11 69.6499 104.263 69.8376 104.263Z" fill="white"/>
<path d="M60.5705 109.994L60.3458 108.673C60.3034 108.429 60.2032 108.198 60.0535 107.999C59.9039 107.801 59.7092 107.641 59.4854 107.534L57.3647 106.509C56.9472 106.308 56.4877 106.209 56.0244 106.222C55.5612 106.234 55.1076 106.357 54.7014 106.58L54.1918 106.865C54.4165 109.057 56.2906 111.304 56.2906 111.304L56.7564 112C56.8474 112.145 56.9662 112.271 57.1062 112.37C57.2461 112.468 57.4042 112.538 57.5715 112.576C57.7387 112.613 57.9117 112.617 58.0803 112.586C58.2489 112.556 58.4099 112.493 58.5538 112.4L59.9458 111.496C60.1841 111.333 60.37 111.104 60.4809 110.838C60.5918 110.571 60.623 110.278 60.5705 109.994Z" fill="#263238"/>
<path opacity="0.7" d="M60.5705 109.994L60.3458 108.673C60.3034 108.429 60.2032 108.198 60.0535 107.999C59.9039 107.801 59.7092 107.641 59.4854 107.534L57.3647 106.509C56.9472 106.308 56.4877 106.209 56.0244 106.222C55.5612 106.234 55.1076 106.357 54.7014 106.58L54.1918 106.865C54.4165 109.057 56.2906 111.304 56.2906 111.304L56.7564 112C56.8474 112.145 56.9662 112.271 57.1062 112.37C57.2461 112.468 57.4042 112.538 57.5715 112.576C57.7387 112.613 57.9117 112.617 58.0803 112.586C58.2489 112.556 58.4099 112.493 58.5538 112.4L59.9458 111.496C60.1841 111.333 60.37 111.104 60.4809 110.838C60.5918 110.571 60.623 110.278 60.5705 109.994Z" fill="white"/>
<g opacity="0.7">
<path d="M82.7811 119.315L84.8416 122.916L80.2548 123.255C80.2548 123.255 78.6108 119.934 80.359 119.156L82.7811 119.315Z" fill="white"/>
<path d="M84.7263 127.021L80.6876 125.974L80.2546 123.256L84.8414 122.916L84.7263 127.021Z" fill="white"/>
</g>
</svg>
