<svg width="270" height="201" viewBox="0 0 270 201" fill="none" xmlns="http://www.w3.org/2000/svg">
<path d="M269.415 176.413H0V176.548H269.415V176.413Z" fill="#EBEBEB"/>
<path d="M195.057 180.691H177.211V180.826H195.057V180.691Z" fill="#EBEBEB"/>
<path d="M237.581 180.762H215.414V180.896H237.581V180.762Z" fill="#EBEBEB"/>
<path d="M202.574 184.28H192.233V184.415H202.574V184.28Z" fill="#EBEBEB"/>
<path d="M121.598 183.262H93.7566V183.396H121.598V183.262Z" fill="#EBEBEB"/>
<path d="M88.9611 183.262H70.4307V183.396H88.9611V183.262Z" fill="#EBEBEB"/>
<path d="M59.3414 180.988H34.1025V181.123H59.3414V180.988Z" fill="#EBEBEB"/>
<path d="M127.703 152.381H23.66C22.8449 152.38 22.0637 152.055 21.4879 151.478C20.912 150.902 20.5886 150.12 20.5886 149.305V3.04978C20.5957 2.2394 20.9223 1.46453 21.4973 0.893499C22.0724 0.322468 22.8495 0.00138824 23.66 0H127.703C128.519 0 129.301 0.324154 129.878 0.901152C130.455 1.47815 130.78 2.26073 130.78 3.07672V149.305C130.78 150.121 130.455 150.903 129.878 151.48C129.301 152.057 128.519 152.381 127.703 152.381ZM23.66 0.107767C22.8806 0.109194 22.1337 0.419784 21.5831 0.971365C21.0326 1.52295 20.7233 2.27044 20.7233 3.04978V149.305C20.7233 150.084 21.0326 150.832 21.5831 151.383C22.1337 151.935 22.8806 152.245 23.66 152.247H127.703C128.483 152.245 129.23 151.935 129.782 151.383C130.333 150.832 130.643 150.085 130.645 149.305V3.04978C130.643 2.26995 130.333 1.52246 129.782 0.971036C129.23 0.419609 128.483 0.109191 127.703 0.107767H23.66Z" fill="#EBEBEB"/>
<path d="M244.258 152.381H140.209C139.394 152.38 138.612 152.055 138.035 151.479C137.459 150.902 137.134 150.12 137.133 149.305V3.04978C137.141 2.2389 137.469 1.46405 138.045 0.893162C138.621 0.322279 139.398 0.0013731 140.209 0H244.258C245.067 0.00280434 245.843 0.324511 246.417 0.895391C246.991 1.46627 247.316 2.24033 247.323 3.04978V149.305C247.324 150.119 247.001 150.9 246.426 151.476C245.851 152.053 245.072 152.379 244.258 152.381ZM140.209 0.107767C139.429 0.109191 138.682 0.419609 138.131 0.971036C137.579 1.52246 137.269 2.26995 137.267 3.04978V149.305C137.269 150.085 137.579 150.832 138.131 151.383C138.682 151.935 139.429 152.245 140.209 152.247H244.258C245.037 152.245 245.785 151.935 246.336 151.383C246.888 150.832 247.198 150.085 247.2 149.305V3.04978C247.198 2.26995 246.888 1.52246 246.336 0.971036C245.785 0.419609 245.037 0.109191 244.258 0.107767H140.209Z" fill="#EBEBEB"/>
<path d="M59.7241 149.795C65.5435 118.586 80.8786 103.941 93.9291 96.4834C81.4282 108.305 72.9255 149.208 59.7241 149.795Z" fill="#FAFAFA"/>
<path d="M46.9699 147.338C42.6593 123.812 32.2976 114.609 23.5254 110.697C31.9904 118.101 38.187 148.82 46.9699 147.338Z" fill="#FAFAFA"/>
<path d="M54.5027 153.568C52.8431 119.729 39.9543 104.873 28.364 97.7393C38.882 109.734 41.8887 154.026 54.5027 153.568Z" fill="#FAFAFA"/>
<path d="M54.5027 150.663C57.1968 116.663 71.5728 100.751 84.3539 92.6738C72.6182 105.52 68.189 150.092 54.5027 150.663Z" fill="#FAFAFA"/>
<path d="M56.6257 155.981C60.9363 121.054 51.4044 100.007 41.7378 87.3555C49.5724 104.393 44.6798 150.506 56.6257 155.981Z" fill="#FAFAFA"/>
<path d="M70.0481 145.356C80.9271 125.009 94.5757 120.16 105.072 119.664C93.9668 123.522 79.0897 149.892 70.0481 145.356Z" fill="#FAFAFA"/>
<path d="M67.7903 146.125C74.6496 123.069 87.6354 113.257 98.3043 108.72C87.727 116.619 78.0658 146.772 67.7903 146.125Z" fill="#FAFAFA"/>
<path d="M55.7528 156.094C67.4778 119.933 62.1811 97.6362 54.993 84.0576C59.3737 102.125 44.7229 149.903 55.7528 156.094Z" fill="#FAFAFA"/>
<path d="M35.8591 143.092V165.841C35.8591 171.655 46.3502 176.413 59.1797 176.413C72.0039 176.413 82.5003 171.655 82.5003 165.841V143.092H35.8591Z" fill="#F5F5F5"/>
<path d="M215.533 158.126C214.245 136.664 205.004 126.593 196.711 121.485C204.276 129.595 206.561 157.733 215.533 158.126Z" fill="#E0E0E0"/>
<path d="M224.499 156.45C229.467 140.285 237.377 133.937 243.724 131.243C237.285 136.324 230.388 157.463 224.499 156.45Z" fill="#E0E0E0"/>
<path d="M218.803 160.733C222.86 137.466 232.969 127.25 241.525 122.347C233.314 130.585 227.387 161.04 218.803 160.733Z" fill="#E0E0E0"/>
<path d="M219.056 158.735C220.134 135.35 211.674 124.411 203.619 118.861C210.548 127.704 209.729 158.341 219.056 158.735Z" fill="#E0E0E0"/>
<path d="M217.149 162.388C217.208 138.372 225.56 123.899 233.276 115.197C226.444 126.917 225.797 158.622 217.149 162.388Z" fill="#E0E0E0"/>
<path d="M208.878 155.081C203.172 141.072 194.243 137.753 187.098 137.413C194.367 140.064 202.283 158.201 208.878 155.081Z" fill="#E0E0E0"/>
<path d="M210.344 155.614C207.649 139.757 199.594 133.027 192.681 129.891C199.238 135.322 203.253 156.056 210.344 155.614Z" fill="#E0E0E0"/>
<path d="M217.731 162.469C212.822 137.602 218.377 122.272 224.472 112.939C219.913 125.354 225.803 158.207 217.731 162.469Z" fill="#E0E0E0"/>
<path d="M231.299 153.567V169.193C231.299 173.186 224.094 176.452 215.29 176.452C206.485 176.452 199.287 173.186 199.287 169.193V153.567H231.299Z" fill="#F5F5F5"/>
<path d="M134.708 200.747C192.407 200.747 239.182 198.016 239.182 194.647C239.182 191.279 192.407 188.548 134.708 188.548C77.0085 188.548 30.2339 191.279 30.2339 194.647C30.2339 198.016 77.0085 200.747 134.708 200.747Z" fill="#F5F5F5"/>
<path d="M143.868 39.8139V46.878C143.867 47.3763 143.668 47.8538 143.316 48.2061C142.963 48.5585 142.486 48.7571 141.987 48.7585H124.653C124.155 48.7571 123.677 48.5585 123.325 48.2061C122.973 47.8538 122.774 47.3763 122.773 46.878V21.2673C122.777 20.7709 122.977 20.2962 123.329 19.9461C123.681 19.5961 124.157 19.399 124.653 19.3976H141.96C142.209 19.3947 142.455 19.4409 142.685 19.5334C142.915 19.6259 143.125 19.7629 143.302 19.9366C143.479 20.1103 143.621 20.3172 143.718 20.5456C143.815 20.7739 143.866 21.0192 143.868 21.2673V32.4427" fill="white"/>
<path d="M141.96 49.0659H124.653C124.081 49.0659 123.533 48.8388 123.129 48.4346C122.725 48.0304 122.498 47.4822 122.498 46.9106V21.2676C122.498 20.696 122.725 20.1478 123.129 19.7436C123.533 19.3394 124.081 19.1123 124.653 19.1123H141.96C142.532 19.1123 143.08 19.3394 143.484 19.7436C143.889 20.1478 144.116 20.696 144.116 21.2676V32.443H143.545V21.2676C143.545 20.8389 143.374 20.4277 143.071 20.1246C142.768 19.8214 142.357 19.6511 141.928 19.6511H124.653C124.224 19.6511 123.813 19.8214 123.51 20.1246C123.207 20.4277 123.037 20.8389 123.037 21.2676V46.8783C123.037 47.307 123.207 47.7181 123.51 48.0213C123.813 48.3245 124.224 48.4948 124.653 48.4948H141.96C142.389 48.4948 142.8 48.3245 143.103 48.0213C143.407 47.7181 143.577 47.307 143.577 46.8783V39.8142H144.148V46.8783C144.152 47.1668 144.099 47.4532 143.99 47.7206C143.882 47.988 143.721 48.2309 143.517 48.4349C143.313 48.6389 143.07 48.7999 142.803 48.9083C142.535 49.0167 142.249 49.0703 141.96 49.0659Z" fill="#C08FF1"/>
<path d="M132.014 45.2618C132.369 45.0393 132.738 44.8396 133.118 44.6637C133.294 44.584 133.474 44.5139 133.657 44.4535C133.86 44.3709 134.074 44.3218 134.293 44.308L134.072 44.1841C134.034 44.1248 134.013 44.2757 134.002 44.3134L133.926 44.502C133.863 44.6355 133.818 44.7768 133.792 44.9223C133.778 44.9741 133.776 45.0285 133.788 45.081C133.799 45.1334 133.823 45.1823 133.858 45.2235C133.892 45.2648 133.936 45.2971 133.985 45.3178C134.035 45.3386 134.089 45.347 134.142 45.3426C134.707 45.2414 135.247 45.0309 135.732 44.7229H135.532C135.591 44.7229 135.662 44.8037 135.721 44.8253C135.809 44.8572 135.902 44.8753 135.996 44.8792C136.206 44.8792 136.416 44.8469 136.626 44.8792C136.955 44.9115 136.949 44.3996 136.626 44.3727C136.405 44.3727 136.173 44.4212 135.958 44.3727C135.742 44.3242 135.678 44.1733 135.451 44.2757C135.225 44.3781 135.042 44.5128 134.821 44.6044C134.719 44.6477 134.615 44.6855 134.508 44.7175L134.304 44.7768C134.244 44.7768 134.137 44.7768 134.223 44.863L134.298 45.0408C134.298 44.696 134.665 44.3727 134.568 44.0171C134.471 43.6614 134.029 43.8177 133.765 43.8823C133.049 44.0898 132.368 44.4021 131.744 44.8091C131.686 44.8427 131.643 44.8982 131.625 44.9634C131.607 45.0286 131.616 45.0981 131.65 45.1567C131.684 45.2153 131.739 45.2581 131.804 45.2758C131.869 45.2935 131.939 45.2846 131.997 45.251L132.014 45.2618Z" fill="#E0E0E0"/>
<path d="M141.831 23.2178H124.777V23.7835H141.831V23.2178Z" fill="#E0E0E0"/>
<path d="M139.902 27.2324H124.777V27.7982H139.902V27.2324Z" fill="#E0E0E0"/>
<path d="M141.831 31.252H124.777V31.8177H141.831V31.252Z" fill="#E0E0E0"/>
<path d="M129.465 35.2715H124.777V35.8373H129.465V35.2715Z" fill="#E0E0E0"/>
<path d="M137.666 35.2715H131.432V35.8373H137.666V35.2715Z" fill="#E0E0E0"/>
<path d="M141.831 39.2861H124.777V39.8519H141.831V39.2861Z" fill="#E0E0E0"/>
<path d="M127.121 46.4631C126.601 46.4631 126.092 46.3089 125.66 46.0199C125.228 45.731 124.891 45.3203 124.692 44.8399C124.493 44.3594 124.441 43.8307 124.542 43.3206C124.643 42.8105 124.894 42.342 125.262 41.9743C125.629 41.6065 126.098 41.3561 126.608 41.2546C127.118 41.1532 127.647 41.2052 128.127 41.4043C128.608 41.6033 129.018 41.9403 129.307 42.3727C129.596 42.8052 129.75 43.3135 129.75 43.8336C129.75 44.531 129.473 45.1998 128.98 45.6929C128.487 46.1861 127.818 46.4631 127.121 46.4631ZM127.121 41.7753C126.713 41.7753 126.313 41.8964 125.974 42.1234C125.634 42.3504 125.37 42.6731 125.214 43.0505C125.058 43.4279 125.017 43.8431 125.097 44.2436C125.177 44.6441 125.374 45.0118 125.664 45.3002C125.953 45.5886 126.321 45.7847 126.722 45.8637C127.122 45.9427 127.537 45.9011 127.914 45.7441C128.291 45.587 128.613 45.3217 128.839 44.9816C129.066 44.6415 129.186 44.242 129.185 43.8336C129.183 43.2872 128.965 42.7637 128.578 42.3778C128.191 41.9919 127.667 41.7753 127.121 41.7753Z" fill="#C08FF1"/>
<path d="M128.673 43.8336C128.674 44.1407 128.584 44.4413 128.414 44.6972C128.244 44.9531 128.002 45.1528 127.719 45.2711C127.435 45.3894 127.123 45.4209 126.821 45.3616C126.52 45.3024 126.243 45.155 126.026 44.9382C125.808 44.7214 125.66 44.4449 125.599 44.1437C125.539 43.8425 125.569 43.5302 125.687 43.2463C125.804 42.9625 126.003 42.7198 126.258 42.549C126.514 42.3783 126.814 42.2871 127.121 42.2871C127.532 42.2871 127.925 42.4499 128.216 42.7397C128.507 43.0296 128.671 43.4229 128.673 43.8336Z" fill="#C08FF1"/>
<path d="M137.445 43.3703C137.536 42.6322 137.798 41.9256 138.21 41.3065C138.598 40.7192 139.067 40.2289 139.498 39.6523C140.366 38.5746 141.265 37.497 142.192 36.4193C144.013 34.3017 145.862 32.2057 147.877 30.2389C147.928 30.195 147.993 30.1702 148.061 30.169C148.128 30.1678 148.194 30.1901 148.247 30.2322C148.3 30.2742 148.337 30.3334 148.351 30.3996C148.365 30.4657 148.355 30.5346 148.324 30.5946C146.869 33.0031 145.247 35.2824 143.599 37.5401C142.769 38.6609 141.928 39.7762 141.066 40.8755C140.63 41.4143 140.231 41.9962 139.746 42.492C139.238 43.035 138.611 43.4519 137.914 43.7097C137.829 43.7377 137.738 43.7321 137.657 43.6939C137.577 43.6558 137.514 43.5881 137.483 43.505C137.462 43.4629 137.449 43.4172 137.445 43.3703Z" fill="#C08FF1"/>
<path d="M138.839 62.45L135.298 65.5381L135.67 65.9645L139.211 62.8764L138.839 62.45Z" fill="#C08FF1"/>
<path d="M134.621 57.6687L133.124 64.3516L133.676 64.4753L135.174 57.7925L134.621 57.6687Z" fill="#C08FF1"/>
<path d="M129.348 62.7891L128.935 63.1758L130.905 65.28L131.318 64.8932L129.348 62.7891Z" fill="#C08FF1"/>
<path d="M170.842 190.364H166.256L165.696 179.749H170.276L170.842 190.364Z" fill="#F19B97"/>
<path d="M193.958 190.364H189.372L187.578 179.749H192.158L193.958 190.364Z" fill="#F19B97"/>
<path d="M189.076 189.831H194.222C194.311 189.83 194.399 189.861 194.468 189.918C194.537 189.975 194.583 190.055 194.599 190.144L195.31 194.217C195.325 194.319 195.317 194.423 195.288 194.522C195.259 194.62 195.209 194.712 195.142 194.789C195.074 194.867 194.991 194.929 194.897 194.972C194.803 195.015 194.702 195.036 194.599 195.036C192.804 195.004 191.937 194.896 189.668 194.896C188.278 194.896 184.523 195.042 182.599 195.042C180.675 195.042 180.514 193.14 181.306 192.967C184.878 192.197 187.136 191.13 188.311 190.117C188.523 189.933 188.795 189.831 189.076 189.831Z" fill="#263238"/>
<path d="M166.143 189.831H171.144C171.233 189.83 171.321 189.861 171.39 189.918C171.459 189.975 171.505 190.055 171.521 190.144L172.232 194.217C172.248 194.318 172.243 194.422 172.215 194.521C172.187 194.62 172.138 194.711 172.072 194.789C172.005 194.867 171.922 194.93 171.829 194.972C171.736 195.015 171.634 195.037 171.531 195.036C169.732 195.004 167.124 194.896 164.855 194.896C162.204 194.896 161.531 195.042 158.416 195.042C156.536 195.042 156.105 193.14 156.902 192.967C160.523 192.186 161.833 192.1 165.017 190.192C165.353 189.972 165.742 189.847 166.143 189.831Z" fill="#263238"/>
<path d="M165.998 47.6392L159.736 45.8018C159.736 45.8018 153.357 60.9591 151.196 61.9667C148.259 63.3138 140.419 67.4466 137.1 69.3972C136.874 70.1461 136.868 72.1991 137.23 72.7918C142.666 72.3607 153.82 68.6697 155.965 66.6114C160.857 61.9128 165.998 47.6392 165.998 47.6392Z" fill="#F19B97"/>
<path d="M167.894 44.7774C169.672 48.7432 157.463 66.1367 157.463 66.1367L151.535 59.9832C151.535 59.9832 156.778 46.8196 159.618 41.7708C162.517 36.5818 165.96 40.4129 167.894 44.7774Z" fill="#C08FF1"/>
<path opacity="0.4" d="M167.894 44.7774C169.672 48.7432 157.463 66.1367 157.463 66.1367L151.535 59.9832C151.535 59.9832 156.778 46.8196 159.618 41.7708C162.517 36.5818 165.96 40.4129 167.894 44.7774Z" fill="white"/>
<path d="M151.104 59.4396C150.733 59.6605 149.935 61.11 149.757 61.832C149.579 62.554 153.75 68.1255 155.372 67.8992C156.994 67.6729 158.847 66.0941 159.181 65.2428C159.515 64.3914 151.886 58.9816 151.104 59.4396Z" fill="#C08FF1"/>
<path d="M137.795 69.052L134.023 68.3623L134.25 73.7506C134.25 73.7506 135.575 74.2894 138.431 72.5221L137.795 69.052Z" fill="#F19B97"/>
<path d="M129.465 70.1561L130.155 73.4699L134.223 73.7717L133.996 68.3672L129.465 70.1561Z" fill="#F19B97"/>
<path opacity="0.2" d="M165.696 179.755L165.987 185.224H170.567L170.281 179.755H165.696Z" fill="#364153"/>
<path opacity="0.2" d="M192.163 179.755H187.578L188.505 185.224H193.09L192.163 179.755Z" fill="#364153"/>
<path d="M162.069 39.3681C162.069 39.3681 155.954 55.1127 159.866 80.885H184.377C184.722 77.1132 183.299 56.8585 187.756 39.131C185.062 38.6057 182.337 38.2583 179.598 38.091C176.127 37.8915 172.647 37.8915 169.177 38.091C166.779 38.335 164.403 38.7619 162.069 39.3681Z" fill="#C08FF1"/>
<path opacity="0.2" d="M162.069 39.3681C162.069 39.3681 155.954 55.1127 159.866 80.885H184.377C184.722 77.1132 183.299 56.8585 187.756 39.131C185.062 38.6057 182.337 38.2583 179.598 38.091C176.127 37.8915 172.647 37.8915 169.177 38.091C166.779 38.335 164.403 38.7619 162.069 39.3681Z" fill="#364153"/>
<path opacity="0.2" d="M182.222 43.5058C181.683 46.4263 182.26 53.4041 184.657 61.4704C184.949 54.5453 185.851 47.6593 187.352 40.8925V40.8601C185.724 40.6931 182.745 40.7685 182.222 43.5058Z" fill="#364153"/>
<path d="M178.703 28.3486C177.884 31.7002 177.362 35.8545 179.598 38.0907C179.598 38.0907 178.089 41.4961 171.86 41.4961C166.165 41.4961 169.166 38.0907 169.166 38.0907C172.938 37.2016 172.976 32.5785 172.447 29.9705L178.703 28.3486Z" fill="#F19B97"/>
<path d="M171.887 41.4903C175.557 42.638 176.284 43.8126 176.284 43.8126C176.284 43.8126 180.859 41.9537 180.686 37.9232C180.131 37.5124 179.531 37.1654 178.897 36.8887C178.897 36.8887 178.509 39.8738 171.887 41.4903Z" fill="#C08FF1"/>
<path d="M171.887 41.4909C169.829 41.6849 168.115 43.4469 168.115 43.4469C168.115 43.4469 166.806 42.0729 168.061 38.0855C168.061 38.0855 169.285 37.6706 170.298 37.4551C170.271 37.4605 169.446 40.6288 171.887 41.4909Z" fill="#C08FF1"/>
<path opacity="0.2" d="M172.458 29.9759C172.771 31.5008 172.889 33.7477 172.167 35.4774C172.756 35.3809 173.328 35.1994 173.865 34.9385C176.02 33.9471 177.13 32.3791 178.326 30.0891C178.434 29.491 178.563 28.909 178.703 28.3486L172.458 29.9759Z" fill="#364153"/>
<path d="M171.731 17.6364C170.265 18.1159 166.989 20.9286 170.114 22.3458C173.239 23.7629 174.285 16.8066 171.731 17.6364Z" fill="#263238"/>
<path d="M181.618 24.248C180.19 28.6449 179.576 31.2528 176.769 33.0849C172.55 35.779 167.673 32.546 167.787 27.9013C167.884 23.693 170.201 17.2109 174.948 16.3757C179.695 15.5405 183.046 19.8673 181.618 24.248Z" fill="#F19B97"/>
<path d="M174.732 19.4363C172.307 19.8458 170.287 19.7165 169.554 17.7013C168.821 15.6861 172.157 13.5738 174.457 14.5222C176.155 12.7548 180.789 14.1127 181.387 15.81C184.081 15.6376 186.63 18.7412 184.803 20.3308C185.216 20.5875 185.565 20.9349 185.824 21.3468C186.083 21.7586 186.244 22.224 186.296 22.7076C186.348 23.1912 186.289 23.6802 186.124 24.1376C185.958 24.595 185.691 25.0087 185.342 25.3473C186.128 27.6858 183.294 30.019 181.058 29.0706C178.854 28.4132 177.653 28.9521 177.346 27.5296C177.038 26.107 177.814 24.733 179.689 24.4582C178.741 23.3267 178.509 21.5378 179.151 20.7672C176.882 21.7964 175.023 20.5032 174.732 19.4363Z" fill="#263238"/>
<path d="M171.822 28.9145C172.251 28.9505 172.683 28.9014 173.092 28.7701C173.502 28.6388 173.881 28.4279 174.209 28.1494C174.229 28.1283 174.241 28.1004 174.241 28.0713C174.241 28.0422 174.229 28.0142 174.209 27.9931C174.2 27.9827 174.188 27.9743 174.175 27.9686C174.162 27.9629 174.148 27.96 174.134 27.96C174.12 27.96 174.106 27.9629 174.093 27.9686C174.08 27.9743 174.068 27.9827 174.058 27.9931C173.699 28.2913 173.277 28.5044 172.823 28.6164C172.37 28.7283 171.897 28.7363 171.44 28.6397C171.411 28.6349 171.382 28.6411 171.358 28.6571C171.334 28.6731 171.317 28.6978 171.31 28.7259C171.306 28.7394 171.305 28.7536 171.307 28.7676C171.309 28.7815 171.314 28.7948 171.322 28.8066C171.33 28.8184 171.34 28.8284 171.352 28.8359C171.364 28.8433 171.377 28.8481 171.391 28.8499C171.534 28.8787 171.678 28.9003 171.822 28.9145Z" fill="#263238"/>
<path d="M181.872 30.3206C180.955 31.0368 179.796 31.3707 178.639 31.2528C177.135 31.0858 177.022 29.604 177.965 28.4832C178.816 27.4702 180.627 26.3279 181.882 27.0715C183.138 27.8151 182.998 29.4262 181.872 30.3206Z" fill="#F19B97"/>
<path d="M175.977 80.8848C175.977 80.8848 175.352 86.6503 174.554 94.458C173.638 103.311 172.501 114.804 171.779 123.555C171.779 123.598 171.779 123.636 171.779 123.673C171.639 125.338 171.515 126.906 171.413 128.318C170.389 142.603 172.221 184.157 172.221 184.157H164.451C164.451 184.157 157.295 141.751 157.473 127.213C157.64 113.242 159.86 80.874 159.86 80.874L175.977 80.8848Z" fill="#C08FF1"/>
<path d="M172.857 181.123C172.895 181.123 172.722 184.324 172.722 184.324H163.772L163.546 180.811L172.857 181.123Z" fill="#263238"/>
<path opacity="0.2" d="M174.581 94.458C173.665 103.311 172.528 114.804 171.806 123.555C171.806 123.598 171.806 123.636 171.806 123.673C170.098 115.37 169.565 105.046 170.228 88.0459L174.581 94.458Z" fill="#364153"/>
<path d="M168.557 80.8848C168.557 80.8848 172.135 114.001 174.36 127.122C176.801 141.492 186.436 184.162 186.436 184.162H194.831C194.831 184.162 189.173 142.673 188.063 128.426C186.867 112.983 184.393 80.8848 184.393 80.8848H168.557Z" fill="#C08FF1"/>
<path d="M194.933 181.317C194.971 181.317 195.224 184.324 195.224 184.324H185.999L185.325 180.967L194.933 181.317Z" fill="#263238"/>
<path d="M174.005 24.0543C173.908 24.4153 173.644 24.6686 173.412 24.5931C173.18 24.5177 173.067 24.2052 173.159 23.8442C173.25 23.4831 173.52 23.2299 173.751 23.3053C173.983 23.3808 174.096 23.7095 174.005 24.0543Z" fill="#263238"/>
<path d="M169.974 23.1707C169.877 23.5317 169.613 23.785 169.381 23.7096C169.15 23.6341 169.037 23.327 169.128 22.9606C169.22 22.5942 169.489 22.3463 169.721 22.4217C169.953 22.4972 170.066 22.8097 169.974 23.1707Z" fill="#263238"/>
<path d="M171.855 23.6338C171.141 24.6491 170.299 25.5675 169.349 26.3657C169.823 27.0985 170.966 27.0608 170.966 27.0608L171.855 23.6338Z" fill="#630F0F"/>
<path d="M176.198 22.9978C176.166 22.9893 176.136 22.9738 176.111 22.9524C176.086 22.9309 176.066 22.9041 176.052 22.8739C175.958 22.6247 175.803 22.4028 175.602 22.2279C175.4 22.0531 175.159 21.9307 174.899 21.8716C174.871 21.8678 174.844 21.8582 174.82 21.8434C174.795 21.8286 174.775 21.8089 174.758 21.7856C174.742 21.7623 174.731 21.7359 174.725 21.708C174.72 21.6802 174.72 21.6515 174.727 21.6238C174.737 21.5665 174.769 21.5155 174.817 21.4814C174.864 21.4473 174.922 21.4327 174.98 21.4406C175.311 21.5084 175.62 21.6584 175.878 21.8769C176.136 22.0953 176.335 22.3752 176.456 22.6907C176.477 22.7452 176.476 22.8054 176.454 22.8593C176.432 22.9132 176.39 22.9569 176.338 22.9816C176.294 23.0026 176.245 23.0083 176.198 22.9978Z" fill="#263238"/>
<path d="M169.193 21.3275C169.164 21.3154 169.137 21.2991 169.112 21.2791C169.092 21.259 169.076 21.2351 169.065 21.2087C169.054 21.1824 169.048 21.1541 169.048 21.1255C169.048 21.0969 169.054 21.0686 169.065 21.0422C169.076 21.0159 169.092 20.992 169.112 20.9719C169.34 20.7077 169.627 20.5015 169.951 20.3703C170.274 20.2392 170.624 20.1868 170.971 20.2176C170.999 20.2213 171.026 20.2309 171.051 20.2458C171.075 20.2606 171.096 20.2802 171.112 20.3035C171.128 20.3269 171.139 20.3533 171.145 20.3812C171.15 20.409 171.15 20.4377 171.144 20.4654C171.132 20.5221 171.099 20.5723 171.052 20.6062C171.006 20.6401 170.948 20.6552 170.89 20.6486C170.614 20.6282 170.337 20.6732 170.081 20.7799C169.826 20.8866 169.599 21.0521 169.419 21.2629C169.39 21.2924 169.354 21.3139 169.315 21.3253C169.275 21.3366 169.233 21.3374 169.193 21.3275Z" fill="#263238"/>
<path d="M190.471 45.3867L184.684 48.8891C184.684 48.8891 191.15 62.8987 191.113 65.2534C191.005 69.6503 192.896 79.1822 192.384 84.2041C193.095 84.4574 195.078 84.5166 195.703 84.1664C196.851 79.624 198.441 67.6889 197.983 64.6984C196.98 58.1947 190.471 45.3867 190.471 45.3867Z" fill="#F19B97"/>
<path d="M187.756 39.1305C192.066 39.7609 198.209 61.6375 198.209 61.6375L190.234 64.6603C190.234 64.6603 183.289 52.806 181.586 47.477C179.754 41.9162 183.138 38.4516 187.756 39.1305Z" fill="#C08FF1"/>
<path opacity="0.4" d="M187.756 39.1305C192.066 39.7609 198.209 61.6375 198.209 61.6375L190.234 64.6603C190.234 64.6603 183.289 52.806 181.586 47.477C179.754 41.9162 183.138 38.4516 187.756 39.1305Z" fill="white"/>
<path d="M187.513 190.634C187.205 190.661 186.897 190.577 186.646 190.397C186.566 190.328 186.505 190.238 186.47 190.138C186.435 190.038 186.427 189.93 186.446 189.826C186.45 189.762 186.47 189.7 186.505 189.646C186.54 189.592 186.588 189.548 186.646 189.519C187.185 189.26 188.602 190.166 188.763 190.273C188.781 190.284 188.795 190.301 188.803 190.32C188.811 190.339 188.812 190.361 188.806 190.381C188.801 190.402 188.79 190.421 188.775 190.436C188.76 190.451 188.741 190.462 188.72 190.467C188.326 190.57 187.921 190.626 187.513 190.634ZM186.883 189.67C186.835 189.667 186.786 189.676 186.743 189.697C186.72 189.709 186.701 189.726 186.688 189.748C186.674 189.77 186.667 189.795 186.667 189.821C186.654 189.893 186.658 189.967 186.681 190.037C186.704 190.106 186.743 190.169 186.797 190.219C187.034 190.43 187.632 190.456 188.413 190.3C187.951 189.989 187.43 189.774 186.883 189.67Z" fill="#C08FF1"/>
<path d="M188.699 190.472C188.683 190.477 188.666 190.477 188.65 190.472C188.187 190.219 187.319 189.211 187.443 188.699C187.463 188.62 187.509 188.55 187.573 188.499C187.638 188.448 187.717 188.42 187.799 188.419C187.88 188.408 187.963 188.415 188.042 188.438C188.121 188.461 188.194 188.501 188.257 188.554C188.769 188.99 188.796 190.316 188.796 190.37C188.796 190.39 188.791 190.41 188.781 190.428C188.772 190.445 188.758 190.461 188.742 190.472C188.727 190.474 188.713 190.474 188.699 190.472ZM187.863 188.592H187.815C187.675 188.592 187.659 188.672 187.653 188.699C187.578 189.001 188.127 189.777 188.58 190.117C188.578 189.601 188.414 189.1 188.111 188.683C188.043 188.623 187.954 188.591 187.863 188.592Z" fill="#C08FF1"/>
<path d="M164.198 190.633C163.809 190.67 163.418 190.571 163.093 190.353C163.022 190.285 162.969 190.2 162.938 190.106C162.907 190.012 162.899 189.912 162.916 189.814C162.922 189.754 162.943 189.696 162.977 189.645C163.011 189.594 163.056 189.553 163.11 189.523C163.681 189.211 165.48 190.148 165.685 190.256C165.704 190.267 165.72 190.284 165.728 190.305C165.737 190.325 165.739 190.348 165.734 190.369C165.73 190.392 165.719 190.413 165.702 190.43C165.686 190.446 165.665 190.457 165.642 190.461C165.167 190.562 164.684 190.62 164.198 190.633ZM163.411 189.669C163.341 189.665 163.271 189.678 163.207 189.707C163.186 189.719 163.168 189.736 163.155 189.757C163.142 189.778 163.134 189.801 163.131 189.825C163.12 189.889 163.125 189.954 163.146 190.015C163.167 190.076 163.202 190.132 163.25 190.175C163.519 190.423 164.268 190.466 165.292 190.299C164.706 189.982 164.07 189.768 163.411 189.669Z" fill="#C08FF1"/>
<path d="M165.626 190.472H165.577C165.038 190.224 163.961 189.232 164.096 188.715C164.096 188.591 164.219 188.44 164.516 188.413C164.622 188.4 164.73 188.409 164.832 188.441C164.934 188.472 165.029 188.525 165.109 188.596C165.647 189.076 165.734 190.31 165.739 190.364C165.739 190.383 165.733 190.402 165.724 190.419C165.715 190.436 165.701 190.45 165.685 190.461C165.667 190.472 165.646 190.476 165.626 190.472ZM164.591 188.591H164.527C164.333 188.591 164.316 188.688 164.311 188.71C164.246 189.022 164.952 189.787 165.502 190.138C165.474 189.622 165.286 189.128 164.963 188.726C164.861 188.635 164.728 188.587 164.591 188.591Z" fill="#C08FF1"/>
<path d="M206.183 88.6319L178.64 92.2238C177.433 92.3812 176.582 93.4872 176.739 94.6941L179.085 112.679C179.242 113.886 180.348 114.737 181.555 114.579L209.099 110.987C210.305 110.83 211.156 109.724 210.999 108.517L208.653 90.5322C208.496 89.3253 207.39 88.4745 206.183 88.6319Z" fill="#263238"/>
<path opacity="0.3" d="M206.183 88.6319L178.64 92.2238C177.433 92.3812 176.582 93.4872 176.739 94.6941L179.085 112.679C179.242 113.886 180.348 114.737 181.555 114.579L209.099 110.987C210.305 110.83 211.156 109.724 210.999 108.517L208.653 90.5322C208.496 89.3253 207.39 88.4745 206.183 88.6319Z" fill="#364153"/>
<path d="M191.118 94.5763C190.657 94.576 190.21 94.4224 189.846 94.1398C189.406 93.8001 189.118 93.3006 189.044 92.7496L188.559 89.0101C188.523 88.7377 188.542 88.4609 188.613 88.1956C188.685 87.9303 188.808 87.6817 188.975 87.464C189.143 87.2463 189.352 87.0638 189.59 86.9269C189.828 86.79 190.091 86.7014 190.364 86.6662L196.587 85.8526C197.138 85.7807 197.695 85.9305 198.135 86.2689C198.576 86.6074 198.864 87.1069 198.936 87.6577L199.427 91.3971C199.496 91.9475 199.345 92.5029 199.007 92.9427C198.669 93.3825 198.171 93.6713 197.622 93.7465L191.393 94.5547C191.302 94.5672 191.21 94.5744 191.118 94.5763ZM196.862 87.0326H196.749L190.52 87.8463C190.406 87.8609 190.296 87.8979 190.196 87.9551C190.097 88.0124 190.009 88.0887 189.939 88.1799C189.869 88.271 189.818 88.375 189.788 88.4861C189.758 88.5971 189.75 88.713 189.766 88.8269L190.251 92.5664C190.282 92.7976 190.404 93.0068 190.59 93.1483C190.681 93.2185 190.785 93.2698 190.896 93.2994C191.007 93.329 191.123 93.3363 191.237 93.3208L197.46 92.5125C197.691 92.4803 197.899 92.359 198.041 92.1746C198.183 91.9903 198.247 91.7576 198.22 91.5265L197.751 87.8301C197.737 87.7158 197.699 87.6056 197.642 87.5057C197.585 87.4059 197.508 87.3183 197.417 87.2482C197.26 87.1205 197.064 87.0502 196.862 87.0488V87.0326Z" fill="#263238"/>
<path d="M208.806 88.291L181.263 91.883C180.056 92.0404 179.205 93.1464 179.362 94.3533L181.708 112.338C181.865 113.545 182.971 114.396 184.178 114.238L211.722 110.646C212.929 110.489 213.779 109.383 213.622 108.176L211.277 90.1914C211.119 88.9845 210.013 88.1336 208.806 88.291Z" fill="#263238"/>
<path d="M192.643 83.4499L190.886 86.8714L196.037 87.1085C196.409 86.3613 196.544 85.5186 196.425 84.6927C196.306 83.8667 195.937 83.0967 195.369 82.4854L192.643 83.4499Z" fill="#F19B97"/>
<path d="M192.853 89.5221L195.924 89.1019L196.037 87.1082L190.886 86.8711L190.967 87.9865C190.983 88.214 191.045 88.4358 191.15 88.6383C191.255 88.8408 191.4 89.0195 191.577 89.1635C191.754 89.3075 191.958 89.4136 192.178 89.4753C192.397 89.537 192.627 89.5529 192.853 89.5221Z" fill="#F19B97"/>
<path d="M189.033 63.4163C188.952 63.8365 189.523 65.3938 189.943 65.9973C190.364 66.6007 197.314 67.1342 198.209 65.7656C199.103 64.3969 199.141 61.9614 198.715 61.1478C198.29 60.3341 189.2 62.5056 189.033 63.4163Z" fill="#C08FF1"/>
<path d="M87.4955 46.5983C86.628 47.7352 85.685 48.9799 84.8013 50.2031C83.9177 51.4262 83.0663 52.6709 82.2527 53.9318C80.6209 56.3513 79.2123 58.9141 78.0444 61.5886C77.9097 61.9065 77.7858 62.2244 77.678 62.5423C77.6205 62.7004 77.5666 62.8566 77.5163 63.0111L77.4409 63.2482L77.4086 63.3613V63.3936C77.3099 63.8065 77.2898 64.2342 77.3493 64.6545C77.5352 66.01 77.8547 67.3438 78.303 68.6365C79.2244 71.4222 80.4584 74.2942 81.6707 77.08L78.9173 78.8258C76.8516 76.2768 75.0633 73.515 73.5829 70.587C72.7673 69.0066 72.1467 67.3329 71.7347 65.6029C71.4671 64.4837 71.4232 63.3228 71.6054 62.1867L71.6485 61.928L71.6916 61.7556L71.7724 61.4215C71.8209 61.2006 71.8748 60.9797 71.9394 60.7642C72.058 60.3277 72.1873 59.9074 72.3274 59.4871C73.4544 56.3168 74.9252 53.2794 76.7135 50.4294C77.5756 49.0338 78.4593 47.6652 79.4076 46.345C80.356 45.0249 81.2936 43.7425 82.3874 42.4277L87.4955 46.5983Z" fill="#263238"/>
<path d="M80.9432 76.083L83.7775 77.5864L80.5445 81.4067C80.5445 81.4067 78.5077 80.0272 78.3892 77.9258L80.9432 76.083Z" fill="#FFC3BD"/>
<path d="M87.5924 79.9416L84.1008 82.7166L80.5176 81.4072L83.7775 77.5869L87.5924 79.9416Z" fill="#FFC3BD"/>
<path d="M129.955 67.8926L133.307 69.6222L133.01 70.8292L130.316 73.5234C130.316 73.5234 128.377 72.0146 128.42 69.9132L129.955 67.8926Z" fill="#FFC3BD"/>
<path d="M130.44 68.3666L133.512 67.79L135.484 68.6306L134.169 68.8515L133.307 69.6328L130.44 68.3666Z" fill="#FFC3BD"/>
<path d="M136.664 73.9227L133.334 74.6393C132.985 74.7133 132.621 74.6697 132.299 74.5154L130.3 73.5455L132.994 70.8513L134.778 70.3125L137.008 72.8719C137.078 72.9574 137.125 73.0589 137.145 73.1671C137.165 73.2753 137.157 73.3869 137.123 73.4914C137.089 73.596 137.029 73.6903 136.948 73.7656C136.868 73.841 136.77 73.895 136.664 73.9227Z" fill="#FFC3BD"/>
<path d="M99.7754 24.754C99.8508 25.115 100.099 25.3683 100.314 25.2928C100.53 25.2174 100.681 24.9103 100.611 24.5492C100.541 24.1882 100.282 23.935 100.072 24.0104C99.8616 24.0858 99.6838 24.393 99.7754 24.754Z" fill="#263238"/>
<path d="M100.066 25.374C100.722 26.3917 101.514 27.3146 102.421 28.1167C101.882 28.8441 100.761 28.7902 100.761 28.7902L100.066 25.374Z" fill="#FF5652"/>
<path d="M98.0672 23.014C98.0133 23.0118 97.9618 22.9908 97.9217 22.9547C97.8819 22.9135 97.8596 22.8585 97.8596 22.8012C97.8596 22.7439 97.8819 22.6888 97.9217 22.6476C98.1494 22.3898 98.4355 22.1902 98.7561 22.0655C99.0767 21.9408 99.4225 21.8947 99.7645 21.931C99.8147 21.9472 99.8575 21.981 99.885 22.026C99.9125 22.071 99.9229 22.1245 99.9145 22.1765C99.906 22.2286 99.8791 22.276 99.8388 22.31C99.7984 22.344 99.7473 22.3625 99.6945 22.362C99.4232 22.3368 99.1498 22.3764 98.8969 22.4776C98.6439 22.5788 98.4187 22.7386 98.2396 22.944C98.2182 22.9681 98.1915 22.987 98.1616 22.9991C98.1317 23.0113 98.0994 23.0164 98.0672 23.014Z" fill="#263238"/>
<path d="M89.9849 31.1396C90.6099 34.3188 90.9817 38.721 88.7617 40.8386C88.7617 40.8386 89.6292 44.0716 95.5348 44.0716C102.033 44.0716 98.66 41.2373 98.66 41.2373C95.9659 40.4022 95.9659 37.3254 96.6017 34.8576L89.9849 31.1396Z" fill="#FFC3BD"/>
<path d="M87.8295 43.0155C87.2907 42.1641 87.4685 39.5831 88.1151 39.1628C89.1496 38.4839 93.4172 38.5593 99.0803 40.2135C98.3151 42.6814 99.5598 44.0716 99.5598 44.0716L87.8295 43.0155Z" fill="#C08FF1"/>
<path opacity="0.2" d="M83.0878 47.5898C81.0672 49.5835 80.4799 53.6679 80.7008 56.4536C81.1965 55.6076 81.7246 54.7617 82.2688 53.9373C83.0824 52.671 83.9499 51.4371 84.8228 50.1978C85.0653 49.8583 85.3132 49.5135 85.5664 49.1686C85.6149 48.9477 85.658 48.7268 85.7011 48.5112L83.0878 47.5898Z" fill="#364153"/>
<path d="M68.7764 189.669C69.1294 189.792 69.5168 189.771 69.8541 189.61C69.9192 189.551 69.9641 189.472 69.9825 189.386C70.0008 189.3 69.9918 189.211 69.9565 189.13C69.9365 189.064 69.9026 189.003 69.8571 188.951C69.8116 188.899 69.7554 188.857 69.6924 188.828C69.1051 188.548 67.7527 189.098 67.6988 189.119C67.6803 189.127 67.6643 189.139 67.6528 189.156C67.6413 189.172 67.6348 189.191 67.6341 189.211C67.6333 189.231 67.6385 189.251 67.6491 189.268C67.6596 189.286 67.675 189.299 67.6934 189.308C68.0406 189.466 68.4037 189.587 68.7764 189.669ZM69.4877 188.974L69.6062 189.012C69.6437 189.028 69.6771 189.053 69.7041 189.083C69.7311 189.114 69.751 189.15 69.7625 189.189C69.8164 189.373 69.7625 189.432 69.7248 189.453C69.4931 189.653 68.6471 189.453 68.0167 189.222C68.4875 189.021 68.9981 188.931 69.5092 188.958L69.4877 188.974Z" fill="#C08FF1"/>
<path d="M67.7202 189.302H67.7687C68.2645 189.162 69.3152 188.413 69.326 187.923C69.3277 187.845 69.3023 187.769 69.2541 187.708C69.2059 187.647 69.1379 187.605 69.0619 187.589C68.9875 187.561 68.9079 187.55 68.8287 187.557C68.7495 187.563 68.6728 187.587 68.6039 187.627C68.0274 187.923 67.661 189.125 67.6448 189.173C67.6368 189.189 67.6326 189.206 67.6326 189.224C67.6326 189.242 67.6368 189.26 67.6448 189.275C67.6658 189.293 67.6927 189.303 67.7202 189.302ZM68.9488 187.761H68.9973C69.1212 187.804 69.1212 187.869 69.1212 187.896C69.1212 188.187 68.4207 188.769 67.9088 189.006C68.0462 188.531 68.3219 188.107 68.7009 187.788C68.7417 187.766 68.7866 187.752 68.8329 187.747C68.8792 187.743 68.9259 187.747 68.9703 187.761H68.9488Z" fill="#C08FF1"/>
<path d="M100.864 190.38C101.403 190.38 101.941 190.304 102.141 190.051C102.187 189.986 102.212 189.908 102.212 189.828C102.212 189.747 102.187 189.669 102.141 189.604C102.067 189.483 101.949 189.396 101.812 189.361C101.09 189.167 99.5706 190.03 99.5059 190.067C99.4871 190.077 99.4721 190.093 99.4634 190.113C99.4546 190.132 99.4525 190.154 99.4574 190.175C99.4603 190.196 99.4697 190.216 99.4842 190.231C99.4986 190.246 99.5175 190.257 99.5383 190.261C99.9759 190.339 100.419 190.378 100.864 190.38ZM101.553 189.539C101.62 189.531 101.687 189.531 101.753 189.539C101.794 189.548 101.834 189.566 101.868 189.591C101.902 189.616 101.931 189.648 101.952 189.685C102.028 189.814 102.001 189.873 101.952 189.911C101.753 190.191 100.654 190.197 99.8454 190.083C100.375 189.794 100.954 189.609 101.553 189.539Z" fill="#C08FF1"/>
<path d="M99.5489 190.261H99.5921C100.131 190.029 101.155 189.086 101.079 188.596C101.079 188.477 100.977 188.337 100.697 188.305C100.594 188.296 100.491 188.307 100.393 188.337C100.295 188.368 100.204 188.417 100.125 188.483C99.5867 188.941 99.452 190.099 99.4466 190.159C99.4461 190.176 99.4498 190.194 99.4573 190.209C99.4648 190.225 99.4759 190.239 99.4897 190.25C99.5079 190.26 99.5286 190.263 99.5489 190.261ZM100.627 188.499H100.691C100.874 188.499 100.885 188.591 100.891 188.612C100.939 188.908 100.233 189.647 99.6998 189.965C99.7477 189.471 99.9472 189.004 100.271 188.628C100.366 188.547 100.486 188.501 100.61 188.499H100.627Z" fill="#C08FF1"/>
<path d="M94.7749 190.159H99.1179L99.5489 180.094H95.206L94.7749 190.159Z" fill="#FFC3BD"/>
<path d="M62.9517 188.3L67.1438 189.189L70.9479 179.56L66.7558 178.671L62.9517 188.3Z" fill="#FFC3BD"/>
<path d="M67.5317 188.639L62.7576 187.605C62.6741 187.587 62.5871 187.598 62.5108 187.636C62.4344 187.675 62.3733 187.738 62.3373 187.815L60.6777 191.409C60.6377 191.497 60.6181 191.593 60.6203 191.689C60.6225 191.786 60.6465 191.881 60.6906 191.967C60.7346 192.053 60.7975 192.128 60.8746 192.186C60.9517 192.244 61.041 192.285 61.1357 192.303C62.8115 192.632 63.6413 192.713 65.7374 193.166C67.0306 193.446 69.9456 194.157 71.7292 194.54C73.5127 194.922 74.1216 193.214 73.4265 192.896C70.312 191.474 69.0081 190.202 68.1621 189.049C68.01 188.839 67.7853 188.693 67.5317 188.639Z" fill="#263238"/>
<path d="M99.0911 189.669H94.344C94.2579 189.67 94.1747 189.7 94.1074 189.753C94.0401 189.807 93.9925 189.882 93.9722 189.965L93.1155 193.829C93.0944 193.922 93.0947 194.019 93.1163 194.113C93.138 194.206 93.1804 194.293 93.2405 194.368C93.3006 194.442 93.3768 194.502 93.4634 194.543C93.55 194.584 93.6447 194.605 93.7405 194.605C95.454 194.572 97.9272 194.475 100.077 194.475C102.594 194.475 103.488 194.61 106.435 194.61C108.219 194.61 108.715 192.81 107.971 192.643C104.571 191.9 103.073 191.819 100.136 190.008C99.8256 189.802 99.464 189.684 99.0911 189.669Z" fill="#263238"/>
<path opacity="0.2" d="M99.549 180.099L99.3281 185.282H94.9797L95.2007 180.099H99.549Z" fill="#364153"/>
<path opacity="0.2" d="M66.7558 178.671L70.9479 179.56L68.9865 184.523L64.7944 183.639L66.7558 178.671Z" fill="#364153"/>
<path d="M97.884 79.6123C97.884 79.6123 92.9483 112.826 90.2434 125.267C87.2798 138.894 71.3843 184 71.3843 184L63.582 182.287C63.582 182.287 74.7035 145.549 77.1875 126.501C79.1004 111.872 82.8668 79.6231 82.8668 79.6231L97.884 79.6123Z" fill="#263238"/>
<path opacity="0.1" d="M97.884 79.6123C97.884 79.6123 92.9483 112.826 90.2434 125.267C87.2798 138.894 71.3843 184 71.3843 184L63.582 182.287C63.582 182.287 74.7035 145.549 77.1875 126.501C79.1004 111.872 82.8668 79.6231 82.8668 79.6231L97.884 79.6123Z" fill="white"/>
<path d="M73.2433 181.376C73.2756 181.376 71.7938 184.188 71.7938 184.188L63.0432 182.292L63.7814 179.662L73.2433 181.376Z" fill="#263238"/>
<path opacity="0.3" d="M94.7641 91.4457C89.0632 92.5665 89.6667 113.834 90.351 124.772C91.9675 117.04 94.4031 102.141 96.0519 91.602C95.6521 91.4074 95.1987 91.3523 94.7641 91.4457Z" fill="#364153"/>
<path d="M106.15 79.6123C106.15 79.6123 106.748 112.104 106.274 125.359C105.783 139.142 100.972 184.28 100.972 184.28H93.5842C93.5842 184.28 93.3148 139.951 92.9861 126.41C92.6305 111.651 90.8308 79.6123 90.8308 79.6123H106.15Z" fill="#263238"/>
<path opacity="0.1" d="M106.15 79.6123C106.15 79.6123 106.748 112.104 106.274 125.359C105.783 139.142 100.972 184.28 100.972 184.28H93.5842C93.5842 184.28 93.3148 139.951 92.9861 126.41C92.6305 111.651 90.8308 79.6123 90.8308 79.6123H106.15Z" fill="white"/>
<path d="M102.378 181.349C102.41 181.349 101.958 184.404 101.958 184.404H92.9915L92.749 181.677L102.378 181.349Z" fill="#263238"/>
<path d="M106.721 46.1835C107.61 50.8821 109.259 64.008 106.683 83.1042L81.5305 82.7163C81.385 79.3809 84.036 61.2762 81.5844 45.2028C81.516 44.7469 81.5392 44.282 81.6525 43.8351C81.7659 43.3882 81.9672 42.9685 82.2446 42.6003C82.522 42.2321 82.87 41.9228 83.2682 41.6906C83.6665 41.4584 84.107 41.3079 84.5641 41.2478C85.8357 41.0754 87.3121 40.9138 88.767 40.8437C92.0565 40.655 95.3542 40.655 98.6438 40.8437C99.7214 40.9461 100.799 41.1023 101.758 41.2694C102.986 41.489 104.118 42.0766 105.004 42.9542C105.89 43.8318 106.489 44.958 106.721 46.1835Z" fill="#263238"/>
<path opacity="0.2" d="M107.411 50.8496L103.175 51.9003C102.852 55.8554 105.46 60.333 108.068 63.7546C108.094 59.444 107.875 55.1353 107.411 50.8496Z" fill="#364153"/>
<path d="M105.67 44.0713C106.387 45.3591 107.163 46.7654 107.96 48.0748C108.758 49.3842 109.577 50.7259 110.401 52.019C111.99 54.5604 113.792 56.9615 115.789 59.1963C116.037 59.4495 116.28 59.7082 116.528 59.9453L116.711 60.1231L116.856 60.2524C116.937 60.3386 117.077 60.4356 117.179 60.5272C117.675 60.9151 118.257 61.3247 118.898 61.718C120.165 62.4993 121.522 63.2645 122.902 64.0026C125.661 65.4844 128.516 66.9393 131.335 68.4103L130.219 71.4762C127.03 70.7127 123.89 69.7572 120.817 68.615C119.276 68.0385 117.729 67.4134 116.183 66.6537C115.36 66.262 114.563 65.8193 113.796 65.3282C113.585 65.1773 113.386 65.0588 113.16 64.8809L112.837 64.6331L112.572 64.4122C112.211 64.1212 111.883 63.8194 111.549 63.5177C110.276 62.3306 109.087 61.0558 107.992 59.7028C106.915 58.3934 105.907 57.0086 104.953 55.6669C104 54.3252 103.094 52.9027 102.259 51.4748C101.424 50.0469 100.594 48.646 99.8184 47.0941L105.67 44.0713Z" fill="#263238"/>
<path d="M87.5547 26.4355C88.7293 30.8216 89.1711 33.4403 91.903 35.2724C95.9766 38.0204 101.063 34.8682 101.203 30.2181C101.343 26.0368 99.3982 19.5654 94.6942 18.6818C93.6571 18.4805 92.5857 18.548 91.582 18.8777C90.5783 19.2075 89.6758 19.7887 88.9601 20.5658C88.2445 21.343 87.7397 22.2904 87.4937 23.3178C87.2477 24.3452 87.2687 25.4185 87.5547 26.4355Z" fill="#FFC3BD"/>
<path d="M96.6664 26.489C97.7117 24.9533 98.1104 22.5932 97.3776 21.4563C98.0619 21.7419 102.998 22.0813 101.063 18.5682C99.1288 15.055 95.2492 14.0851 91.8708 15.055L93.5142 15.5292C93.5142 15.5292 88.8964 15.1951 86.6495 17.0648C87.3338 17.1025 87.9265 17.0648 87.9265 17.0648C87.9265 17.0648 82.9801 19.398 85.1354 21.1707C81.6599 23.8164 84.0146 27.4804 89.737 32.9442C90.7338 33.844 93.5573 33.5153 94.1824 32.9765C93.7836 30.5949 96.079 27.3619 96.6664 26.489Z" fill="#263238"/>
<path d="M97.2483 23.499C98.2721 24.248 99.5384 26.4518 100.126 27.551C100.713 28.6502 101.333 28.5102 101.629 28.9466C101.925 29.3831 103.138 36.765 101.839 37.9451C100.541 39.1251 96.6341 37.2608 96.1222 35.9029C95.6103 34.5451 96.5478 31.2151 96.8011 30.4553C97.0675 29.1431 96.9895 27.7842 96.5748 26.5111C96.1222 25.2233 97.2483 23.499 97.2483 23.499Z" fill="#263238"/>
<path d="M94.942 26.6944C95.0816 27.2317 95.3275 27.7356 95.6654 28.1762C96.0032 28.6167 96.426 28.985 96.9088 29.2592C98.0996 29.798 98.2451 28.4132 98.0134 27.1039C97.8032 25.9131 97.4745 24.9486 96.51 24.4852C95.3731 23.8978 94.5487 25.3904 94.942 26.6944Z" fill="#FFC3BD"/>
</svg>
