<svg width="659" height="491" viewBox="0 0 659 491" fill="none" xmlns="http://www.w3.org/2000/svg">
<path d="M658.787 431.375H0V431.704H658.787V431.375Z" fill="#EBEBEB"/>
<path d="M458.952 446.079H445.144V446.408H458.952V446.079Z" fill="#EBEBEB"/>
<path d="M138.583 439.491H85.5509V439.821H138.583V439.491Z" fill="#EBEBEB"/>
<path d="M242.872 440.467H164.937V440.796H242.872V440.467Z" fill="#EBEBEB"/>
<path d="M354.427 440.467H331.989V440.796H354.427V440.467Z" fill="#EBEBEB"/>
<path d="M587.692 442.547H515.752V442.877H587.692V442.547Z" fill="#EBEBEB"/>
<path d="M301.433 447.976H271.709V448.305H301.433V447.976Z" fill="#EBEBEB"/>
<path d="M614.242 442.72H595.388V443.049H614.242V442.72Z" fill="#EBEBEB"/>
<path d="M312.266 372.61H57.8551C55.8621 372.607 53.9519 371.812 52.5439 370.402C51.1358 368.991 50.345 367.08 50.345 365.087V7.45747C50.3623 5.47587 51.1608 3.58114 52.567 2.18483C53.9732 0.788513 55.8735 0.00339458 57.8551 0H312.266C314.261 0 316.175 0.792637 317.585 2.20354C318.996 3.61444 319.789 5.52803 319.789 7.52335V365.087C319.789 367.082 318.996 368.996 317.585 370.407C316.175 371.817 314.261 372.61 312.266 372.61ZM57.8551 0.263516C55.9495 0.267006 54.123 1.02648 52.7768 2.37523C51.4305 3.72398 50.6744 5.5518 50.6744 7.45747V365.087C50.6744 366.992 51.4305 368.82 52.7768 370.169C54.123 371.518 55.9495 372.277 57.8551 372.281H312.266C314.173 372.277 316 371.518 317.349 370.17C318.697 368.821 319.456 366.994 319.46 365.087V7.45747C319.456 5.55059 318.697 3.7228 317.349 2.37442C316 1.02605 314.173 0.266999 312.266 0.263516H57.8551Z" fill="#EBEBEB"/>
<path d="M597.27 372.61H342.846C340.852 372.607 338.94 371.813 337.53 370.403C336.12 368.993 335.326 367.081 335.323 365.087V7.45747C335.343 5.47467 336.145 3.57995 337.553 2.184C338.961 0.788053 340.863 0.00335756 342.846 0H597.27C599.249 0.00685731 601.146 0.793508 602.549 2.18945C603.953 3.58539 604.749 5.47815 604.767 7.45747V365.087C604.767 367.078 603.978 368.987 602.572 370.397C601.167 371.807 599.26 372.603 597.27 372.61ZM342.846 0.263516C340.939 0.266999 339.111 1.02605 337.763 2.37442C336.414 3.7228 335.655 5.55059 335.652 7.45747V365.087C335.655 366.994 336.414 368.821 337.763 370.17C339.111 371.518 340.939 372.277 342.846 372.281H597.27C599.176 372.277 601.004 371.518 602.353 370.17C603.701 368.821 604.46 366.994 604.464 365.087V7.45747C604.46 5.55059 603.701 3.7228 602.353 2.37442C601.004 1.02605 599.176 0.266999 597.27 0.263516H342.846Z" fill="#EBEBEB"/>
<path d="M95.9464 233.779L275.505 233.779V24.5477L95.9464 24.5477L95.9464 233.779Z" fill="#F5F5F5"/>
<path d="M91.057 233.779L273.212 233.779V24.5477L91.057 24.5477L91.057 233.779Z" fill="#F5F5F5"/>
<path d="M95.9464 245.492L275.505 245.492V233.766L95.9464 233.766V245.492Z" fill="#E6E6E6"/>
<path d="M68.7384 245.492L240.221 245.492V233.766L68.7384 233.766V245.492Z" fill="#F5F5F5"/>
<path d="M266.387 224.898V33.4148L97.8957 33.4148V224.898H266.387Z" fill="#FAFAFA"/>
<path d="M242.144 224.898L202.037 33.4277H149.479L189.573 224.898H242.144Z" fill="white"/>
<path d="M181.059 224.898L140.965 33.4277H117.222L157.329 224.898H181.059Z" fill="white"/>
<path d="M98.7543 204.87L98.7543 32.2285H97.8847L97.8847 204.87H98.7543Z" fill="white"/>
<path d="M280.642 24.2448V98.7404H260.878C260.878 98.7404 225.462 75.6434 217.398 28.1184C217.207 26.9866 217.264 25.8267 217.566 24.7193C217.869 23.612 218.408 22.5837 219.148 21.706C219.888 20.8283 220.81 20.1222 221.85 19.6369C222.89 19.1515 224.024 18.8985 225.172 18.8954H275.24C275.946 18.8902 276.647 19.0246 277.301 19.291C277.955 19.5573 278.55 19.9503 279.052 20.4474C279.554 20.9445 279.953 21.5358 280.226 22.1875C280.499 22.8392 280.64 23.5383 280.642 24.2448Z" fill="#E6E6E6"/>
<path d="M280.643 218.152V104.749H260.88C260.88 104.749 249.548 127.648 238.244 153.973C235.259 160.984 234.058 168.625 234.748 176.213C235.438 183.801 237.997 191.099 242.197 197.457C246.397 203.814 252.106 209.032 258.815 212.643C265.525 216.255 273.024 218.147 280.643 218.152Z" fill="#E6E6E6"/>
<path d="M261.484 104.749H279.89C280.982 104.749 281.867 103.864 281.867 102.772V100.717C281.867 99.6255 280.982 98.7406 279.89 98.7406H261.484C260.392 98.7406 259.508 99.6255 259.508 100.717V102.772C259.508 103.864 260.392 104.749 261.484 104.749Z" fill="#F5F5F5"/>
<path d="M85.4723 24.2448V98.7404H105.236C105.236 98.7404 140.652 75.6434 148.716 28.1184C148.907 26.9866 148.85 25.8267 148.548 24.7193C148.245 23.612 147.706 22.5837 146.966 21.706C146.226 20.8283 145.304 20.1222 144.264 19.6369C143.223 19.1515 142.09 18.8985 140.942 18.8954H90.8743C90.1679 18.8902 89.4674 19.0246 88.8131 19.291C88.1588 19.5573 87.5635 19.9503 87.0615 20.4474C86.5596 20.9445 86.1608 21.5358 85.888 22.1875C85.6153 22.8392 85.474 23.5383 85.4723 24.2448Z" fill="#E6E6E6"/>
<path d="M85.4723 218.152V104.749H105.236C105.236 104.749 116.567 127.648 127.872 153.973C130.855 160.98 132.056 168.616 131.369 176.199C130.682 183.783 128.127 191.079 123.933 197.435C119.739 203.791 114.037 209.009 107.335 212.624C100.633 216.24 93.1399 218.139 85.525 218.152H85.4723Z" fill="#E6E6E6"/>
<path d="M104.614 98.7402H86.2078C85.1163 98.7402 84.2314 99.6251 84.2314 100.717V102.772C84.2314 103.864 85.1163 104.748 86.2078 104.748H104.614C105.706 104.748 106.591 103.864 106.591 102.772V100.717C106.591 99.6251 105.706 98.7402 104.614 98.7402Z" fill="#F5F5F5"/>
<path d="M486.658 192.841H565.752V50.2402H486.658V192.841Z" fill="#E0E0E0"/>
<path d="M477.806 192.841H563.738V50.2402H477.806V192.841Z" fill="#F5F5F5"/>
<path d="M554.869 183.974V59.094L486.658 59.094V183.974H554.869Z" fill="white"/>
<path d="M531.035 102.745V84.2861H510.494V102.745H531.035Z" fill="#F5F5F5"/>
<path d="M531.035 130.758V112.299H510.494V130.758H531.035Z" fill="#F5F5F5"/>
<path d="M531.035 158.769V140.31H510.494V158.769H531.035Z" fill="#F5F5F5"/>
<path d="M402.074 159.428C413.417 159.23 424.229 154.585 432.181 146.493C440.132 138.401 444.588 127.51 444.588 116.165C444.588 104.82 440.132 93.9291 432.181 85.8374C424.229 77.7456 413.417 73.1006 402.074 72.9026H399.439V159.428H402.074Z" fill="#E6E6E6"/>
<path d="M409.507 158.238C432.739 152.669 447.057 129.321 441.488 106.09C435.919 82.8585 412.572 68.5401 389.341 74.1089C366.109 79.6777 351.791 103.025 357.36 126.256C362.928 149.488 386.276 163.806 409.507 158.238Z" fill="#F5F5F5"/>
<path d="M404.68 148.401C422.461 145.492 434.518 128.72 431.609 110.939C428.701 93.1581 411.928 81.1016 394.147 84.0102C376.366 86.9188 364.31 103.691 367.219 121.472C370.127 139.253 386.899 151.309 404.68 148.401Z" fill="white"/>
<path d="M385.917 128.347L383.374 124.697L396.945 115.237L392.465 93.444L396.813 92.5481L401.886 117.2L385.917 128.347Z" fill="#E6E6E6"/>
<path d="M189.075 436.052H245.612L245.612 283.292H189.075L189.075 436.052Z" fill="#E6E6E6"/>
<path d="M204.171 436.039H189.072V410.742H219.995L204.171 436.039Z" fill="#F0F0F0"/>
<path d="M528.02 436.052H584.557V283.292H528.02V436.052Z" fill="#F0F0F0"/>
<path d="M189.072 427.343L541.207 427.343V283.293L189.072 283.293V427.343Z" fill="#FAFAFA"/>
<path d="M526.107 436.039H541.206V410.742H510.269L526.107 436.039Z" fill="#F0F0F0"/>
<path d="M200.785 348.696L529.493 348.696V295.677L200.785 295.677V348.696Z" fill="#F0F0F0"/>
<path d="M200.785 414.523L529.493 414.523V361.504L200.785 361.504V414.523Z" fill="#F0F0F0"/>
<path d="M442.571 268.365C449.091 268.365 454.376 263.079 454.376 256.559C454.376 250.039 449.091 244.754 442.571 244.754C436.051 244.754 430.765 250.039 430.765 256.559C430.765 263.079 436.051 268.365 442.571 268.365Z" fill="#F5F5F5"/>
<path d="M450.898 262.198C450.898 264.022 451.439 265.805 452.452 267.322C453.466 268.839 454.906 270.021 456.591 270.719C458.277 271.417 460.131 271.6 461.92 271.244C463.709 270.888 465.353 270.01 466.642 268.72C467.932 267.43 468.811 265.787 469.167 263.997C469.523 262.208 469.34 260.354 468.642 258.669C467.944 256.983 466.762 255.543 465.245 254.529C463.728 253.516 461.945 252.975 460.121 252.975C457.675 252.975 455.329 253.947 453.599 255.676C451.87 257.406 450.898 259.752 450.898 262.198Z" fill="#F5F5F5"/>
<path d="M422.377 273.991C428.897 273.991 434.182 268.705 434.182 262.185C434.182 255.665 428.897 250.38 422.377 250.38C415.857 250.38 410.571 255.665 410.571 262.185C410.571 268.705 415.857 273.991 422.377 273.991Z" fill="#F5F5F5"/>
<path d="M403.017 270.526C409.537 270.526 414.823 265.241 414.823 258.721C414.823 252.201 409.537 246.915 403.017 246.915C396.497 246.915 391.212 252.201 391.212 258.721C391.212 265.241 396.497 270.526 403.017 270.526Z" fill="#F5F5F5"/>
<path d="M492.63 260.261C492.63 260.261 491.009 283.279 428.886 283.279C366.762 283.279 365.141 260.261 365.141 260.261H492.63Z" fill="#E6E6E6"/>
<path d="M329.393 490.876C470.482 490.876 584.858 484.199 584.858 475.961C584.858 467.724 470.482 461.046 329.393 461.046C188.304 461.046 73.9287 467.724 73.9287 475.961C73.9287 484.199 188.304 490.876 329.393 490.876Z" fill="#F5F5F5"/>
<path d="M271.819 139.189C271.99 139.769 272.293 140.652 272.557 141.39L273.4 143.748C273.98 145.316 274.612 146.871 275.284 148.412C276.598 151.463 278.076 154.441 279.711 157.332C282.952 162.998 286.892 168.123 291.569 171.404L292.386 171.97C292.386 171.97 292.386 172.063 292.584 172.089C293.476 172.066 294.348 171.826 295.127 171.391C297.827 169.96 300.311 168.155 302.505 166.028C305.04 163.707 307.455 161.258 309.739 158.689C312.084 156.054 314.39 153.327 316.564 150.652L322.849 154.447C319.584 161.369 315.482 167.865 310.635 173.789C307.972 177.082 304.816 179.944 301.28 182.274C298.956 183.771 296.327 184.729 293.585 185.08C291.84 185.258 290.078 185.097 288.394 184.606C287.526 184.352 286.687 184.007 285.891 183.578L284.375 182.735C280.693 180.514 277.358 177.762 274.48 174.566C271.729 171.56 269.276 168.295 267.155 164.816C265.074 161.438 263.238 157.916 261.66 154.275C260.883 152.484 260.145 150.665 259.473 148.834C259.131 147.912 258.801 146.989 258.498 146.041C258.195 145.092 257.919 144.222 257.602 143.05L271.819 139.189Z" fill="#B97964"/>
<path d="M285.427 162.472L268.576 171.8C268.576 171.8 268.075 171.076 267.258 169.824C266.665 168.902 265.94 167.689 265.018 166.266C260.064 158.216 251.842 143.512 253.99 137.28C257.271 127.688 269.366 127.846 275.308 138.966C278.182 144.507 280.755 150.198 283.016 156.016C283.636 157.57 284.149 158.928 284.545 159.968C285.111 161.563 285.427 162.472 285.427 162.472Z" fill="url(#paint0_linear_834_33458)"/>
<path opacity="0.2" d="M285.427 162.472L268.576 171.8C268.576 171.8 268.075 171.076 267.258 169.824C266.665 168.902 265.94 167.689 265.018 166.266C260.064 158.216 251.842 143.512 253.99 137.28C257.271 127.688 269.366 127.846 275.308 138.966C278.182 144.507 280.755 150.198 283.016 156.016C283.636 157.57 284.149 158.928 284.545 159.968C285.111 161.563 285.427 162.472 285.427 162.472Z" fill="black"/>
<path opacity="0.2" d="M284.6 160.034L267.313 169.824C266.72 168.901 265.996 167.689 265.073 166.266L283.072 156.068C283.638 157.623 284.152 158.98 284.6 160.034Z" fill="black"/>
<path opacity="0.2" d="M253.74 138.439C257.509 136.621 261.857 138.136 266.415 145.356C270.974 152.577 274.887 164.698 275.375 168.085L268.642 171.8C268.642 171.8 252.357 148.044 253.74 138.439Z" fill="black"/>
<path d="M269.365 215.569H217.123C216.754 210.905 217.835 195.726 217.031 176.397C216.535 162.071 214.798 147.814 211.84 133.787C211.603 132.733 211.366 131.692 211.115 130.638C211.115 130.638 213.75 130.098 217.558 129.545C220.707 129.083 224.66 128.609 228.534 128.425C235.928 128.003 243.34 128.003 250.735 128.425C254.147 128.741 257.481 129.307 260.142 129.821C263.542 130.506 265.86 131.139 265.86 131.139C265.86 131.139 278.417 160.639 269.365 215.569Z" fill="url(#paint1_linear_834_33458)"/>
<path opacity="0.2" d="M269.365 215.569H217.123C216.754 210.905 217.835 195.726 217.031 176.397C216.535 162.071 214.798 147.814 211.84 133.787C211.603 132.733 211.366 131.692 211.115 130.638C211.115 130.638 213.75 130.098 217.558 129.545C220.707 129.083 224.66 128.609 228.534 128.425C235.928 128.003 243.34 128.003 250.735 128.425C254.147 128.741 257.481 129.307 260.142 129.821C263.542 130.506 265.86 131.139 265.86 131.139C265.86 131.139 278.417 160.639 269.365 215.569Z" fill="black"/>
<path d="M198.126 449.11L205.873 456.04L220.604 440.691L212.87 433.76L198.126 449.11Z" fill="#B97964"/>
<path d="M224.646 463.537H234.41L235.688 440.915H225.911L224.646 463.537Z" fill="#B97964"/>
<path d="M220.606 440.704L213.004 448.609L205.256 441.679L212.859 433.76L220.606 440.704Z" fill="#A76755"/>
<path d="M225.912 440.928H235.689L235.03 452.588H225.254L225.912 440.928Z" fill="#A76755"/>
<path d="M268.865 215.069C268.865 215.069 279.155 286.297 282.673 325.074C285.492 356.168 218.23 448.926 218.23 448.926L205.213 436.685C205.213 436.685 254.345 353.533 250.564 318.907C246.901 285.362 234.489 215.03 234.489 215.03L268.865 215.069Z" fill="url(#paint2_linear_834_33458)"/>
<path opacity="0.7" d="M268.865 215.069C268.865 215.069 279.155 286.297 282.673 325.074C285.492 356.168 218.23 448.926 218.23 448.926L205.213 436.685C205.213 436.685 254.345 353.533 250.564 318.907C246.901 285.362 234.489 215.03 234.489 215.03L268.865 215.069Z" fill="black"/>
<path d="M234.925 462.469H223.989C223.897 462.466 223.806 462.48 223.719 462.512C223.633 462.544 223.554 462.593 223.487 462.655C223.42 462.718 223.365 462.793 223.327 462.876C223.289 462.959 223.267 463.05 223.264 463.141L222.737 471.824C222.737 472.281 222.917 472.719 223.237 473.045C223.558 473.37 223.993 473.556 224.45 473.563C228.271 473.497 230.089 473.26 234.991 473.26C237.955 473.26 250.577 473.576 254.675 473.576C258.773 473.576 258.628 469.518 256.928 469.149C249.128 467.502 239.47 465.197 236.717 463.075C236.211 462.666 235.575 462.451 234.925 462.469Z" fill="#263238"/>
<path d="M208.007 453.247L198.586 446.91C198.433 446.791 198.246 446.727 198.052 446.727C197.859 446.727 197.671 446.791 197.519 446.91L190.325 454.169C190.182 454.329 190.076 454.518 190.016 454.724C189.955 454.929 189.94 455.145 189.973 455.357C190.006 455.569 190.085 455.771 190.205 455.948C190.325 456.125 190.483 456.274 190.667 456.383C196.675 461.008 201.01 464.486 204.423 468.333C208.376 472.839 210.523 473.472 219.746 473.472C224.015 473.472 226.426 469.875 224.687 469.322C209.311 464.46 213.422 462.338 209.693 455.21C209.297 454.43 208.718 453.757 208.007 453.247Z" fill="#263238"/>
<path d="M315.405 152.313L318.765 141.562L327.487 147.952C327.487 147.952 322.718 157.531 319.49 156.661L315.405 152.313Z" fill="#B97964"/>
<path d="M327.949 137.45L332.863 143.472L327.487 147.951L318.765 141.561L327.949 137.45Z" fill="#B97964"/>
<path opacity="0.2" d="M217.032 176.398C216.535 162.071 214.798 147.815 211.841 133.788C215.332 133.485 221.301 133.788 222.289 139.466C223.356 145.527 222.012 159.783 217.032 176.398Z" fill="black"/>
<path opacity="0.5" d="M250.563 318.933C248.679 301.66 244.463 274.597 240.839 252.435C242.737 248.72 248.047 241.209 248.047 241.209C252.816 257.692 263.186 319.816 248.402 403.732C232.987 428.582 218.23 448.951 218.23 448.951L216.214 416.908C230.457 390.109 253.185 342.9 250.563 318.933Z" fill="black"/>
<path d="M220.592 144.829L218.286 148.782C217.496 150.152 216.732 151.536 215.994 152.933C214.492 155.726 213.047 158.537 211.659 161.365C210.341 164.198 209.024 167.044 207.851 169.89C206.718 172.697 205.729 175.56 204.887 178.467L204.728 178.994L204.649 179.271C204.606 179.343 204.579 179.424 204.57 179.508C204.53 179.916 204.53 180.326 204.57 180.733C204.706 181.977 204.967 183.204 205.348 184.396C206.261 187.256 207.375 190.047 208.681 192.75C211.316 198.415 214.518 204.173 217.72 209.733L211.936 214.253C207.131 209.366 202.786 204.047 198.957 198.363C196.927 195.356 195.163 192.177 193.687 188.863C192.854 186.972 192.21 185.004 191.763 182.986C191.506 181.769 191.374 180.528 191.368 179.284C191.358 178.534 191.411 177.785 191.526 177.044L191.619 176.504V176.161L191.763 175.489C193.183 168.532 195.37 161.753 198.285 155.278C199.669 152.089 201.184 148.98 202.805 145.936C203.622 144.408 204.452 142.906 205.321 141.404C206.191 139.902 207.047 138.479 208.075 136.885L220.592 144.829Z" fill="#B97964"/>
<path d="M224.081 148.426C221.645 155.173 218.816 161.772 215.609 168.189C214.911 169.639 214.291 170.93 213.738 171.971C212.816 173.802 212.236 174.909 212.236 174.909L192.472 163.947C192.472 163.947 192.723 163.117 193.171 161.72C193.513 160.666 193.961 159.282 194.488 157.688C197.782 148.294 204.515 131.534 211.116 130.573C220.985 129.202 228.086 136.581 224.081 148.426Z" fill="url(#paint3_linear_834_33458)"/>
<path opacity="0.2" d="M215.61 168.255C214.912 169.705 214.292 170.996 213.739 172.037L193.145 161.786C193.488 160.732 193.936 159.349 194.463 157.754L215.61 168.255Z" fill="black"/>
<path d="M238.39 464.104C237.502 464.084 236.619 463.969 235.755 463.762C235.711 463.75 235.671 463.726 235.638 463.694C235.606 463.661 235.583 463.621 235.571 463.577C235.566 463.534 235.573 463.49 235.592 463.45C235.61 463.411 235.639 463.377 235.676 463.353C235.979 463.129 238.759 461.245 239.945 461.706C240.08 461.76 240.2 461.848 240.292 461.961C240.384 462.074 240.446 462.208 240.472 462.352C240.532 462.566 240.537 462.792 240.486 463.008C240.436 463.225 240.331 463.425 240.182 463.59C239.667 463.974 239.03 464.157 238.39 464.104ZM236.414 463.432C238.166 463.775 239.444 463.722 239.905 463.274C240 463.163 240.064 463.03 240.092 462.886C240.12 462.743 240.11 462.595 240.063 462.457C240.054 462.387 240.026 462.32 239.982 462.265C239.938 462.209 239.879 462.166 239.813 462.141C239.167 461.891 237.547 462.708 236.414 463.432Z" fill="url(#paint4_linear_834_33458)"/>
<path d="M235.845 463.787C235.811 463.798 235.774 463.798 235.74 463.787C235.707 463.768 235.679 463.742 235.658 463.71C235.637 463.678 235.625 463.641 235.621 463.603C235.621 463.484 235.397 460.678 236.386 459.729C236.51 459.605 236.662 459.511 236.829 459.456C236.996 459.401 237.174 459.386 237.347 459.413C237.541 459.422 237.727 459.493 237.877 459.617C238.026 459.741 238.132 459.909 238.178 460.098C238.401 461.165 236.939 463.208 235.964 463.787H235.845ZM237.163 459.835C237.072 459.832 236.983 459.849 236.899 459.883C236.815 459.917 236.739 459.968 236.675 460.032C236.133 460.968 235.907 462.054 236.03 463.129C236.873 462.417 237.848 460.862 237.703 460.164C237.703 460.032 237.598 459.874 237.268 459.835H237.163Z" fill="url(#paint5_linear_834_33458)"/>
<path d="M214.331 458.517C212.588 458.25 210.925 457.607 209.456 456.633C209.416 456.609 209.384 456.574 209.365 456.531C209.346 456.489 209.341 456.441 209.35 456.396C209.361 456.349 209.385 456.306 209.42 456.273C209.456 456.24 209.5 456.218 209.548 456.211C210.075 456.211 214.7 455.869 215.596 456.923C215.668 457.014 215.718 457.122 215.741 457.236C215.764 457.351 215.759 457.469 215.727 457.582C215.689 457.764 215.606 457.933 215.487 458.076C215.367 458.218 215.215 458.329 215.042 458.399C214.814 458.481 214.573 458.521 214.331 458.517ZM210.378 456.62C212.486 457.779 214.146 458.28 214.884 457.937C214.993 457.893 215.089 457.824 215.165 457.734C215.24 457.645 215.293 457.538 215.319 457.424C215.341 457.385 215.352 457.342 215.352 457.298C215.352 457.254 215.341 457.211 215.319 457.173C214.766 456.673 212.236 456.58 210.352 456.659L210.378 456.62Z" fill="url(#paint6_linear_834_33458)"/>
<path d="M209.573 456.712C209.534 456.712 209.495 456.702 209.461 456.684C209.426 456.666 209.397 456.639 209.375 456.607C209.359 456.571 209.35 456.533 209.35 456.495C209.35 456.456 209.359 456.418 209.375 456.383C209.454 456.224 211.22 452.641 213.473 453.747C214.092 454.05 214.158 454.419 214.105 454.67C213.868 455.724 210.93 456.699 209.586 456.738L209.573 456.712ZM212.616 453.985C211.417 453.985 210.39 455.513 209.981 456.224C211.391 456.04 213.526 455.17 213.657 454.551C213.657 454.406 213.552 454.274 213.275 454.13C213.07 454.031 212.844 453.981 212.616 453.985Z" fill="url(#paint7_linear_834_33458)"/>
<path d="M215.098 207.665L224.822 205.978L219.828 217.23C219.828 217.23 210.948 217.23 211.356 212.606L215.098 207.665Z" fill="#B97964"/>
<path d="M232.068 211.631L227.509 220.722L219.827 217.23L224.821 205.978L232.068 211.631Z" fill="#B97964"/>
<path d="M204.422 435.974L219.021 449.703L223.711 444.657L207.031 429.452L204.422 435.974Z" fill="url(#paint8_linear_834_33458)"/>
<path opacity="0.7" d="M204.422 435.974L219.021 449.703L223.711 444.657L207.031 429.452L204.422 435.974Z" fill="white"/>
<path d="M250.341 215.069C250.341 215.069 251.277 289.723 249.696 317.682C247.957 348.316 239.274 449.769 239.274 449.769H221.355C221.355 449.769 221.882 350.78 220.815 320.462C219.642 287.523 216.612 215.056 216.612 215.056L250.341 215.069Z" fill="url(#paint9_linear_834_33458)"/>
<path opacity="0.7" d="M250.341 215.069C250.341 215.069 251.277 289.723 249.696 317.682C247.957 348.316 239.274 449.769 239.274 449.769H221.355C221.355 449.769 221.882 350.78 220.815 320.462C219.642 287.523 216.612 215.056 216.612 215.056L250.341 215.069Z" fill="black"/>
<path d="M220.601 449.769H239.93L241.01 442.983L219.666 444.037L220.601 449.769Z" fill="url(#paint10_linear_834_33458)"/>
<path opacity="0.7" d="M220.601 449.769H239.93L241.01 442.983L219.666 444.037L220.601 449.769Z" fill="white"/>
<path opacity="0.2" d="M224.081 148.426C221.645 155.173 218.816 161.772 215.609 168.189C214.911 169.639 214.291 170.93 213.738 171.971C212.816 173.802 212.236 174.909 212.236 174.909L192.472 163.947C192.472 163.947 192.723 163.117 193.171 161.72C193.513 160.666 193.961 159.282 194.488 157.688C197.782 148.294 204.515 131.534 211.116 130.573C220.985 129.202 228.086 136.581 224.081 148.426Z" fill="black"/>
<path d="M259.076 136.027C258.022 139.519 255.123 144.183 247.02 146.568L244.912 147.2L242.764 146.818C226.229 143.853 220.142 134.96 219.048 133.234L216.834 129.545C219.983 129.083 223.936 128.609 227.81 128.425C235.204 128.003 242.617 128.003 250.011 128.425C253.424 128.741 256.757 129.307 259.418 129.821C259.786 131.888 259.669 134.013 259.076 136.027Z" fill="url(#paint11_linear_834_33458)"/>
<path opacity="0.4" d="M259.076 136.027C258.022 139.519 255.123 144.183 247.02 146.568L244.912 147.2L242.764 146.818C226.229 143.853 220.142 134.96 219.048 133.234L216.834 129.545C219.983 129.083 223.936 128.609 227.81 128.425C235.204 128.003 242.617 128.003 250.011 128.425C253.424 128.741 256.757 129.307 259.418 129.821C259.786 131.888 259.669 134.013 259.076 136.027Z" fill="black"/>
<path d="M245.071 137.74C231.816 135.356 227.665 128.517 227.665 128.517C232.501 123.748 230.643 110.717 228.983 103.562L234.925 108.49L243.015 115.21C242.775 116.287 242.604 117.379 242.501 118.477C242.067 122.865 243.2 126.857 249.656 128.386C249.682 128.346 255.031 134.776 245.071 137.74Z" fill="#B97964"/>
<path d="M243.04 115.17C242.8 116.247 242.628 117.339 242.526 118.438C239.509 117.832 235.477 114.617 235.055 111.534C234.907 110.513 234.872 109.479 234.95 108.45L243.04 115.17Z" fill="#A76755"/>
<path d="M248.536 78.5683C253.359 80.7423 256.033 94.3002 249.854 97.2252C243.674 100.15 239.419 74.4443 248.536 78.5683Z" fill="#263238"/>
<path d="M226.624 93.2327C228.693 102.732 229.417 108.385 235.03 112.72C236.84 114.145 239.005 115.05 241.291 115.335C243.577 115.62 245.898 115.276 248.002 114.339C250.107 113.402 251.916 111.908 253.233 110.018C254.551 108.128 255.327 105.914 255.479 103.615C256.217 94.7743 252.712 80.7289 242.712 78.0411C240.563 77.4007 238.284 77.3367 236.103 77.8555C233.922 78.3743 231.916 79.4576 230.286 80.9968C228.656 82.536 227.46 84.4768 226.817 86.6245C226.174 88.7722 226.108 91.0512 226.624 93.2327Z" fill="#B97964"/>
<path d="M215.545 83.8119C210.92 85.8541 213.542 92.1785 216.691 96.1971C221.052 101.784 225.664 104.392 228.8 101.823C231.619 100.413 233.477 92.0994 231.026 86.9741C235.361 84.1149 244.36 87.646 247.167 83.0213C249.973 78.3966 251.976 78.7787 256.917 81.8355C261.858 84.8923 265.81 72.8101 252.964 70.5571C260.079 73.7588 258.445 79.9909 253.241 73.6007C249.565 69.0946 240.75 64.1141 234.623 70.8338C230.104 75.7351 214.227 68.1591 215.545 83.8119Z" fill="#263238"/>
<path d="M224.371 103.141C225.912 104.994 228.042 106.264 230.406 106.738C233.396 107.238 234.068 104.471 232.553 101.783C231.236 99.3723 227.968 96.197 225.293 96.9085C222.619 97.62 222.434 100.808 224.371 103.141Z" fill="#B97964"/>
<path d="M241.549 94.1812C241.668 94.9586 242.181 95.4988 242.695 95.4988C243.209 95.4988 243.525 94.761 243.394 93.9836C243.262 93.2062 242.774 92.666 242.26 92.666C241.747 92.666 241.43 93.3907 241.549 94.1812Z" fill="#263238"/>
<path d="M250.341 93.1273C250.46 93.9046 250.973 94.4448 251.487 94.4448C252.001 94.4448 252.317 93.6938 252.199 92.9165C252.08 92.1391 251.566 91.5989 251.052 91.5989C250.539 91.5989 250.341 92.3499 250.341 93.1273Z" fill="#263238"/>
<path d="M247.706 93.8523C249.013 96.1276 250.617 98.2189 252.476 100.071C251.99 100.516 251.413 100.848 250.784 101.044C250.156 101.239 249.492 101.294 248.839 101.204L247.706 93.8523Z" fill="#A24E3F"/>
<path d="M245.902 103.681C244.99 103.692 244.084 103.519 243.24 103.173C242.396 102.826 241.63 102.313 240.988 101.665C240.945 101.621 240.921 101.561 240.921 101.5C240.921 101.439 240.945 101.38 240.988 101.335C241.032 101.293 241.091 101.269 241.152 101.269C241.214 101.269 241.273 101.293 241.317 101.335C242.028 102.025 242.885 102.545 243.825 102.858C244.765 103.17 245.763 103.267 246.745 103.14C246.776 103.137 246.807 103.139 246.836 103.148C246.866 103.157 246.893 103.172 246.916 103.191C246.94 103.211 246.959 103.236 246.973 103.263C246.986 103.291 246.994 103.321 246.996 103.351C247.002 103.381 247.001 103.412 246.994 103.441C246.986 103.47 246.973 103.498 246.954 103.522C246.935 103.545 246.912 103.565 246.885 103.579C246.858 103.592 246.828 103.6 246.798 103.602C246.501 103.646 246.202 103.673 245.902 103.681Z" fill="#263238"/>
<path d="M238.378 91.6515C238.305 91.6711 238.228 91.6711 238.154 91.6515C238.048 91.5905 237.969 91.4905 237.934 91.3726C237.9 91.2546 237.913 91.1279 237.97 91.0191C238.316 90.3785 238.812 89.8309 239.416 89.4227C240.019 89.0144 240.711 88.7576 241.435 88.6738C241.546 88.6925 241.646 88.7497 241.718 88.8353C241.791 88.9209 241.831 89.0294 241.831 89.1416C241.831 89.2537 241.791 89.3622 241.718 89.4478C241.646 89.5335 241.546 89.5907 241.435 89.6093C240.867 89.6742 240.324 89.8776 239.853 90.2015C239.382 90.5254 238.998 90.96 238.734 91.4671C238.692 91.5219 238.638 91.5669 238.576 91.5987C238.515 91.6306 238.447 91.6486 238.378 91.6515Z" fill="#263238"/>
<path d="M253.725 89.5954C253.649 89.5935 253.574 89.5733 253.508 89.5366C253.441 89.4999 253.385 89.4478 253.343 89.3846C253.024 88.8849 252.594 88.4656 252.087 88.1594C251.579 87.8531 251.008 87.6682 250.418 87.6191C250.295 87.6191 250.178 87.5705 250.091 87.484C250.005 87.3975 249.956 87.2802 249.956 87.1579C249.956 87.0356 250.005 86.9183 250.091 86.8318C250.178 86.7454 250.295 86.6968 250.418 86.6968C251.161 86.7392 251.884 86.9587 252.526 87.3368C253.167 87.7149 253.709 88.2408 254.107 88.8708C254.142 88.9208 254.166 88.9773 254.179 89.037C254.192 89.0967 254.193 89.1583 254.182 89.2184C254.171 89.2784 254.149 89.3357 254.115 89.3869C254.082 89.438 254.039 89.482 253.988 89.5164C253.91 89.5682 253.818 89.5957 253.725 89.5954Z" fill="#263238"/>
<g opacity="0.9">
<path opacity="0.9" d="M391.242 242.079C392.362 239.272 394.276 236.853 396.749 235.117C399.222 233.38 402.148 232.403 405.168 232.303H521.326C528.283 232.303 532.986 237.942 531.866 244.912L495.119 464.301C494.471 467.771 492.66 470.916 489.985 473.217C487.309 475.519 483.929 476.84 480.402 476.963H189.139C187.553 477.025 185.974 476.722 184.524 476.077C183.073 475.433 181.79 474.465 180.772 473.247C179.754 472.03 179.029 470.595 178.652 469.053C178.275 467.511 178.257 465.904 178.598 464.354L209.838 277.588C210.499 274.129 212.315 270.998 214.989 268.707C217.663 266.416 221.036 265.101 224.555 264.979H358.711C372.44 264.926 385.919 255.453 391.242 242.079Z" fill="url(#paint12_linear_834_33458)"/>
</g>
<path opacity="0.5" d="M391.243 242.079C392.363 239.272 394.276 236.853 396.75 235.116C399.223 233.38 402.149 232.402 405.169 232.302H521.327C528.284 232.302 532.987 237.942 531.867 244.912L495.12 464.301C494.472 467.77 492.661 470.915 489.986 473.217C487.31 475.519 483.93 476.84 480.403 476.963H189.14C187.554 477.024 185.975 476.721 184.524 476.077C183.074 475.433 181.79 474.465 180.773 473.247C179.755 472.03 179.029 470.595 178.653 469.053C178.276 467.511 178.258 465.904 178.599 464.354L209.839 277.588C210.5 274.129 212.316 270.997 214.99 268.706C217.664 266.415 221.037 265.101 224.556 264.978H358.712C372.441 264.926 385.92 255.452 391.243 242.079Z" fill="white"/>
<path opacity="0.9" d="M345.008 47.2883L257.113 352.702L458.175 410.557L546.057 105.143L345.008 47.2883Z" fill="url(#paint13_linear_834_33458)"/>
<path opacity="0.7" d="M345.008 47.2883L257.113 352.702L458.175 410.557L546.057 105.143L345.008 47.2883Z" fill="white"/>
<g opacity="0.9" style="mix-blend-mode:multiply">
<path d="M341.108 60.8193L257.113 352.702L451.337 408.593L530.062 106.5L341.108 60.8193Z" fill="url(#paint14_linear_834_33458)"/>
</g>
<path opacity="0.6" d="M341.108 60.8193L257.113 352.702L451.337 408.593L530.062 106.5L341.108 60.8193Z" fill="url(#paint15_linear_834_33458)"/>
<g opacity="0.9">
<g opacity="0.9" style="mix-blend-mode:multiply">
<path d="M341.107 60.8198L257.111 352.702L451.335 408.594L530.06 106.5L341.107 60.8198Z" fill="white"/>
</g>
<path opacity="0.6" d="M341.107 60.8198L257.111 352.702L451.335 408.594L530.06 106.5L341.107 60.8198Z" fill="white"/>
</g>
<path d="M412.304 143.509C425.482 128.44 423.949 105.541 408.88 92.3634C393.811 79.1854 370.912 80.7184 357.734 95.7874C344.556 110.856 346.089 133.755 361.158 146.933C376.227 160.111 399.126 158.578 412.304 143.509Z" fill="url(#paint16_linear_834_33458)"/>
<path d="M377.063 147.214C371.606 145.637 366.739 142.478 363.078 138.136C359.416 133.794 357.124 128.464 356.492 122.819C355.859 117.175 356.914 111.469 359.523 106.424C362.132 101.379 366.179 97.2211 371.151 94.4754C376.123 91.7297 381.798 90.5197 387.457 90.9985C393.117 91.4772 398.507 93.6232 402.948 97.1651C407.388 100.707 410.678 105.486 412.403 110.898C414.128 116.309 414.209 122.111 412.637 127.569C411.594 131.196 409.846 134.583 407.493 137.534C405.14 140.485 402.228 142.944 398.924 144.768C395.62 146.593 391.988 147.748 388.237 148.168C384.486 148.587 380.688 148.263 377.063 147.214Z" fill="white"/>
<path d="M398.995 177.459L335 159.048L330.862 173.433L394.857 191.843L398.995 177.459Z" fill="url(#paint17_linear_834_33458)"/>
<path d="M335.46 290.238L300.183 280.089L284.097 336.005L319.374 346.154L335.46 290.238Z" fill="url(#paint18_linear_834_33458)"/>
<path d="M460.289 326.155L425.012 316.006L408.926 371.922L444.203 382.071L460.289 326.155Z" fill="url(#paint19_linear_834_33458)"/>
<path d="M397.868 308.204L362.591 298.055L346.505 353.971L381.781 364.12L397.868 308.204Z" fill="url(#paint20_linear_834_33458)"/>
<path d="M450.706 192.325L407.414 179.87L403.275 194.255L446.567 206.709L450.706 192.325Z" fill="url(#paint21_linear_834_33458)"/>
<path d="M484.425 235.869L326.009 190.294L324.304 196.22L482.72 241.794L484.425 235.869Z" fill="white"/>
<path d="M401.158 225.547L322.387 202.885L320.682 208.811L399.453 231.473L401.158 225.547Z" fill="white"/>
<path d="M467.323 244.582L414.636 229.424L412.931 235.35L465.618 250.508L467.323 244.582Z" fill="white"/>
<path d="M445.399 251.898L318.765 215.466L317.06 221.392L443.695 257.824L445.399 251.898Z" fill="white"/>
<path d="M459.102 271.251L313.693 228.84L311.966 234.76L457.376 277.171L459.102 271.251Z" fill="white"/>
<path d="M328.328 245.495L311.512 240.657L309.808 246.583L326.623 251.421L328.328 245.495Z" fill="white"/>
<path d="M416.127 270.756L341.825 249.38L340.12 255.306L414.422 276.682L416.127 270.756Z" fill="white"/>
<path d="M466.311 298.83L307.895 253.256L306.19 259.182L464.606 304.756L466.311 298.83Z" fill="white"/>
<path d="M321.609 57.9741L244.333 366.287L447.24 417.158L524.502 108.846L321.609 57.9741Z" fill="url(#paint22_linear_834_33458)"/>
<path opacity="0.8" d="M321.609 57.9741L244.333 366.287L447.24 417.158L524.502 108.846L321.609 57.9741Z" fill="white"/>
<path d="M379.856 161.437C397.882 152.731 405.438 131.06 396.731 113.034C388.025 95.0079 366.354 87.4528 348.328 96.1591C330.302 104.865 322.747 126.536 331.453 144.562C340.16 162.588 361.831 170.143 379.856 161.437Z" fill="url(#paint23_linear_834_33458)"/>
<path d="M392.318 133.996C395.174 118.392 384.839 103.427 369.235 100.572C353.63 97.7161 338.666 108.051 335.81 123.655C332.955 139.259 343.29 154.224 358.894 157.079C374.498 159.935 389.463 149.6 392.318 133.996Z" fill="white"/>
<path d="M380.068 186.166L315.475 169.978L311.836 184.496L376.429 200.685L380.068 186.166Z" fill="url(#paint24_linear_834_33458)"/>
<path d="M320.467 301.078L284.861 292.155L270.716 348.593L306.322 357.517L320.467 301.078Z" fill="url(#paint25_linear_834_33458)"/>
<path d="M446.445 332.656L410.839 323.732L396.694 380.17L432.3 389.094L446.445 332.656Z" fill="url(#paint26_linear_834_33458)"/>
<path d="M383.461 316.867L347.854 307.943L333.709 364.382L369.316 373.306L383.461 316.867Z" fill="url(#paint27_linear_834_33458)"/>
<path d="M432.244 199.238L388.548 188.286L384.909 202.805L428.606 213.756L432.244 199.238Z" fill="url(#paint28_linear_834_33458)"/>
<path d="M467.455 241.586L307.558 201.511L306.059 207.493L465.956 247.567L467.455 241.586Z" fill="white"/>
<path d="M383.889 234.142L304.382 214.216L302.883 220.197L382.39 240.123L383.889 234.142Z" fill="white"/>
<path d="M450.667 250.875L397.487 237.546L395.988 243.528L449.168 256.856L450.667 250.875Z" fill="white"/>
<path d="M429.006 258.96L301.188 226.925L299.689 232.907L427.507 264.941L429.006 258.96Z" fill="white"/>
<path d="M444.94 276.468L298.016 239.645L296.517 245.626L443.441 282.449L444.94 276.468Z" fill="white"/>
<path d="M311.795 256.62L294.822 252.366L293.323 258.348L310.296 262.601L311.795 256.62Z" fill="white"/>
<path d="M400.411 278.814L325.415 260.018L323.916 265.999L398.912 284.795L400.411 278.814Z" fill="white"/>
<path d="M451.534 305.137L291.637 265.063L290.138 271.044L450.035 311.118L451.534 305.137Z" fill="white"/>
<path opacity="0.5" d="M313.664 287.877C313.914 282.936 318.236 279.445 324.112 279.445H440.283C447.24 279.445 453.946 284.307 455.264 290.315L490.14 466.027C491.458 472.035 486.872 476.91 479.916 476.91H188.613C181.643 476.91 174.937 472.035 173.619 466.027L144.935 318.471C143.618 312.463 148.203 307.588 155.173 307.588H289.276C303.044 307.588 313.111 299.419 313.664 287.877Z" fill="url(#paint29_linear_834_33458)"/>
<defs>
<linearGradient id="paint0_linear_834_33458" x1="269.708" y1="130.341" x2="269.708" y2="224.17" gradientUnits="userSpaceOnUse">
<stop stop-color="#613190"/>
<stop offset="1" stop-color="#233E89"/>
</linearGradient>
<linearGradient id="paint1_linear_834_33458" x1="242.218" y1="128.108" x2="242.218" y2="326.046" gradientUnits="userSpaceOnUse">
<stop stop-color="#613190"/>
<stop offset="1" stop-color="#233E89"/>
</linearGradient>
<linearGradient id="paint2_linear_834_33458" x1="244.412" y1="215.03" x2="244.411" y2="744.373" gradientUnits="userSpaceOnUse">
<stop stop-color="#613190"/>
<stop offset="1" stop-color="#233E89"/>
</linearGradient>
<linearGradient id="paint3_linear_834_33458" x1="209.026" y1="130.409" x2="209.026" y2="231.119" gradientUnits="userSpaceOnUse">
<stop stop-color="#613190"/>
<stop offset="1" stop-color="#233E89"/>
</linearGradient>
<linearGradient id="paint4_linear_834_33458" x1="238.072" y1="461.634" x2="238.072" y2="467.245" gradientUnits="userSpaceOnUse">
<stop stop-color="#613190"/>
<stop offset="1" stop-color="#233E89"/>
</linearGradient>
<linearGradient id="paint5_linear_834_33458" x1="236.914" y1="459.4" x2="236.914" y2="469.348" gradientUnits="userSpaceOnUse">
<stop stop-color="#613190"/>
<stop offset="1" stop-color="#233E89"/>
</linearGradient>
<linearGradient id="paint6_linear_834_33458" x1="212.586" y1="456.158" x2="212.586" y2="461.497" gradientUnits="userSpaceOnUse">
<stop stop-color="#613190"/>
<stop offset="1" stop-color="#233E89"/>
</linearGradient>
<linearGradient id="paint7_linear_834_33458" x1="211.761" y1="453.536" x2="211.761" y2="460.784" gradientUnits="userSpaceOnUse">
<stop stop-color="#613190"/>
<stop offset="1" stop-color="#233E89"/>
</linearGradient>
<linearGradient id="paint8_linear_834_33458" x1="214.173" y1="429.452" x2="214.172" y2="475.284" gradientUnits="userSpaceOnUse">
<stop stop-color="#613190"/>
<stop offset="1" stop-color="#233E89"/>
</linearGradient>
<linearGradient id="paint9_linear_834_33458" x1="233.801" y1="215.056" x2="233.798" y2="746.248" gradientUnits="userSpaceOnUse">
<stop stop-color="#613190"/>
<stop offset="1" stop-color="#233E89"/>
</linearGradient>
<linearGradient id="paint10_linear_834_33458" x1="230.455" y1="442.983" x2="230.455" y2="458.34" gradientUnits="userSpaceOnUse">
<stop stop-color="#613190"/>
<stop offset="1" stop-color="#233E89"/>
</linearGradient>
<linearGradient id="paint11_linear_834_33458" x1="238.466" y1="128.108" x2="238.466" y2="171.316" gradientUnits="userSpaceOnUse">
<stop stop-color="#613190"/>
<stop offset="1" stop-color="#233E89"/>
</linearGradient>
<linearGradient id="paint12_linear_834_33458" x1="357.136" y1="232.303" x2="357.136" y2="786.026" gradientUnits="userSpaceOnUse">
<stop stop-color="#613190"/>
<stop offset="1" stop-color="#233E89"/>
</linearGradient>
<linearGradient id="paint13_linear_834_33458" x1="403.173" y1="47.2883" x2="403.172" y2="869.422" gradientUnits="userSpaceOnUse">
<stop stop-color="#613190"/>
<stop offset="1" stop-color="#233E89"/>
</linearGradient>
<linearGradient id="paint14_linear_834_33458" x1="395.087" y1="60.8193" x2="395.086" y2="847.886" gradientUnits="userSpaceOnUse">
<stop stop-color="#613190"/>
<stop offset="1" stop-color="#233E89"/>
</linearGradient>
<linearGradient id="paint15_linear_834_33458" x1="395.087" y1="60.8193" x2="395.086" y2="847.886" gradientUnits="userSpaceOnUse">
<stop stop-color="#613190"/>
<stop offset="1" stop-color="#233E89"/>
</linearGradient>
<linearGradient id="paint16_linear_834_33458" x1="357.996" y1="95.4876" x2="481.496" y2="203.49" gradientUnits="userSpaceOnUse">
<stop stop-color="#613190"/>
<stop offset="1" stop-color="#233E89"/>
</linearGradient>
<linearGradient id="paint17_linear_834_33458" x1="367.349" y1="168.355" x2="357.984" y2="200.909" gradientUnits="userSpaceOnUse">
<stop stop-color="#613190"/>
<stop offset="1" stop-color="#233E89"/>
</linearGradient>
<linearGradient id="paint18_linear_834_33458" x1="318.016" y1="285.22" x2="281.609" y2="411.766" gradientUnits="userSpaceOnUse">
<stop stop-color="#613190"/>
<stop offset="1" stop-color="#233E89"/>
</linearGradient>
<linearGradient id="paint19_linear_834_33458" x1="442.845" y1="321.137" x2="406.438" y2="447.683" gradientUnits="userSpaceOnUse">
<stop stop-color="#613190"/>
<stop offset="1" stop-color="#233E89"/>
</linearGradient>
<linearGradient id="paint20_linear_834_33458" x1="380.423" y1="303.185" x2="344.017" y2="429.732" gradientUnits="userSpaceOnUse">
<stop stop-color="#613190"/>
<stop offset="1" stop-color="#233E89"/>
</linearGradient>
<linearGradient id="paint21_linear_834_33458" x1="429.297" y1="186.166" x2="419.932" y2="218.72" gradientUnits="userSpaceOnUse">
<stop stop-color="#613190"/>
<stop offset="1" stop-color="#233E89"/>
</linearGradient>
<linearGradient id="paint22_linear_834_33458" x1="385.957" y1="57.9741" x2="385.956" y2="870.864" gradientUnits="userSpaceOnUse">
<stop stop-color="#613190"/>
<stop offset="1" stop-color="#233E89"/>
</linearGradient>
<linearGradient id="paint23_linear_834_33458" x1="348.687" y1="95.9859" x2="420.04" y2="243.72" gradientUnits="userSpaceOnUse">
<stop stop-color="#613190"/>
<stop offset="1" stop-color="#233E89"/>
</linearGradient>
<linearGradient id="paint24_linear_834_33458" x1="348.126" y1="178.161" x2="339.891" y2="211.019" gradientUnits="userSpaceOnUse">
<stop stop-color="#613190"/>
<stop offset="1" stop-color="#233E89"/>
</linearGradient>
<linearGradient id="paint25_linear_834_33458" x1="302.86" y1="296.666" x2="270.847" y2="424.395" gradientUnits="userSpaceOnUse">
<stop stop-color="#613190"/>
<stop offset="1" stop-color="#233E89"/>
</linearGradient>
<linearGradient id="paint26_linear_834_33458" x1="428.838" y1="328.243" x2="396.825" y2="455.972" gradientUnits="userSpaceOnUse">
<stop stop-color="#613190"/>
<stop offset="1" stop-color="#233E89"/>
</linearGradient>
<linearGradient id="paint27_linear_834_33458" x1="365.853" y1="312.454" x2="333.841" y2="440.184" gradientUnits="userSpaceOnUse">
<stop stop-color="#613190"/>
<stop offset="1" stop-color="#233E89"/>
</linearGradient>
<linearGradient id="paint28_linear_834_33458" x1="410.636" y1="193.822" x2="402.401" y2="226.68" gradientUnits="userSpaceOnUse">
<stop stop-color="#613190"/>
<stop offset="1" stop-color="#233E89"/>
</linearGradient>
<linearGradient id="paint29_linear_834_33458" x1="319.437" y1="279.445" x2="319.437" y2="726.339" gradientUnits="userSpaceOnUse">
<stop stop-color="#613190"/>
<stop offset="1" stop-color="#233E89"/>
</linearGradient>
</defs>
</svg>
